<svg width="331" height="295" viewBox="0 0 331 295" fill="none" xmlns="http://www.w3.org/2000/svg">
<path d="M256.166 98.4397C256.166 120.068 249.191 140.066 237.359 156.317C237.359 156.317 237.359 156.328 237.348 156.328C219.443 180.907 190.447 196.891 157.715 196.891C103.342 196.891 59.2749 152.812 59.2749 98.4513C59.2749 65.8925 75.0743 37.0349 99.4327 19.1073C115.753 7.10164 135.912 0 157.726 0C160.421 0 163.104 0.104094 165.753 0.323851C181.437 1.58456 196.08 6.52333 208.826 14.2842C218.934 20.4259 227.84 28.3371 235.115 37.5901C237.313 40.3891 239.372 43.3038 241.257 46.3225C250.695 61.4395 256.166 79.3093 256.166 98.4397Z" fill="#EBEBEB"/>
<path d="M178.973 144.913C177.735 148.221 179.805 148.359 179.933 149.736C180.071 151.112 179.933 153.738 175.931 157.728C171.929 161.73 165.313 160.897 163.937 162.551C162.56 164.205 160.212 171.237 156.904 173.585C153.596 175.933 153.041 174.545 148.357 175.517C143.673 176.477 140.087 182.549 138.711 185.44C137.334 188.332 138.988 193.167 135.68 193.294C132.372 193.433 130.857 186.262 127.827 182.399C124.797 178.535 123.825 175.089 122.865 170.543C121.905 165.998 123.42 156.479 122.865 152.754C122.31 149.03 112.386 142.414 108.801 137.869C105.215 133.323 100.253 124.221 100.531 121.19C100.808 118.16 103.018 114.852 104.671 113.603C106.325 112.365 105.631 111.671 105.909 110.573C106.187 109.474 107.563 109.196 107.841 107.82C108.118 106.444 107.008 102.303 105.632 101.62C104.255 100.926 103.284 103.274 102.462 102.858C101.63 102.442 99.1545 99.5501 98.1829 99.2725C97.2229 98.9949 97.4889 101.065 96.1125 98.4397C94.7362 95.8258 94.0422 89.1983 92.9434 88.0996C91.8446 87.0008 91.0119 90.0311 88.3979 88.0996C85.784 86.168 84.6736 82.4437 83.5748 81.9001C82.476 81.3449 80.9609 82.0389 79.8274 79.8297C78.6939 77.6206 80.8221 73.6303 79.8274 74.0351C78.8327 74.4515 76.6814 77.6206 76.1378 74.5903C75.5826 71.5599 78.8905 61.3586 78.3469 55.8415C77.7917 50.3244 79.7233 44.5414 83.5864 39.8455C83.5864 39.8455 84.1415 36.8151 84.6852 34.8836C85.2403 32.952 97.0957 25.2374 98.472 23.0283C99.0504 22.103 99.2354 20.6572 99.4436 19.1073C115.763 7.10164 135.923 0 157.737 0C160.432 0 163.115 0.104094 165.764 0.323851C165.857 0.451079 165.949 0.56675 166.042 0.693977C167.233 2.20915 168.528 3.1807 172.021 4.46454C175.514 5.74839 176.336 7.40236 175.607 8.77874C174.867 10.1551 173.675 10.4327 172.299 10.5252C170.923 10.6178 169.627 9.87753 168.158 10.8028C166.689 11.7165 165.22 16.69 163.289 16.956C161.357 17.2336 157.957 12.5493 157.217 11.1614C156.476 9.78499 158.871 6.83561 157.749 5.45924C156.615 4.08286 154.649 4.36045 151.526 4.08286C148.403 3.80527 141.14 5.00815 141.417 6.19947C141.695 7.39079 152.081 6.01442 152.359 8.40861C152.636 10.8028 144.737 14.8394 143.349 14.4809C141.972 14.1107 140.133 11.7281 138.109 11.4505C136.085 11.1729 134.431 12.8269 133.159 13.0119C131.887 13.197 130.383 11.6356 128.452 12.0057C126.52 12.3758 126.057 14.0298 125.051 14.6775C124.045 15.3252 121.651 15.3252 121.373 16.7941C121.095 18.263 124.403 19.0958 125.236 20.0095C126.069 20.9232 124.218 24.0576 125.051 24.6938C125.884 25.3415 131.031 20.8307 132.315 19.7319C133.599 18.6331 134.697 13.8447 137.462 13.9372C140.214 14.0298 141.14 18.7141 142.053 19.1767C142.967 19.6394 144.991 18.0779 148.033 18.7141C151.063 19.3618 153.18 25.9776 153.735 28.0017C154.29 30.0258 155.574 32.0499 154.475 32.8711C153.377 33.7038 148.403 32.3159 147.767 31.032C147.119 29.7482 151.075 27.8167 150.797 27.354C150.52 26.8914 148.218 26.2552 147.027 26.9723C145.836 27.6894 145.28 29.193 143.996 29.5632C142.713 29.9333 139.312 26.0702 138.387 27.1689C137.462 28.2677 139.301 31.7607 140.226 32.5935C141.151 33.4263 144.552 33.8773 144.818 34.8026C145.095 35.7164 142.516 37.7404 139.393 37.5554C136.27 37.3703 133.691 34.9761 132.5 35.9939C131.308 37.0002 131.945 39.672 131.123 40.5857C130.291 41.4994 125.791 40.8633 123.582 43.2459C121.373 45.6401 120.367 49.2256 118.158 51.2382C115.949 53.2622 114.942 50.683 112.004 53.5398C109.067 56.3851 108.604 62.7349 108.511 64.9325C108.419 67.1416 108.511 68.8881 107.783 68.6105C107.043 68.333 106.036 66.4014 105.759 65.2101C105.481 64.0188 106.406 61.9947 106.406 61.2545C106.406 60.5142 102.173 56.7436 99.6981 56.3851C97.2113 56.015 95.0137 58.0391 93.1747 59.508C91.3357 60.9769 88.0278 60.6993 86.8365 61.9022C85.6452 63.0935 84.7199 73.665 85.6452 76.1517C86.5705 78.6384 87.7618 78.6384 90.6996 77.343C93.6374 76.0592 91.9834 73.5724 93.7299 74.1276C95.4764 74.6828 96.3901 76.5218 96.3901 77.9907C96.3901 79.4596 92.8971 82.9526 93.3598 83.9704C93.8224 84.9883 96.8528 83.7854 98.3217 84.248C99.7906 84.7107 100.531 85.6244 100.068 89.395C99.6055 93.1655 99.8831 96.1033 102.092 97.3409C104.301 98.5785 105.539 95.5482 106.499 95.9645C107.459 96.3809 108.847 98.5901 110.223 98.4513C111.6 98.3125 110.917 97.0749 113.531 96.2421C116.145 95.4094 115.185 94.8658 115.74 93.2118C116.296 91.5578 117.949 90.1815 119.742 91.0027C121.535 91.8354 120.297 93.073 120.436 94.4494C120.575 95.8258 123.744 95.9645 126.231 96.7973C128.718 97.6301 130.094 96.7973 135.056 98.4513C140.018 100.105 140.295 105.067 142.366 105.9C144.436 106.733 151.329 105.345 156.291 108.93C161.253 112.516 159.877 119.132 162.364 121.063C164.85 122.995 174.08 125.609 177.666 126.303C181.251 126.997 181.806 124.51 184.698 125.204C187.589 125.898 189.243 126.719 190.215 130.721C190.99 134.225 180.21 141.605 178.973 144.913Z" fill="#DBDBDB"/>
<path d="M104.892 74.4052C104.984 75.1802 107.286 75.504 110.039 77.0655C112.791 78.6269 113.809 83.2187 115.278 83.1377C116.747 83.0452 116.284 80.9285 116.84 80.3849C117.395 79.8298 118.308 78.6385 116.84 77.4471C115.371 76.2558 113.936 73.6766 111.253 73.3064C108.57 72.9363 108.107 71.8375 106.916 71.9301C105.713 72.0226 104.707 72.8438 104.892 74.4052Z" fill="#DBDBDB"/>
<path d="M120.055 82.1314C119.65 83.2533 120.055 84.0629 122.993 84.7916C125.93 85.5318 128.695 84.0514 127.77 83.4615C126.856 82.8601 125.468 83.1376 126.023 82.1314C126.578 81.1251 126.382 79.6447 123.999 79.9222C121.616 80.1998 120.425 81.1136 120.055 82.1314Z" fill="#DBDBDB"/>
<path d="M130.349 82.4436C129.343 82.594 128.787 84.3405 129.794 85.4393C130.8 86.5381 130.8 86.353 132.003 85.4393C133.194 84.5255 135.033 84.0629 134.582 83.1376C134.119 82.2239 131.367 82.2933 130.349 82.4436Z" fill="#DBDBDB"/>
<path d="M138.352 86.2026C138.803 84.8262 141.104 86.1795 142.122 87.6484C143.128 89.1173 142.677 91.2339 142.122 92.7953C141.567 94.3568 141.209 96.1958 139.913 95.4555C138.629 94.7153 140.006 92.5177 139.821 91.2223C139.636 89.9385 137.982 87.3245 138.352 86.2026Z" fill="#DBDBDB"/>
<path d="M177.966 9.51893C177.481 10.6755 179.713 11.0803 180.997 11.8206C182.281 12.5608 183.298 13.0119 184.027 11.8206C184.767 10.6293 183.75 9.24134 182.743 8.97532C181.737 8.68616 178.418 8.40858 177.966 9.51893Z" fill="#DBDBDB"/>
<path d="M195.338 20.2639C196.183 21.1545 197.64 21.0041 198.646 22.2879C199.652 23.5718 199.294 25.7809 200.578 26.4286C201.862 27.0763 202.787 26.4286 202.879 25.5149C202.972 24.6012 201.04 22.2995 201.225 21.8369C201.411 21.3742 203.886 22.4846 204.441 23.8609C204.996 25.2373 203.886 27.1689 205.181 27.539C206.465 27.9091 206.187 26.2551 206.743 25.885C207.298 25.5149 208.489 25.7 208.397 24.6012C208.304 23.5024 206.835 21.1082 205.644 20.2754C204.452 19.4427 203.527 18.5289 201.503 18.0663C199.479 17.6036 197.547 17.9738 196.541 18.8065C195.523 19.6277 194.818 19.7202 195.338 20.2639Z" fill="#DBDBDB"/>
<path d="M235.103 37.5899C234.988 38.0526 234.826 38.388 234.583 38.5615C232.651 39.9379 230.35 35.1611 227.689 34.2473C225.018 33.322 223.826 29.9216 223.283 30.6618C222.728 31.3905 222.913 32.4083 222.091 33.5996C221.259 34.7909 220.067 34.5249 219.524 36.815C218.969 39.1167 222.091 43.3384 221.363 44.7263C220.622 46.1027 219.709 45.64 218.24 45.559C216.771 45.4665 217.049 46.7504 215.117 46.2068C213.185 45.6516 214.839 43.2689 211.809 40.4121C208.779 37.5668 207.761 37.0116 208.409 35.7278C209.056 34.4439 208.131 32.6049 209.507 32.4199C210.884 32.2348 211.994 34.2589 212.908 34.8141C213.822 35.3692 215.024 33.7153 215.117 32.2348C215.21 30.7659 211.902 28.7418 210.71 27.5968C209.519 26.4517 209.426 22.2995 209.878 21.4783C210.329 20.6571 211.717 20.9231 212.087 18.9106C212.306 17.7193 210.421 15.7415 208.837 14.3073C218.911 20.4258 227.817 28.337 235.103 37.5899Z" fill="#DBDBDB"/>
<path d="M248.832 119.999C249.109 117.061 247.64 116.876 249.109 111.452C250.578 106.027 247.548 100.232 246.449 99.0412C245.35 97.8498 242.956 98.2084 241.025 99.4113C239.093 100.603 240.469 101.528 239.186 101.979C237.902 102.442 236.618 101.701 235.415 101.794C234.224 101.886 233.113 104.917 230.546 104.824C227.978 104.732 226.324 101.054 224.392 98.4397C222.461 95.8258 218.505 94.1602 217.221 90.9448C215.938 87.7294 218.413 82.7676 217.869 78.997C217.314 75.2264 214.839 76.0592 214.376 73.9426C213.914 71.826 214.746 72.8438 215.394 70.8197C216.042 68.7956 214.654 67.6968 215.949 64.2039C217.233 60.7109 219.535 58.9644 218.98 57.4029C218.424 55.8415 216.678 53.2622 216.585 51.4348C216.493 49.6073 218.332 49.6883 221.825 47.1091C225.318 44.5414 226.232 44.7264 228.903 45.6401C231.575 46.5539 233.229 47.0165 234.79 47.2941C236.352 47.5717 238.469 51.6198 239.116 51.4348C239.764 51.2497 239.856 50.0584 240.134 48.3119C240.25 47.5717 240.747 46.8777 241.279 46.3341C250.729 61.4511 256.188 79.3093 256.188 98.4513C256.188 120.08 249.214 140.078 237.381 156.328C246.738 142.009 248.554 122.937 248.832 119.999Z" fill="#DBDBDB"/>
<path d="M98.5303 42.2975C98.5303 42.2975 98.912 42.1818 99.6291 41.9736" stroke="#C7C7C7" stroke-width="0.75" stroke-miterlimit="10"/>
<path d="M101.884 41.349C117.764 37.1736 186.328 22.311 229.019 64.0187" stroke="#C7C7C7" stroke-width="0.75" stroke-miterlimit="10" stroke-dasharray="2.03 2.03"/>
<path d="M229.853 64.8514C230.13 65.129 230.396 65.395 230.662 65.6726" stroke="#C7C7C7" stroke-width="0.75" stroke-miterlimit="10"/>
<path d="M120.969 101.782C120.911 101.563 120.9 101.169 120.911 100.637" stroke="#C7C7C7" stroke-width="0.75" stroke-miterlimit="10"/>
<path d="M121.038 98.405C121.686 88.4928 123.733 60.4448 100.404 43.5929" stroke="#C7C7C7" stroke-width="0.75" stroke-miterlimit="10" stroke-dasharray="1.93 1.93"/>
<path d="M99.4903 42.9452C99.178 42.7254 98.8541 42.5057 98.5303 42.2975" stroke="#C7C7C7" stroke-width="0.75" stroke-miterlimit="10"/>
<path d="M122.043 98.4396C122.043 98.4396 122.309 98.1389 122.842 97.6068" stroke="#C7C7C7" stroke-width="0.75" stroke-miterlimit="10"/>
<path d="M124.519 95.9759C133.992 87.07 170.321 57.5184 228.349 65.3487" stroke="#C7C7C7" stroke-width="0.75" stroke-miterlimit="10" stroke-dasharray="2.03 2.03"/>
<path d="M229.528 65.4991C229.91 65.557 230.292 65.6148 230.673 65.6726" stroke="#C7C7C7" stroke-width="0.75" stroke-miterlimit="10"/>
<path d="M154.51 114.702C154.51 114.702 154.58 114.297 154.661 113.557" stroke="#C7C7C7" stroke-width="0.75" stroke-miterlimit="10"/>
<path d="M154.857 111.301C155.574 99.3765 153.828 59.3806 100.739 42.9567" stroke="#C7C7C7" stroke-width="0.75" stroke-miterlimit="10" stroke-dasharray="1.97 1.97"/>
<path d="M99.6407 42.6213C99.2705 42.5057 98.9004 42.4016 98.5303 42.2975" stroke="#C7C7C7" stroke-width="0.75" stroke-miterlimit="10"/>
<path d="M230.675 65.6727C230.675 65.6727 230.282 65.7421 229.553 65.9156" stroke="#C7C7C7" stroke-width="0.75" stroke-miterlimit="10"/>
<path d="M227.286 66.4825C212.412 70.4382 153.019 90.7599 141.268 165.107" stroke="#C7C7C7" stroke-width="0.75" stroke-miterlimit="10" stroke-dasharray="2.01 2.01"/>
<path d="M141.095 166.264C141.037 166.645 140.979 167.027 140.921 167.409" stroke="#C7C7C7" stroke-width="0.75" stroke-miterlimit="10"/>
<path d="M120.968 101.782C120.968 101.782 151.006 131.218 140.92 167.409" stroke="#C7C7C7" stroke-width="0.75" stroke-miterlimit="10" stroke-dasharray="2 2"/>
<path d="M101.634 24.8294C101.227 20.7788 98.4632 16.7585 93.5704 16.7585C88.6927 16.7585 85.914 20.794 85.5214 24.8294C84.9022 31.0797 89.1004 36.7384 93.5704 41.8965C98.0554 36.7384 102.254 31.0797 101.634 24.8294ZM93.5854 29.3199C91.1541 29.3199 89.1759 27.3325 89.1759 24.8901C89.1759 22.4476 91.1541 20.4602 93.5854 20.4602C96.0318 20.4602 98.0101 22.4476 98.0101 24.8901C98.0101 27.3325 96.0167 29.3199 93.5854 29.3199Z" fill="#E24949"/>
<path d="M169.693 93.4875C169.127 87.8335 165.294 82.2219 158.507 82.2219C151.741 82.2219 147.887 87.8547 147.342 93.4875C146.484 102.212 152.307 110.11 158.507 117.31C164.728 110.11 170.551 102.212 169.693 93.4875ZM158.507 99.7555C155.135 99.7555 152.391 96.9815 152.391 93.5722C152.391 90.1629 155.135 87.3888 158.507 87.3888C161.9 87.3888 164.644 90.1629 164.644 93.5722C164.644 96.9815 161.9 99.7555 158.507 99.7555Z" fill="#E24949"/>
<path d="M126.092 90.6787C125.78 87.5906 123.664 84.5255 119.916 84.5255C116.18 84.5255 114.052 87.6021 113.751 90.6787C113.277 95.444 116.492 99.7582 119.916 103.691C123.351 99.7582 126.567 95.444 126.092 90.6787ZM119.916 94.1023C118.054 94.1023 116.539 92.5871 116.539 90.725C116.539 88.8628 118.054 87.3477 119.916 87.3477C121.79 87.3477 123.305 88.8628 123.305 90.725C123.305 92.5871 121.79 94.1023 119.916 94.1023Z" fill="#A6A6A6"/>
<path d="M240.82 65.332C240.508 62.2439 238.391 59.1788 234.644 59.1788C230.908 59.1788 228.78 62.2554 228.479 65.332C228.005 70.0973 231.22 74.4115 234.644 78.344C238.079 74.4115 241.294 70.0973 240.82 65.332ZM234.655 68.7556C232.793 68.7556 231.278 67.2405 231.278 65.3783C231.278 63.5161 232.793 62.001 234.655 62.001C236.529 62.001 238.044 63.5161 238.044 65.3783C238.044 67.2405 236.517 68.7556 234.655 68.7556Z" fill="#E24949"/>
<path d="M147.097 159.405C146.785 156.317 144.668 153.252 140.92 153.252C137.185 153.252 135.056 156.328 134.756 159.405C134.281 164.17 137.497 168.484 140.92 172.417C144.356 168.484 147.571 164.159 147.097 159.405ZM140.92 162.829C139.058 162.829 137.543 161.313 137.543 159.451C137.543 157.589 139.058 156.074 140.92 156.074C142.794 156.074 144.309 157.589 144.309 159.451C144.309 161.313 142.794 162.829 140.92 162.829Z" fill="#A6A6A6"/>
<path d="M64.7926 121.454C64.7643 121.432 64.7315 121.411 64.6973 121.397C64.4437 121.281 64.1467 121.393 64.0324 121.644C63.6116 122.557 63.2262 123.51 62.8841 124.475C62.7917 124.735 62.9298 125.024 63.1894 125.116C63.449 125.209 63.7378 125.071 63.8302 124.811C64.1623 123.875 64.5352 122.949 64.9434 122.062C65.0438 121.846 64.9754 121.594 64.7926 121.454Z" fill="#2E2E46"/>
<path d="M257.899 90.6323C257.737 90.5085 257.513 90.4922 257.33 90.6046C257.095 90.7516 257.021 91.0618 257.168 91.2964C258.17 92.9092 259.095 94.6594 259.914 96.4999C260.027 96.7529 260.324 96.8656 260.577 96.7532C260.83 96.6408 260.942 96.3438 260.83 96.0908C259.991 94.2112 259.045 92.42 258.019 90.7688C257.989 90.7128 257.946 90.6677 257.899 90.6323ZM262.761 101.47C262.637 101.376 262.471 101.338 262.309 101.39C262.042 101.472 261.895 101.75 261.977 102.017C262.552 103.895 263.011 105.823 263.349 107.744C263.397 108.017 263.657 108.199 263.93 108.151C264.203 108.103 264.386 107.843 264.338 107.57C263.994 105.608 263.52 103.64 262.938 101.724C262.903 101.62 262.841 101.531 262.761 101.47ZM264.805 113.169C264.715 113.1 264.599 113.06 264.477 113.065C264.202 113.078 263.986 113.313 263.999 113.588C264.092 115.554 264.061 117.532 263.897 119.469C263.874 119.745 264.08 119.988 264.355 120.011C264.631 120.034 264.874 119.828 264.897 119.552C265.062 117.571 265.098 115.549 265.003 113.54C264.994 113.391 264.921 113.257 264.805 113.169ZM263.812 124.996C263.755 124.953 263.689 124.923 263.617 124.904C263.346 124.844 263.08 125.016 263.019 125.287C262.599 127.187 262.044 129.087 261.367 130.929C261.27 131.19 261.406 131.481 261.665 131.573C261.926 131.67 262.215 131.537 262.309 131.275C263.002 129.391 263.567 127.451 263.998 125.505C264.041 125.305 263.961 125.11 263.812 124.996ZM259.735 136.139C259.712 136.121 259.687 136.106 259.661 136.091C259.416 135.964 259.112 136.058 258.985 136.304C258.095 138.013 257.073 139.71 255.949 141.346C255.792 141.572 255.85 141.881 256.08 142.045C256.306 142.201 256.62 142.143 256.778 141.914C257.923 140.245 258.967 138.515 259.877 136.769C259.988 136.549 259.925 136.284 259.735 136.139ZM253.033 145.937C252.824 145.778 252.521 145.807 252.347 146.008C251.095 147.46 249.725 148.901 248.279 150.282C248.078 150.475 248.07 150.791 248.263 150.991C248.454 151.19 248.772 151.2 248.972 151.007C250.446 149.602 251.835 148.14 253.107 146.662C253.287 146.453 253.265 146.135 253.053 145.953C253.048 145.949 253.041 145.943 253.033 145.937ZM244.452 154.166C244.272 154.028 244.018 154.025 243.834 154.174C242.341 155.377 240.741 156.564 239.089 157.703C238.86 157.858 238.803 158.173 238.96 158.399C239.12 158.627 239.431 158.685 239.657 158.528C241.333 157.375 242.949 156.172 244.464 154.957C244.678 154.782 244.715 154.468 244.54 154.249C244.513 154.22 244.486 154.191 244.452 154.166ZM234.707 160.991C234.539 160.863 234.302 160.848 234.118 160.977C232.455 162.119 230.851 163.348 229.355 164.63C229.143 164.811 229.118 165.126 229.299 165.338C229.48 165.549 229.795 165.574 230.007 165.393C231.479 164.133 233.053 162.927 234.687 161.807C234.915 161.651 234.972 161.336 234.815 161.11C234.783 161.061 234.748 161.022 234.707 160.991ZM225.683 168.722C225.48 168.566 225.189 168.589 225.011 168.779C223.833 170.039 222.71 171.366 221.671 172.725C221.502 172.946 221.334 173.172 221.167 173.395C221.003 173.616 221.049 173.929 221.265 174.094C221.268 174.096 221.271 174.098 221.273 174.1C221.496 174.266 221.811 174.217 221.973 173.995C222.136 173.776 222.3 173.556 222.467 173.337C223.486 172.004 224.587 170.701 225.741 169.467C225.929 169.264 225.919 168.947 225.718 168.756C225.709 168.741 225.696 168.732 225.683 168.722ZM218.634 178.275C218.616 178.261 218.598 178.248 218.578 178.236C218.338 178.098 218.03 178.185 217.894 178.423C216.906 180.159 216.011 181.97 215.237 183.811C215.127 184.066 215.248 184.362 215.505 184.468C215.76 184.578 216.056 184.457 216.162 184.2C216.921 182.396 217.797 180.619 218.766 178.918C218.892 178.7 218.832 178.427 218.634 178.275ZM251.233 204.142C251.016 203.977 250.705 204.017 250.535 204.229C250.363 204.448 250.401 204.762 250.615 204.934C252.187 206.18 253.663 207.503 254.994 208.866C255.189 209.064 255.504 209.068 255.704 208.875C255.902 208.68 255.906 208.365 255.713 208.164C254.35 206.768 252.846 205.419 251.238 204.146C251.238 204.146 251.235 204.144 251.233 204.142ZM246.362 200.728C246.349 200.718 246.336 200.708 246.321 200.701C244.643 199.659 242.874 198.683 241.061 197.807C240.811 197.686 240.511 197.791 240.39 198.04C240.268 198.29 240.371 198.588 240.623 198.711C242.404 199.575 244.141 200.531 245.791 201.555C246.026 201.702 246.337 201.63 246.481 201.393C246.62 201.169 246.565 200.883 246.362 200.728ZM259.486 212.669C259.317 212.539 259.075 212.53 258.891 212.658C258.666 212.82 258.613 213.135 258.775 213.36C259.966 215.028 260.95 216.729 261.702 218.417C261.815 218.67 262.112 218.783 262.365 218.67C262.618 218.558 262.731 218.261 262.618 218.008C261.841 216.261 260.822 214.5 259.591 212.777C259.562 212.735 259.528 212.7 259.486 212.669ZM235.669 195.539C235.63 195.509 235.585 195.483 235.537 195.466C233.669 194.785 231.742 194.186 229.808 193.687C229.54 193.616 229.266 193.778 229.198 194.048C229.128 194.316 229.289 194.59 229.559 194.658C231.462 195.15 233.357 195.737 235.196 196.409C235.456 196.505 235.743 196.37 235.84 196.11C235.913 195.897 235.839 195.669 235.669 195.539ZM224.159 192.571C224.095 192.522 224.019 192.488 223.932 192.475C221.966 192.167 219.959 191.951 217.97 191.833C217.692 191.817 217.455 192.027 217.439 192.304C217.423 192.581 217.632 192.819 217.91 192.835C219.868 192.949 221.842 193.161 223.778 193.466C224.051 193.508 224.308 193.321 224.35 193.047C224.38 192.858 224.301 192.679 224.159 192.571ZM264.135 223.503C264.032 223.424 263.902 223.386 263.763 223.403C263.489 223.442 263.296 223.694 263.333 223.966C263.604 225.975 263.486 227.89 262.995 229.659C262.922 229.925 263.077 230.202 263.341 230.278C263.607 230.351 263.885 230.196 263.958 229.93C264.489 228.029 264.614 225.976 264.327 223.833C264.309 223.697 264.238 223.582 264.135 223.503ZM214.022 189.217C213.973 189.18 213.918 189.15 213.856 189.135C213.589 189.058 213.312 189.213 213.234 189.479C212.681 191.393 212.236 193.368 211.911 195.341C211.865 195.615 212.052 195.872 212.326 195.918C212.6 195.965 212.857 195.778 212.904 195.504C213.225 193.568 213.661 191.636 214.203 189.759C214.26 189.55 214.181 189.339 214.022 189.217ZM212.294 191.867C212.204 191.799 212.093 191.763 211.973 191.765C209.991 191.836 207.982 192.001 205.999 192.259C205.724 192.294 205.532 192.546 205.566 192.821C205.601 193.096 205.853 193.289 206.128 193.254C208.079 193 210.058 192.837 212.01 192.767C212.287 192.758 212.505 192.526 212.493 192.247C212.486 192.091 212.41 191.956 212.294 191.867ZM260.948 234.568C260.74 234.409 260.441 234.437 260.269 234.636C259.079 235.985 257.56 237.185 255.747 238.197C255.505 238.333 255.418 238.638 255.555 238.881C255.691 239.124 255.996 239.21 256.239 239.074C258.151 238.007 259.76 236.738 261.024 235.302C261.206 235.095 261.184 234.777 260.977 234.594C260.966 234.582 260.956 234.574 260.948 234.568ZM212.085 200.935C212.008 200.876 211.91 200.838 211.803 200.834C211.527 200.823 211.292 201.034 211.278 201.313C211.185 203.313 211.206 205.334 211.343 207.322C211.364 207.599 211.6 207.807 211.879 207.788C212.156 207.768 212.365 207.532 212.346 207.252C212.212 205.304 212.189 203.322 212.281 201.362C212.29 201.189 212.211 201.031 212.085 200.935ZM200.508 193.387C200.394 193.301 200.244 193.263 200.093 193.295C198.166 193.726 196.219 194.248 194.308 194.855C194.044 194.939 193.897 195.222 193.981 195.486C194.065 195.75 194.348 195.897 194.612 195.813C196.496 195.218 198.414 194.698 200.312 194.278C200.582 194.219 200.754 193.951 200.692 193.679C200.667 193.558 200.598 193.456 200.508 193.387ZM250.809 240.51C250.686 240.415 250.519 240.378 250.359 240.427C248.434 241.01 246.508 241.402 244.631 241.598C244.355 241.628 244.155 241.874 244.182 242.148C244.212 242.424 244.458 242.624 244.732 242.597C246.674 242.397 248.664 241.989 250.648 241.389C250.912 241.31 251.061 241.028 250.982 240.764C250.952 240.659 250.889 240.571 250.809 240.51ZM212.916 212.786C212.805 212.702 212.664 212.663 212.515 212.692C212.242 212.745 212.063 213.007 212.115 213.279C212.497 215.266 212.999 217.223 213.613 219.103C213.697 219.367 213.982 219.511 214.248 219.425C214.512 219.341 214.656 219.056 214.57 218.79C213.97 216.95 213.478 215.033 213.104 213.089C213.078 212.963 213.008 212.857 212.916 212.786ZM189.172 196.968C189.036 196.864 188.847 196.834 188.676 196.903C186.858 197.65 185.024 198.487 183.232 199.393C182.986 199.518 182.885 199.82 183.011 200.067C183.136 200.314 183.438 200.414 183.685 200.289C185.456 199.395 187.263 198.567 189.059 197.832C189.315 197.726 189.438 197.432 189.332 197.176C189.299 197.09 189.242 197.021 189.172 196.968ZM216.621 224.066C216.474 223.954 216.274 223.927 216.096 224.011C215.849 224.132 215.741 224.433 215.865 224.682C216.76 226.524 217.78 228.273 218.897 229.885C219.054 230.111 219.368 230.171 219.596 230.011C219.822 229.853 219.882 229.54 219.722 229.312C218.634 227.743 217.64 226.035 216.764 224.241C216.732 224.171 216.68 224.111 216.621 224.066ZM239.047 241.662C238.978 241.608 238.894 241.573 238.803 241.56C236.87 241.327 234.968 240.865 233.147 240.187C232.887 240.09 232.599 240.221 232.502 240.481C232.405 240.741 232.536 241.029 232.797 241.126C234.691 241.831 236.671 242.312 238.682 242.556C238.957 242.591 239.205 242.394 239.24 242.119C239.264 241.937 239.184 241.766 239.047 241.662ZM223.407 233.778C223.211 233.628 222.928 233.641 222.749 233.822C222.551 234.017 222.552 234.336 222.748 234.534C224.197 235.992 225.774 237.29 227.41 238.376C227.64 238.528 227.953 238.465 228.105 238.235C228.256 238.004 228.199 237.695 227.963 237.539C226.381 236.49 224.859 235.238 223.459 233.826C223.441 233.808 223.425 233.791 223.407 233.778ZM178.556 202.318C178.397 202.196 178.175 202.177 177.993 202.287C176.312 203.297 174.624 204.392 172.973 205.54C172.745 205.7 172.69 206.012 172.847 206.238C173.004 206.465 173.319 206.522 173.546 206.364C175.177 205.226 176.846 204.146 178.508 203.149C178.748 203.006 178.825 202.698 178.68 202.461C178.648 202.4 178.605 202.355 178.556 202.318ZM168.643 208.892C168.481 208.769 168.254 208.75 168.073 208.865C166.386 209.915 164.656 210.889 162.928 211.753C162.679 211.877 162.578 212.179 162.704 212.426C162.829 212.672 163.13 212.775 163.376 212.65C165.133 211.77 166.888 210.784 168.601 209.716C168.835 209.569 168.908 209.261 168.763 209.024C168.73 208.971 168.69 208.928 168.643 208.892ZM62.1514 129.991C62.0896 129.944 62.0161 129.912 61.9352 129.895C61.6629 129.846 61.4009 130.029 61.3519 130.301C61.0078 132.219 60.7918 134.231 60.7128 136.282C60.7013 136.558 60.9176 136.793 61.196 136.802C61.4726 136.813 61.707 136.597 61.716 136.318C61.7939 134.311 62.0023 132.347 62.3389 130.477C62.3762 130.289 62.2956 130.101 62.1514 129.991ZM158.016 214.204C157.882 214.102 157.699 214.068 157.53 214.135C155.688 214.839 153.801 215.448 151.922 215.944C151.654 216.017 151.494 216.29 151.567 216.558C151.637 216.823 151.913 216.985 152.179 216.915C154.091 216.407 156.011 215.787 157.887 215.072C158.146 214.972 158.274 214.682 158.177 214.425C158.146 214.332 158.088 214.259 158.016 214.204ZM61.6503 141.852C61.5551 141.779 61.4343 141.74 61.3065 141.753C61.0297 141.773 60.8242 142.016 60.845 142.293C60.9983 144.232 61.2638 146.232 61.6276 148.242C61.6757 148.515 61.9378 148.695 62.2109 148.647C62.4841 148.599 62.6639 148.337 62.6158 148.063C62.2543 146.088 61.9956 144.121 61.8466 142.214C61.8331 142.061 61.7584 141.935 61.6503 141.852ZM63.7548 153.551C63.6338 153.459 63.4742 153.423 63.3183 153.467C63.0507 153.539 62.8935 153.815 62.9689 154.084C63.4867 155.967 64.0949 157.887 64.7823 159.794C64.8771 160.054 65.1635 160.191 65.4235 160.096C65.6835 160.001 65.8207 159.715 65.7259 159.455C65.0487 157.572 64.4461 155.677 63.9364 153.821C63.9051 153.707 63.8398 153.616 63.7548 153.551ZM146.535 217.238C146.432 217.16 146.295 217.12 146.157 217.141C144.223 217.432 142.251 217.618 140.293 217.695C140.015 217.707 139.801 217.939 139.81 218.215C139.822 218.493 140.054 218.707 140.33 218.697C142.325 218.62 144.336 218.431 146.304 218.133C146.578 218.09 146.768 217.836 146.724 217.562C146.706 217.426 146.633 217.313 146.535 217.238ZM67.7729 164.752C67.6313 164.644 67.4379 164.614 67.2655 164.691C67.0125 164.803 66.8972 165.098 67.0097 165.351C67.8049 167.149 68.6789 168.966 69.6078 170.743C69.7378 170.989 70.0394 171.085 70.2854 170.955C70.5315 170.825 70.6274 170.523 70.4974 170.277C69.5781 168.52 68.7136 166.722 67.928 164.944C67.8898 164.866 67.8372 164.801 67.7729 164.752ZM134.667 217.702C134.592 217.645 134.499 217.606 134.397 217.601C132.459 217.466 130.49 217.225 128.548 216.887C128.276 216.838 128.014 217.021 127.967 217.295C127.918 217.568 128.101 217.83 128.375 217.876C130.353 218.221 132.357 218.468 134.328 218.604C134.603 218.623 134.843 218.415 134.864 218.137C134.875 217.963 134.798 217.802 134.667 217.702ZM73.275 175.301C73.1154 175.179 72.8934 175.16 72.7117 175.27C72.4746 175.415 72.398 175.724 72.5404 175.959C73.562 177.652 74.6523 179.341 75.785 180.985C75.943 181.215 76.2554 181.27 76.4816 181.113C76.7104 180.958 76.7676 180.643 76.6102 180.417C75.4889 178.79 74.4121 177.115 73.4001 175.441C73.3669 175.384 73.3239 175.338 73.275 175.301ZM122.963 215.666C122.915 215.629 122.855 215.599 122.793 215.58C120.928 215.06 119.04 214.442 117.182 213.736C116.924 213.637 116.632 213.768 116.535 214.028C116.436 214.287 116.567 214.579 116.828 214.676C118.714 215.391 120.631 216.02 122.525 216.549C122.791 216.622 123.068 216.467 123.141 216.201C123.202 215.994 123.123 215.788 122.963 215.666ZM80.0198 185.104C79.8422 184.968 79.5896 184.963 79.4056 185.107C79.1858 185.278 79.1473 185.595 79.3171 185.81C80.5393 187.38 81.8193 188.932 83.1257 190.423C83.3085 190.632 83.6258 190.654 83.8347 190.472C84.0436 190.289 84.0658 189.972 83.883 189.763C82.5901 188.286 81.3216 186.75 80.1083 185.196C80.0827 185.16 80.0532 185.129 80.0198 185.104ZM111.841 211.461C111.815 211.442 111.785 211.422 111.752 211.406C110.004 210.568 108.246 209.636 106.525 208.64C106.284 208.501 105.979 208.581 105.84 208.822C105.701 209.062 105.784 209.37 106.022 209.507C107.765 210.516 109.548 211.458 111.319 212.31C111.568 212.431 111.871 212.324 111.987 212.075C112.095 211.859 112.026 211.603 111.841 211.461ZM87.8656 194.052C87.67 193.903 87.39 193.917 87.2102 194.094C87.0122 194.289 87.0108 194.606 87.2059 194.804C88.6095 196.226 90.0685 197.614 91.541 198.93C91.746 199.115 92.0649 199.098 92.25 198.893C92.4352 198.688 92.4179 198.369 92.2129 198.184C90.7584 196.881 89.3149 195.506 87.9228 194.1C87.9042 194.082 87.8836 194.066 87.8656 194.052ZM101.539 205.504C101.531 205.498 101.524 205.492 101.516 205.486C99.9041 204.389 98.2976 203.211 96.7406 201.989C96.5121 201.819 96.2073 201.855 96.0357 202.074C95.864 202.294 95.9014 202.607 96.1208 202.779C97.6983 204.017 99.3229 205.209 100.95 206.317C101.181 206.474 101.492 206.413 101.646 206.185C101.799 205.963 101.75 205.665 101.539 205.504Z" fill="#2E2E46"/>
<path d="M252.049 83.7468C251.828 83.5777 251.514 83.6196 251.345 83.841C251.176 84.0623 251.218 84.3756 251.439 84.5447C252.137 85.0775 252.859 85.7434 253.588 86.5285C253.779 86.7316 254.093 86.7428 254.299 86.5535C254.5 86.3649 254.513 86.0488 254.324 85.8431C253.555 85.0194 252.79 84.313 252.049 83.7468Z" fill="#2E2E46"/>
<path d="M63.2188 177.909L62.6763 179.051L62.0394 177.952L62.5819 176.809L63.2188 177.909Z" fill="#4F2E16"/>
<path d="M64.5244 101.914L58.0885 102.274L37.2421 103.493L28.4482 120.768L26.9746 123.618L26.8353 123.962L25.4937 126.584L15.9556 145.401L34.9668 144.36L36.8569 144.244L37.2086 144.266L40.2782 144.106L43.3478 143.946L63.8352 142.822L73.2487 124.115L74.5977 121.375L74.737 121.031L76.1483 118.237L84.9495 100.844L64.5244 101.914Z" fill="#FFDDA8"/>
<path d="M63.9607 142.712L86.6143 177.321L66.1818 178.508L66.0646 178.5L62.4638 178.686L61.2221 178.784L59.6836 178.923L57.7385 178.977L38.8372 180.142L16.0188 145.346L37.0374 144.197L38.5759 144.058L39.7554 144.015L43.4733 143.836L63.9607 142.712Z" fill="#BC7C46"/>
<path d="M76.3283 118.189L75.5841 119.731L74.9867 120.811L74.8547 121.038L74.6605 121.32L73.2566 123.997L63.8431 142.704L86.4966 177.313L95.965 158.669L97.5779 155.475L98.1205 154.332L98.9196 152.853L107.776 135.523L85.0673 100.852L76.3283 118.189Z" fill="#DDA866"/>
<path d="M84.7253 168.024L84.5934 168.251L81.9612 164.261L82.1005 163.917L84.7253 168.024Z" fill="#4F2E16"/>
<path d="M83.2245 163.811L83.2024 164.162L82.0852 164.151L82.2567 166.103L82.0771 166.151L81.8729 163.784L83.2245 163.811Z" fill="#4F2E16"/>
<path d="M86.1995 165.174L86.0675 165.401L83.3804 161.349L83.5746 161.067L86.1995 165.174Z" fill="#4F2E16"/>
<path d="M84.645 160.899L84.6778 161.313L83.5606 161.301L83.732 163.254L83.4353 163.294L83.3483 160.935L84.645 160.899Z" fill="#4F2E16"/>
<path d="M86.8524 164.157L84.1618 169.518C84.0995 169.573 84.0372 169.628 84.0445 169.511C83.9896 169.448 83.997 169.331 84.0044 169.214L86.695 163.852C86.7573 163.798 86.8196 163.743 86.8122 163.86C86.8671 163.922 86.9146 164.102 86.8524 164.157Z" fill="#4F2E16"/>
<path d="M87.5442 165.317L84.861 170.562C84.5897 171.133 84.0586 171.159 83.7364 170.668L80.5149 165.758C80.1927 165.267 80.1344 164.322 80.4606 163.813L83.1439 158.569C83.4151 157.997 83.9463 157.972 84.2685 158.463L87.49 163.372C87.8122 163.863 87.8155 164.746 87.5442 165.317ZM80.6254 164C80.4238 164.399 80.4419 165.047 80.7165 165.359L83.938 170.268C84.1504 170.635 84.5643 170.602 84.7659 170.203L87.4491 164.959C87.6507 164.559 87.6327 163.911 87.3581 163.6L84.1365 158.69C83.9242 158.324 83.5103 158.356 83.3086 158.756L80.6254 164Z" fill="#4F2E16"/>
<path d="M92.2433 156.08L89.4904 161.497C89.2192 162.068 88.688 162.094 88.3109 161.541L84.9795 156.506C84.6024 155.953 84.5991 155.07 84.8704 154.499L87.6233 149.082C87.8946 148.511 88.4257 148.486 88.8028 149.039L92.1342 154.073C92.5113 154.626 92.5146 155.509 92.2433 156.08ZM85.0901 154.748C84.8884 155.147 84.9065 155.796 85.1737 156.224L88.5052 161.259C88.7175 161.625 89.1314 161.592 89.333 161.193L92.0859 155.776C92.2875 155.377 92.2695 154.729 92.0022 154.3L88.6708 149.266C88.4585 148.9 88.0446 148.932 87.843 149.332L85.0901 154.748Z" fill="#4F2E16"/>
<path d="M89.9849 157.409C89.9226 157.464 89.8603 157.519 89.8053 157.457L87.3855 153.833C87.3305 153.771 87.3379 153.654 87.3453 153.537C87.4076 153.482 87.4699 153.427 87.5248 153.489L89.9447 157.113C89.9996 157.175 89.9922 157.292 89.9849 157.409Z" fill="#4F2E16"/>
<path d="M90.3241 156.666L89.6496 158.035C89.5873 158.09 89.525 158.145 89.4701 158.083C89.4152 158.021 89.4226 157.904 89.4299 157.786L90.1044 156.417C90.1667 156.362 90.229 156.307 90.2839 156.369C90.3938 156.494 90.3864 156.611 90.3241 156.666Z" fill="#4F2E16"/>
<path d="M87.9306 151.691L89.0618 153.35C89.3291 153.779 89.3947 154.607 89.1308 155.061L88.5333 156.141C88.3243 156.658 87.8555 156.628 87.5883 156.2L86.457 154.54L86.7283 153.969L87.9071 155.808C87.962 155.87 88.0792 155.878 88.0866 155.76C88.1489 155.705 88.1013 155.526 88.0464 155.464L86.8676 153.624L87.9306 151.691Z" fill="#4F2E16"/>
<path d="M37.564 103.985L16.9373 144.757L63.4727 142.034L84.1469 101.441L37.564 103.985Z" fill="#F9C98A"/>
<path d="M85.3404 101.163L85.5601 101.412L64.3909 143.327L64.2335 143.023L85.3404 101.163Z" fill="#BC7C46"/>
<path d="M74.9779 120.928L74.7837 121.21L26.8967 123.907L27.091 123.625L74.9779 120.928Z" fill="#BC7C46"/>
<path d="M74.9159 120.983L75.2935 121.537L75.044 121.757L74.7764 121.328L74.9159 120.983Z" fill="#BC7C46"/>
<path d="M76.3268 118.19L99.0353 152.861L96.0808 158.676L73.4346 123.95L76.3268 118.19Z" fill="#9B7451"/>
<path d="M76.3284 118.189L74.9794 120.928L74.7852 121.21L73.4362 123.95L25.5566 126.529L26.8982 123.907L27.0375 123.562L28.5111 120.713L76.3284 118.189Z" fill="#CAAF8F"/>
<path d="M43.4724 143.836L66.1809 178.507L66.0637 178.5L59.6826 178.922L36.9815 144.134L43.4724 143.836Z" fill="#9B7451"/>
<path d="M64.5251 101.914L43.4731 143.836L40.4035 143.996L40.0518 143.974L37.3338 144.156L37.0371 144.196L54.724 109.005L56.0108 106.321L58.0269 102.329L60.5654 102.194L62.2211 102.063L64.5251 101.914Z" fill="#CAAF8F"/>
<path d="M92.09 115.473L85.972 127.621L80.5027 119.158L86.5584 107.065L92.09 115.473Z" fill="#E5E0DC"/>
<path d="M87.3045 110.171L82.3338 119.979L81.7444 119.059L86.7151 109.252L87.3045 110.171Z" fill="#4F2E16"/>
<path d="M88.3741 111.886L83.5207 121.701L83.2535 121.272L88.1618 111.52L88.3741 111.886Z" fill="#B2AEAB"/>
<path d="M89.1285 112.992L84.1579 122.8L83.8907 122.371L88.8613 112.564L89.1285 112.992Z" fill="#B2AEAB"/>
<path d="M89.9371 114.161L84.9665 123.969L84.6992 123.54L89.6699 113.733L89.9371 114.161Z" fill="#B2AEAB"/>
<path d="M90.6277 115.323L85.7194 125.076L85.4522 124.647L90.3605 114.894L90.6277 115.323Z" fill="#B2AEAB"/>
</svg>
