<svg width="622" height="418" viewBox="0 0 622 418" fill="none" xmlns="http://www.w3.org/2000/svg">
<g clip-path="url(#clip0_331_895)">
<path d="M0.102539 303.999L323.065 417.648L429.634 114.805L106.672 1.15607L0.102539 303.999Z" fill="#FFC727"/>
<path d="M321.707 417.279L323.06 417.647L429.63 114.804L428.276 114.436L321.707 417.279Z" fill="#FFDA72"/>
<path d="M621.84 106.81L429.874 114.169L323.08 417.654L525.281 381.207L621.84 106.81Z" fill="#FFC727"/>
<path d="M391.087 403.77L493.71 112.144L557.773 109.477L459.098 389.887L391.087 403.77Z" fill="#CAAF8F"/>
<path d="M621.841 106.808L371.404 18.6807L106.673 1.15588L429.65 114.809L621.841 106.808Z" fill="#FFC727"/>
<path d="M618.816 105.784L616.48 104.987L423.904 112.761L426.281 113.688L618.816 105.784Z" fill="#FFDA72"/>
<path opacity="0.2" d="M621.242 107.991L429.306 115.355L428.369 117.32L620.517 109.923L621.242 107.991Z" fill="black"/>
<path d="M0.127441 303.933C36.6277 288.753 73.0152 273.374 109.104 257.811L216.909 210.878L323.865 163.25C359.355 147.316 394.733 131.184 429.649 114.81C393.149 129.99 356.76 145.368 320.672 160.932L212.867 207.864L105.911 255.493C70.3964 271.497 35.1809 287.686 0.127441 303.933Z" fill="#F8B700"/>
<path d="M106.647 1.2262C123.777 35.9149 141.094 70.5898 158.784 105.237L212.343 209.35L266.999 313.451C285.389 348.185 304.152 382.892 323.078 417.655C305.948 382.967 288.632 348.292 270.941 313.644L217.382 209.531L162.725 105.429C144.336 70.6956 125.573 35.9896 106.647 1.2262Z" fill="#F8B700"/>
<path d="M133.511 350.943L240.08 48.1003L303.271 70.3368L196.702 373.18L133.511 350.943Z" fill="#CAAF8F"/>
<path d="M194.389 6.81268L493.716 112.144L557.779 109.477L283.952 13.1185L194.389 6.81268Z" fill="#CAAF8F"/>
<path d="M439.292 42.5707L240.079 48.1009L310.291 72.8081L495.461 62.3363L439.292 42.5707Z" fill="#CAAF8F"/>
<path d="M428.562 116.698L106.043 2.67478L106.677 1.15662L429.398 115.029L428.562 116.698Z" fill="#FFDA72"/>
<path opacity="0.1" d="M621.718 106.825L429.529 114.754L323.079 417.654L525.356 380.991L621.718 106.825Z" fill="black"/>
<path d="M438 217.5L462 236.5C485 207.5 493 220 494 224.5C495 229 485 244 472.5 253C462.5 260.2 455 276.667 452.5 284L489 278.5C497.5 263.5 491.5 273 509.5 256C523.9 242.4 531.833 229.333 534 224.5C542 210 550 179.6 518 174C486 168.4 451.333 200.667 438 217.5Z" fill="#CC4242"/>
<path opacity="0.34" d="M621.842 106.808L371.404 18.6807L106.674 1.15588L429.65 114.809L621.842 106.808Z" fill="black"/>
<path d="M323.281 417.643L324.874 417.364L430.698 115.597L429.714 115.293L323.281 417.643Z" fill="#B88F1C"/>
<path d="M344 36L369 50C372 51 377.8 49.9 401 57.5C430 67 414.5 65.5 410.5 65C407.325 64.6031 386.833 60.3333 377 58C372.2 56.4 351.5 53 341 53L395 71.5H395.5C397.5 71.5 404.667 72.8333 408 73.5C460.5 87 506 91.5 486 78C469.157 66.6307 386 41.5 344 36Z" fill="#953030"/>
<path d="M380.5 73C379.478 76.5 355.205 74.1939 334 68C312.795 61.8062 294.332 55 295.5 51C296.668 47 317.795 48.8062 339 55C360.205 61.1938 381.814 68.5001 380.5 73Z" fill="#953030"/>
<rect opacity="0.5" x="120.139" y="77.6921" width="297.94" height="174.878" rx="22.6693" transform="rotate(21.8067 120.139 77.6921)" stroke="#E24949" stroke-width="6.47696" stroke-dasharray="12.95 12.95"/>
<path d="M87.65 193.051L94.8681 175.01L151.28 137.586L180.385 149.231L125.296 187.185L113.655 177.923L178.841 204.004L170.035 226.013L87.65 193.051ZM125.533 224.951L131.308 210.518L140.956 188.846L146.105 175.977L172.805 186.66L153.075 235.97L125.533 224.951ZM205.574 259.208C198.118 256.225 192.193 251.854 187.799 246.097C183.486 240.371 181.001 233.563 180.344 225.673C179.767 217.815 181.34 209.236 185.061 199.935C188.782 190.634 193.562 183.338 199.4 178.047C205.318 172.787 211.813 169.572 218.885 168.402C226.037 167.264 233.342 168.187 240.799 171.171C248.255 174.154 254.14 178.509 258.454 184.234C262.847 189.992 265.332 196.799 265.909 204.657C266.566 212.547 265.033 221.143 261.312 230.444C257.591 239.745 252.771 247.025 246.853 252.284C241.015 257.576 234.52 260.79 227.368 261.928C220.296 263.098 213.031 262.192 205.574 259.208ZM214.669 236.477C216.513 237.215 218.414 237.231 220.37 236.526C222.327 235.82 224.331 234.065 226.384 231.258C228.517 228.484 230.659 224.411 232.808 219.039C234.99 213.587 236.249 209.161 236.586 205.761C237.035 202.313 236.795 199.659 235.865 197.799C234.935 195.939 233.548 194.64 231.704 193.902C229.86 193.164 227.959 193.148 226.003 193.853C224.046 194.558 222.002 196.298 219.868 199.072C217.848 201.798 215.746 205.888 213.565 211.34C211.416 216.712 210.116 221.122 209.667 224.57C209.298 228.049 209.578 230.72 210.508 232.58C211.438 234.44 212.825 235.739 214.669 236.477ZM256.544 260.626L263.762 242.586L320.174 205.162L349.28 216.807L294.191 254.76L282.549 245.498L347.735 271.58L338.929 293.589L256.544 260.626ZM294.428 292.527L300.202 278.094L309.85 256.422L314.999 243.553L341.699 254.236L321.969 303.546L294.428 292.527Z" fill="#E24949"/>
<path d="M475 327C465.55 340.5 456.636 348.5 442 348.5C427.364 348.5 428 326 439 311C450 296 456.865 290.5 471.5 290.5C486.136 290.5 485.5 312 475 327Z" fill="#CC4242"/>
</g>
<defs>
<clipPath id="clip0_331_895">
<rect width="622" height="418" fill="white"/>
</clipPath>
</defs>
</svg>
