<svg width="131" height="149" viewBox="0 0 131 149" fill="none" xmlns="http://www.w3.org/2000/svg">
<path d="M110.051 75.3273C110.051 91.3712 104.877 106.205 96.1002 118.26C96.1002 118.26 96.1003 118.268 96.0917 118.268C82.8104 136.5 61.3014 148.357 37.0211 148.357C-3.31168 148.357 -36 115.66 -36 75.3359C-36 51.1843 -24.2803 29.7782 -6.2116 16.4798C5.89423 7.57416 20.8485 2.30627 37.0296 2.30627C39.0287 2.30627 41.0191 2.38349 42.9839 2.5465C54.6178 3.48168 65.4796 7.14518 74.9344 12.9021C82.4329 17.4579 89.0392 23.3263 94.4358 30.19C96.0659 32.2663 97.5931 34.4283 98.9916 36.6676C105.993 47.8812 110.051 61.1367 110.051 75.3273Z" fill="#EBEBEB"/>
<path d="M52.79 109.8C51.872 112.254 53.4077 112.357 53.5021 113.378C53.605 114.399 53.5021 116.346 50.5336 119.306C47.565 122.275 42.6575 121.657 41.6365 122.884C40.6155 124.111 38.8739 129.327 36.4201 131.069C33.9663 132.811 33.5545 131.781 30.0798 132.502C26.605 133.214 23.9454 137.718 22.9244 139.863C21.9034 142.008 23.1303 145.594 20.6765 145.689C18.2227 145.792 17.0988 140.472 14.851 137.607C12.6031 134.741 11.8824 132.184 11.1703 128.813C10.4582 125.441 11.5821 118.38 11.1703 115.617C10.7585 112.855 3.39718 107.947 0.737497 104.575C-1.92218 101.203 -5.60283 94.4513 -5.39692 92.2034C-5.19101 89.9555 -3.55231 87.5018 -2.32543 86.5752C-1.09855 85.6572 -1.61331 85.1424 -1.4074 84.3273C-1.20149 83.5123 -0.180508 83.3064 0.0254021 82.2854C0.231314 81.2644 -0.592333 78.1929 -1.61331 77.6867C-2.63428 77.1719 -3.35498 78.9136 -3.96414 78.6047C-4.58187 78.2959 -6.41789 76.151 -7.13858 75.945C-7.85068 75.7391 -7.65336 77.2749 -8.67433 75.3273C-9.69531 73.3883 -10.2101 68.4722 -11.0251 67.6572C-11.8402 66.8421 -12.4579 69.09 -14.3969 67.6572C-16.3359 66.2244 -17.1596 63.4617 -17.9746 63.0585C-18.7897 62.6467 -19.9136 63.1614 -20.7544 61.5227C-21.5952 59.884 -20.0166 56.9241 -20.7544 57.2243C-21.4923 57.5332 -23.0881 59.884 -23.4913 57.6362C-23.9031 55.3883 -21.4494 47.8211 -21.8526 43.7286C-22.2644 39.6361 -20.8316 35.3464 -17.966 31.863C-17.966 31.863 -17.5542 29.6152 -17.151 28.1824C-16.7392 26.7496 -7.94506 21.027 -6.92409 19.3883C-6.49511 18.7019 -6.35783 17.6295 -6.2034 16.4798C5.90243 7.57416 20.8567 2.30627 37.0378 2.30627C39.0369 2.30627 41.0273 2.38349 42.9921 2.5465C43.0607 2.64088 43.1293 2.72668 43.198 2.82106C44.0817 3.94498 45.0426 4.66567 47.6336 5.618C50.2247 6.57034 50.8338 7.79723 50.2933 8.81821C49.7442 9.83918 48.8605 10.0451 47.8395 10.1137C46.8186 10.1824 45.8577 9.63327 44.7681 10.3196C43.6784 10.9974 42.5888 14.6867 41.1561 14.884C39.7233 15.0899 37.2009 11.6152 36.6518 10.5856C36.1027 9.56463 37.8786 7.37682 37.0464 6.35585C36.2056 5.33488 34.7471 5.54079 32.4306 5.33487C30.1141 5.12896 24.7261 6.02125 24.932 6.90494C25.1379 7.78864 32.8424 6.76767 33.0483 8.54365C33.2542 10.3196 27.3943 13.3139 26.3648 13.0479C25.3438 12.7734 23.9797 11.006 22.4782 10.8001C20.9768 10.5942 19.7499 11.8211 18.8062 11.9583C17.8624 12.0956 16.747 10.9374 15.3142 11.2119C13.8815 11.4865 13.5383 12.7133 12.7918 13.1938C12.0454 13.6743 10.2694 13.6743 10.0635 14.7639C9.85762 15.8535 12.3114 16.4712 12.9291 17.149C13.5468 17.8268 12.1741 20.1519 12.7918 20.6237C13.4096 21.1042 17.2275 17.7582 18.1799 16.9431C19.1322 16.128 19.9472 12.5761 21.9978 12.6447C24.0397 12.7133 24.7261 16.1881 25.4039 16.5313C26.0817 16.8744 27.5831 15.7162 29.8395 16.1881C32.0874 16.6685 33.6575 21.5761 34.0693 23.0775C34.4811 24.5789 35.4334 26.0804 34.6184 26.6895C33.8033 27.3073 30.1141 26.2777 29.6422 25.3254C29.1617 24.373 32.096 22.9402 31.8901 22.5971C31.6841 22.2539 29.9768 21.782 29.0931 22.3139C28.2094 22.8459 27.7976 23.9612 26.8452 24.2358C25.8929 24.5103 23.3705 21.6447 22.6842 22.4598C21.9978 23.2748 23.3619 25.8659 24.0483 26.4836C24.7347 27.1013 27.2571 27.436 27.4544 28.1223C27.6603 28.8001 25.7471 30.3015 23.4306 30.1643C21.1141 30.027 19.2008 28.251 18.3171 29.006C17.4334 29.7524 17.9053 31.7343 17.2961 32.4121C16.6784 33.0899 13.3409 32.618 11.7022 34.3854C10.0635 36.1614 9.3171 38.8211 7.6784 40.3139C6.03969 41.8154 5.29326 39.9021 3.11404 42.0213C0.93482 44.1319 0.591644 48.8421 0.523008 50.4722C0.45437 52.1109 0.523005 53.4064 -0.0175114 53.2005C-0.566607 52.9946 -1.31303 51.5618 -1.51894 50.6781C-1.72485 49.7944 -1.03849 48.293 -1.03849 47.7439C-1.03849 47.1948 -4.17861 44.3978 -6.01465 44.1319C-7.85927 43.8573 -9.4894 45.3588 -10.8536 46.4484C-12.2177 47.538 -14.6715 47.3321 -15.5552 48.2243C-16.4389 49.108 -17.1252 56.9498 -16.4389 58.7944C-15.7525 60.639 -14.8688 60.639 -12.6896 59.6781C-10.5104 58.7258 -11.7373 56.8812 -10.4417 57.293C-9.14621 57.7048 -8.46843 59.069 -8.46843 60.1586C-8.46843 61.2482 -11.0595 63.8392 -10.7163 64.5942C-10.3731 65.3492 -8.12523 64.457 -7.03563 64.8001C-5.94601 65.1433 -5.39691 65.8211 -5.7401 68.6181C-6.08328 71.415 -5.87737 73.5942 -4.23866 74.5123C-2.59996 75.4303 -1.68194 73.1824 -0.969835 73.4913C-0.257729 73.8001 0.771826 75.4389 1.7928 75.3359C2.81377 75.2329 2.30756 74.3149 4.24656 73.6972C6.18555 73.0795 5.47344 72.6762 5.88526 71.4493C6.29708 70.2225 7.52396 69.2015 8.8538 69.8106C10.1836 70.4284 9.26562 71.3464 9.36858 72.3674C9.47154 73.3883 11.8224 73.4913 13.667 74.109C15.5116 74.7267 16.5326 74.109 20.2132 75.3359C23.8939 76.5628 24.0998 80.2434 25.6355 80.8612C27.1713 81.4789 32.2847 80.4493 35.9654 83.109C39.646 85.7687 38.625 90.6762 40.4697 92.109C42.3143 93.5418 49.1608 95.4808 51.8205 95.9956C54.4802 96.5104 54.892 94.6657 57.0369 95.1805C59.1818 95.6953 60.4087 96.3045 61.1294 99.273C61.7042 101.873 53.708 107.346 52.79 109.8Z" fill="#DBDBDB"/>
<path d="M-2.1626 57.4989C-2.09396 58.0738 -0.386609 58.314 1.65534 59.4722C3.69728 60.6305 4.45229 64.0366 5.5419 63.9765C6.63151 63.9079 6.28833 62.3378 6.70015 61.9346C7.11197 61.5228 7.78976 60.6391 6.70015 59.7554C5.61054 58.8717 4.54666 56.9584 2.55619 56.6839C0.565717 56.4093 0.222533 55.5943 -0.661167 55.6629C-1.55345 55.7315 -2.29987 56.3407 -2.1626 57.4989Z" fill="#DBDBDB"/>
<path d="M9.08525 63.2301C8.78497 64.0624 9.08523 64.6629 11.2645 65.2034C13.4437 65.7525 15.4942 64.6543 14.8078 64.2168C14.13 63.7706 13.1005 63.9766 13.5123 63.2301C13.9242 62.4837 13.7783 61.3855 12.0109 61.5914C10.2435 61.7973 9.3598 62.4751 9.08525 63.2301Z" fill="#DBDBDB"/>
<path d="M16.7217 63.4618C15.9752 63.5733 15.5634 64.8688 16.3098 65.6839C17.0563 66.499 17.0563 66.3617 17.9486 65.6839C18.8323 65.0061 20.1964 64.6629 19.8618 63.9766C19.5186 63.2988 17.4767 63.3502 16.7217 63.4618Z" fill="#DBDBDB"/>
<path d="M22.6581 66.2502C22.9927 65.2292 24.7 66.233 25.455 67.3226C26.2015 68.4122 25.8669 69.9823 25.455 71.1406C25.0432 72.2988 24.7772 73.663 23.8163 73.1139C22.864 72.5648 23.885 70.9346 23.7477 69.9737C23.6104 69.0214 22.3835 67.0824 22.6581 66.2502Z" fill="#DBDBDB"/>
<path d="M52.0436 9.36738C51.6833 10.2253 53.3391 10.5256 54.2915 11.0747C55.2438 11.6238 55.9988 11.9584 56.5393 11.0747C57.0884 10.191 56.3334 9.16147 55.587 8.96414C54.8406 8.74965 52.3782 8.54374 52.0436 9.36738Z" fill="#DBDBDB"/>
<path d="M64.9296 17.3378C65.556 17.9985 66.637 17.8869 67.3834 18.8393C68.1298 19.7916 67.8639 21.4303 68.8162 21.9108C69.7685 22.3912 70.4549 21.9108 70.5235 21.233C70.5922 20.5552 69.1594 18.8479 69.2967 18.5047C69.4339 18.1615 71.27 18.9851 71.6818 20.0061C72.0936 21.0271 71.27 22.4599 72.2309 22.7344C73.1832 23.009 72.9773 21.7821 73.3891 21.5075C73.8009 21.233 74.6847 21.3703 74.616 20.5552C74.5474 19.7401 73.4578 17.9642 72.5741 17.3464C71.6904 16.7287 71.004 16.0509 69.5026 15.7077C68.0011 15.3645 66.5684 15.6391 65.8219 16.2568C65.0669 16.866 64.5436 16.9346 64.9296 17.3378Z" fill="#DBDBDB"/>
<path d="M94.4274 30.1899C94.3416 30.5331 94.2214 30.7819 94.0413 30.9106C92.6085 31.9316 90.9011 28.3882 88.9278 27.7104C86.9459 27.0241 86.0622 24.5017 85.659 25.0508C85.2472 25.5913 85.3844 26.3463 84.7753 27.23C84.1576 28.1137 83.2739 27.9163 82.8706 29.6151C82.4588 31.3224 84.7753 34.454 84.2348 35.4836C83.6857 36.5045 83.0079 36.1613 81.9183 36.1013C80.8287 36.0326 81.0346 36.985 79.6018 36.5817C78.169 36.1699 79.3959 34.4025 77.148 32.2834C74.9002 30.1728 74.1451 29.761 74.6256 28.8086C75.1061 27.8563 74.4197 26.4921 75.4407 26.3548C76.4616 26.2176 77.2853 27.719 77.9631 28.1308C78.6409 28.5427 79.5332 27.3158 79.6018 26.2176C79.6704 25.128 77.2167 23.6265 76.333 22.7772C75.4493 21.9278 75.3806 18.8477 75.7152 18.2385C76.0498 17.6294 77.0794 17.8267 77.3539 16.3339C77.5169 15.4502 76.1184 13.9831 74.943 12.9192C82.4159 17.4578 89.0222 23.3262 94.4274 30.1899Z" fill="#DBDBDB"/>
<path d="M104.61 91.3197C104.816 89.1405 103.726 89.0033 104.816 84.9794C105.906 80.9556 103.658 76.6572 102.843 75.7735C102.028 74.8898 100.252 75.1558 98.819 76.048C97.3862 76.9317 98.4071 77.6181 97.4548 77.9527C96.5025 78.2959 95.5501 77.7468 94.6579 77.8154C93.7742 77.8841 92.9505 80.1319 91.0458 80.0633C89.1412 79.9947 87.9143 77.2663 86.4815 75.3273C85.0487 73.3884 82.1145 72.1529 81.1621 69.7678C80.2098 67.3826 82.0458 63.702 81.6426 60.905C81.2308 58.1081 79.3947 58.7258 79.0515 57.1557C78.7084 55.5857 79.3261 56.3407 79.8066 54.8392C80.287 53.3378 79.2575 52.5228 80.2184 49.9317C81.1707 47.3407 82.8781 46.0451 82.4662 44.8869C82.0544 43.7287 80.7589 41.8154 80.6903 40.4598C80.6216 39.1042 81.9858 39.1643 84.5768 37.2511C87.1679 35.3464 87.8456 35.4836 89.8275 36.1614C91.8094 36.8392 93.0363 37.1824 94.1945 37.3883C95.3528 37.5942 96.9229 40.5971 97.4033 40.4598C97.8838 40.3225 97.9524 39.4388 98.1583 38.1433C98.2441 37.5942 98.6131 37.0795 99.0077 36.6762C106.017 47.8898 110.067 61.1367 110.067 75.3359C110.067 91.3798 104.893 106.214 96.1164 118.268C103.057 107.647 104.404 93.499 104.61 91.3197Z" fill="#DBDBDB"/>
<path d="M-4.39258 32.9783C7.38722 29.8811 58.2471 18.8563 89.9145 49.7944" stroke="#C7C7C7" stroke-width="0.75" stroke-miterlimit="10" stroke-dasharray="2.03 2.03"/>
<path d="M90.533 50.4121C90.7389 50.618 90.9362 50.8153 91.1335 51.0213" stroke="#C7C7C7" stroke-width="0.75" stroke-miterlimit="10"/>
<path d="M9.76487 77.8069C9.72197 77.6439 9.71341 77.3522 9.72199 76.9575" stroke="#C7C7C7" stroke-width="0.75" stroke-miterlimit="10"/>
<path d="M9.81581 75.3016C10.2963 67.9489 11.8148 47.1433 -5.49023 34.6428" stroke="#C7C7C7" stroke-width="0.75" stroke-miterlimit="10" stroke-dasharray="1.93 1.93"/>
<path d="M10.5615 75.3273C10.5615 75.3273 10.7589 75.1043 11.1535 74.7096" stroke="#C7C7C7" stroke-width="0.75" stroke-miterlimit="10"/>
<path d="M12.3975 73.4999C19.4242 66.8936 46.3727 44.9727 89.4166 50.7811" stroke="#C7C7C7" stroke-width="0.75" stroke-miterlimit="10" stroke-dasharray="2.03 2.03"/>
<path d="M90.292 50.8927C90.5751 50.9356 90.8582 50.9785 91.1414 51.0214" stroke="#C7C7C7" stroke-width="0.75" stroke-miterlimit="10"/>
<path d="M34.6445 87.3902C34.6445 87.3902 34.696 87.0899 34.7561 86.5408" stroke="#C7C7C7" stroke-width="0.75" stroke-miterlimit="10"/>
<path d="M34.9025 84.8677C35.4345 76.0221 34.1389 46.3538 -5.24146 34.1708" stroke="#C7C7C7" stroke-width="0.75" stroke-miterlimit="10" stroke-dasharray="1.97 1.97"/>
<path d="M91.1413 51.0212C91.1413 51.0212 90.8496 51.0727 90.3091 51.2014" stroke="#C7C7C7" stroke-width="0.75" stroke-miterlimit="10"/>
<path d="M88.6274 51.6219C77.594 54.5562 33.5377 69.6305 24.8208 124.78" stroke="#C7C7C7" stroke-width="0.75" stroke-miterlimit="10" stroke-dasharray="2.01 2.01"/>
<path d="M24.6924 125.638C24.6495 125.921 24.6066 126.204 24.5637 126.487" stroke="#C7C7C7" stroke-width="0.75" stroke-miterlimit="10"/>
<path d="M9.76367 77.8068C9.76367 77.8068 32.0449 99.6419 24.5635 126.487" stroke="#C7C7C7" stroke-width="0.75" stroke-miterlimit="10" stroke-dasharray="2 2"/>
<path d="M98.2314 129.955C98.2846 129.961 98.3412 129.952 98.3914 129.924C99.3177 129.42 100.24 128.88 101.134 128.32C101.258 128.243 101.293 128.081 101.213 127.96C101.133 127.839 100.967 127.803 100.843 127.88C99.9583 128.434 99.0459 128.968 98.1287 129.468C98.0007 129.538 97.9548 129.697 98.0274 129.823C98.0709 129.899 98.1491 129.945 98.2314 129.955ZM103.582 126.604C103.647 126.611 103.713 126.595 103.77 126.556C103.989 126.399 104.209 126.239 104.427 126.079C105.065 125.609 105.692 125.124 106.291 124.639C106.404 124.547 106.419 124.382 106.324 124.271C106.229 124.16 106.061 124.145 105.948 124.237C105.354 124.717 104.733 125.198 104.103 125.664C103.886 125.824 103.67 125.981 103.453 126.136C103.334 126.221 103.308 126.385 103.396 126.501C103.441 126.559 103.51 126.596 103.582 126.604ZM108.471 122.638C108.546 122.646 108.625 122.623 108.685 122.569C109.466 121.847 110.222 121.098 110.93 120.344C111.029 120.238 111.022 120.073 110.913 119.976C110.804 119.879 110.635 119.885 110.536 119.99C109.836 120.735 109.09 121.475 108.318 122.189C108.212 122.288 108.207 122.453 108.309 122.558C108.351 122.604 108.411 122.631 108.471 122.638ZM112.758 118.06C112.847 118.07 112.94 118.037 112.999 117.962C113.661 117.136 114.292 116.284 114.869 115.425C114.951 115.305 114.915 115.142 114.792 115.063C114.668 114.983 114.502 115.017 114.422 115.136C113.852 115.982 113.231 116.825 112.577 117.639C112.486 117.752 112.507 117.916 112.624 118.006C112.664 118.036 112.712 118.055 112.758 118.06ZM116.249 112.876C116.354 112.888 116.46 112.837 116.515 112.742C117.023 111.821 117.492 110.873 117.908 109.923C117.966 109.79 117.902 109.637 117.766 109.579C117.63 109.522 117.474 109.583 117.415 109.716C117.006 110.652 116.544 111.585 116.044 112.491C115.974 112.617 116.022 112.777 116.153 112.846C116.183 112.862 116.217 112.872 116.249 112.876ZM118.743 107.166C118.867 107.18 118.988 107.108 119.028 106.988C119.353 105.995 119.632 104.977 119.859 103.961C119.89 103.821 119.799 103.681 119.654 103.65C119.509 103.618 119.368 103.707 119.336 103.848C119.113 104.847 118.837 105.849 118.518 106.827C118.472 106.964 118.549 107.112 118.69 107.157C118.709 107.161 118.726 107.164 118.743 107.166ZM120.096 101.098C120.242 101.114 120.373 101.012 120.391 100.87C120.402 100.778 120.414 100.686 120.424 100.595C120.532 99.6542 120.597 98.6947 120.622 97.7424C120.626 97.5987 120.51 97.4769 120.361 97.4735C120.214 97.4686 120.091 97.5819 120.087 97.7273C120.064 98.6645 119.998 99.6087 119.892 100.535C119.882 100.625 119.872 100.716 119.86 100.806C119.842 100.95 119.947 101.081 120.094 101.097L120.096 101.098ZM120.256 94.8812C120.272 94.883 120.287 94.883 120.305 94.8817C120.452 94.8729 120.563 94.7482 120.554 94.6046C120.482 93.5684 120.36 92.5197 120.192 91.4861C120.169 91.3426 120.032 91.2456 119.885 91.2679C119.739 91.2902 119.64 91.4232 119.664 91.5667C119.829 92.5848 119.95 93.6181 120.02 94.6388C120.029 94.7672 120.131 94.867 120.256 94.8812ZM97.794 92.3093C98.5198 92.3919 99.261 92.4304 100 92.4247C100.148 92.4228 100.266 92.3056 100.265 92.1613C100.262 92.0168 100.142 91.9013 99.9939 91.9014C98.9415 91.9089 97.8856 91.8243 96.8681 91.6474C96.7198 91.6221 96.5839 91.7168 96.5589 91.8599C96.5341 92.0013 96.6316 92.1379 96.7765 92.1629C97.1122 92.2215 97.4542 92.2706 97.794 92.3093ZM93.7222 91.3267C93.8406 91.3401 93.9558 91.2752 94.0015 91.1634C94.0551 91.0286 93.9872 90.8767 93.8488 90.8254C92.8546 90.4441 91.9217 89.9664 91.0785 89.4039C90.9557 89.3221 90.7906 89.3525 90.7075 89.472C90.6243 89.5914 90.6564 89.7529 90.7791 89.8347C91.6548 90.4178 92.6237 90.9149 93.6563 91.3107C93.678 91.3182 93.6999 91.3241 93.7222 91.3267ZM103.137 92.1285C103.162 92.1314 103.188 92.131 103.215 92.1256C104.264 91.9379 105.31 91.66 106.326 91.3006C106.466 91.252 106.537 91.1023 106.484 90.9658C106.434 90.831 106.28 90.7593 106.141 90.8096C105.152 91.1601 104.134 91.4294 103.114 91.6118C102.968 91.6377 102.873 91.7744 102.9 91.9166C102.925 92.0315 103.022 92.1154 103.137 92.1285ZM88.5152 87.8127C88.5872 87.8209 88.6608 87.8004 88.7203 87.7512C88.8318 87.657 88.8436 87.4921 88.7483 87.3828C88.057 86.6001 87.498 85.7391 87.0877 84.8239C87.028 84.6915 86.8698 84.6311 86.7346 84.6887C86.5995 84.7462 86.5384 84.9005 86.5981 85.0328C87.0309 85.9947 87.6178 86.9013 88.3445 87.7237C88.3874 87.7744 88.4499 87.8052 88.5152 87.8127ZM109.096 90.0263C109.149 90.0323 109.206 90.0235 109.256 89.9953C110.18 89.4932 111.083 88.9105 111.94 88.265C112.056 88.1764 112.078 88.0127 111.987 87.8988C111.895 87.785 111.728 87.7625 111.612 87.851C110.777 88.4821 109.895 89.0485 108.995 89.5398C108.865 89.6098 108.821 89.7693 108.892 89.8945C108.935 89.9707 109.012 90.0167 109.096 90.0263ZM119.258 88.7332C119.289 88.7367 119.32 88.7352 119.352 88.727C119.495 88.6924 119.583 88.5513 119.546 88.4115C119.288 87.4015 118.979 86.3892 118.629 85.401C118.58 85.2648 118.429 85.1916 118.288 85.2383C118.149 85.2853 118.074 85.4329 118.123 85.5708C118.468 86.5447 118.771 87.5429 119.028 88.5374C119.056 88.6441 119.15 88.7209 119.258 88.7332ZM114.116 86.253C114.195 86.2619 114.277 86.2358 114.336 86.1763C115.068 85.4436 115.773 84.645 116.429 83.7985C116.518 83.6831 116.493 83.5191 116.376 83.4329C116.259 83.3449 116.09 83.368 116.002 83.4819C115.361 84.3097 114.672 85.0931 113.954 85.8104C113.85 85.914 113.854 86.079 113.959 86.1791C114.003 86.2214 114.057 86.2463 114.116 86.253ZM85.9993 82.1858C86.0181 82.1879 86.0372 82.1884 86.0566 82.1855C86.2042 82.1718 86.311 82.0431 86.2942 81.9004C86.2139 81.155 86.2185 80.3819 86.3069 79.6048C86.3346 79.362 86.3712 79.1168 86.4145 78.874C86.4392 78.7326 86.3418 78.596 86.1969 78.571C86.0503 78.5459 85.9127 78.6405 85.8879 78.7819C85.8416 79.0361 85.8055 79.2916 85.7765 79.5462C85.6837 80.3618 85.6784 81.1721 85.7632 81.9536C85.777 82.0774 85.8774 82.1719 85.9993 82.1858ZM117.175 82.8418C117.222 82.8471 117.269 82.8407 117.313 82.8219C117.448 82.7643 117.509 82.6101 117.448 82.4776C117.011 81.5203 116.528 80.5729 116.011 79.6641C115.938 79.5371 115.777 79.4916 115.647 79.5617C115.518 79.6317 115.472 79.7894 115.544 79.9164C116.054 80.8125 116.53 81.7454 116.96 82.6884C117 82.7761 117.084 82.8315 117.175 82.8418ZM117.953 81.3221C118.054 81.3336 118.159 81.2878 118.212 81.1972C118.745 80.3214 119.247 79.3912 119.706 78.4273C119.768 78.2969 119.711 78.1411 119.577 78.0801C119.443 78.019 119.284 78.0739 119.222 78.2042C118.77 79.1503 118.277 80.0679 117.753 80.9278C117.678 81.0516 117.721 81.2125 117.848 81.2864C117.88 81.3053 117.917 81.318 117.953 81.3221ZM87.0279 76.1107C87.1429 76.1238 87.2577 76.0622 87.3049 75.9523C87.3478 75.8503 87.3924 75.7485 87.4388 75.6469C87.8317 74.7755 88.262 73.9576 88.7201 73.2158C88.7967 73.0922 88.7542 72.9312 88.6288 72.8576C88.5018 72.7821 88.3373 72.8227 88.2625 72.9448C87.7935 73.7058 87.3522 74.5445 86.9501 75.4352C86.9017 75.5399 86.8567 75.6451 86.8117 75.7502C86.7549 75.8829 86.8192 76.0361 86.957 76.0925C86.9786 76.1017 87.0039 76.108 87.0279 76.1107ZM114.073 77.3908C114.135 77.3978 114.199 77.3847 114.253 77.3485C114.375 77.2674 114.406 77.1047 114.324 76.9851C113.713 76.108 113.06 75.2635 112.384 74.4706C112.289 74.3597 112.12 74.3439 112.007 74.4362C111.894 74.5285 111.879 74.693 111.974 74.804C112.64 75.5821 113.28 76.415 113.882 77.2775C113.927 77.3436 113.997 77.3822 114.073 77.3908ZM120.649 75.7048C120.769 75.7185 120.886 75.6504 120.929 75.5365C121.284 74.5828 121.613 73.5821 121.905 72.5584C121.945 72.4205 121.863 72.2753 121.72 72.2353C121.578 72.1954 121.43 72.2753 121.39 72.4149C121.101 73.4237 120.777 74.4131 120.424 75.3536C120.374 75.4887 120.446 75.6393 120.584 75.689C120.608 75.6985 120.628 75.7025 120.649 75.7048ZM90.3358 70.8397C90.4182 70.8491 90.5049 70.8199 90.5644 70.7554C91.29 69.9694 92.0785 69.3026 92.909 68.7711C93.0327 68.6919 93.0667 68.5312 92.9849 68.4099C92.9031 68.2886 92.7366 68.2544 92.6146 68.3338C91.7468 68.8882 90.9236 69.585 90.1663 70.4048C90.0672 70.5122 90.0763 70.6761 90.1869 70.7735C90.2296 70.8106 90.2826 70.8336 90.3358 70.8397ZM109.973 72.61C110.053 72.6192 110.136 72.593 110.195 72.5318C110.298 72.4281 110.294 72.2631 110.187 72.1628C109.393 71.4141 108.566 70.7262 107.73 70.1153C107.611 70.0288 107.443 70.0521 107.355 70.1677C107.267 70.2832 107.292 70.4472 107.411 70.5337C108.228 71.1305 109.037 71.8045 109.816 72.5378C109.862 72.5787 109.918 72.6037 109.973 72.61ZM104.85 68.9087C104.956 68.9208 105.063 68.8702 105.116 68.771C105.184 68.6431 105.134 68.4848 105.003 68.4172C104.008 67.9019 103.001 67.4939 102.009 67.2028C101.868 67.1613 101.718 67.2392 101.676 67.377C101.635 67.5147 101.715 67.6613 101.857 67.7028C102.814 67.9831 103.789 68.3791 104.752 68.879C104.785 68.8946 104.817 68.905 104.85 68.9087ZM95.617 67.5338C95.6496 67.5375 95.6846 67.5347 95.7186 67.5267C96.6993 67.2634 97.7324 67.1503 98.7899 67.1892C98.9371 67.1941 99.061 67.0827 99.0654 66.9373C99.0696 66.7936 98.9531 66.6717 98.806 66.6669C97.6931 66.625 96.6053 66.7455 95.5725 67.0232C95.4309 67.0614 95.3468 67.2045 95.3865 67.3447C95.4198 67.4486 95.5123 67.5219 95.617 67.5338ZM122.374 69.7277C122.509 69.7431 122.636 69.6557 122.664 69.5233C122.877 68.5279 123.066 67.4942 123.225 66.4469C123.247 66.3035 123.145 66.1715 123 66.1498C122.853 66.128 122.718 66.2264 122.697 66.3681C122.539 67.4037 122.353 68.4292 122.143 69.4148C122.113 69.5556 122.205 69.695 122.351 69.7251C122.357 69.7241 122.365 69.7267 122.374 69.7277ZM123.312 63.5779C123.313 63.5781 123.315 63.5783 123.317 63.5784C123.465 63.5936 123.595 63.4879 123.608 63.3452C123.705 62.3334 123.783 61.2853 123.836 60.2276C123.843 60.0842 123.729 59.9593 123.582 59.9527C123.435 59.9445 123.309 60.0557 123.302 60.1991C123.25 61.2484 123.173 62.2881 123.077 63.2916C123.062 63.4341 123.168 63.5615 123.312 63.5779ZM123.623 57.3584C123.634 57.3596 123.642 57.3606 123.653 57.3601C123.8 57.3616 123.921 57.2448 123.922 57.1006C123.927 56.0527 123.904 55.0017 123.854 53.9748C123.848 53.8299 123.721 53.7188 123.575 53.7241C123.426 53.7293 123.313 53.8522 123.32 53.9954C123.369 55.0138 123.393 56.0564 123.387 57.0941C123.386 57.2313 123.489 57.3432 123.623 57.3584ZM123.317 51.1434C123.336 51.1455 123.355 51.146 123.375 51.1431C123.522 51.1294 123.629 51.0007 123.614 50.8582C123.505 49.8177 123.365 48.7737 123.199 47.7556C123.175 47.6138 123.039 47.5151 122.892 47.5374C122.747 47.5599 122.646 47.6927 122.67 47.8362C122.835 48.844 122.975 49.8778 123.082 50.9079C123.095 51.0333 123.196 51.1295 123.317 51.1434ZM122.307 44.9957C122.336 44.999 122.364 44.9971 122.394 44.992C122.539 44.961 122.629 44.822 122.598 44.6811C122.367 43.6622 122.102 42.6397 121.81 41.6463C121.769 41.5076 121.622 41.4263 121.48 41.4662C121.338 41.506 121.256 41.6493 121.297 41.7881C121.585 42.7725 121.849 43.7831 122.076 44.793C122.102 44.9028 122.197 44.9832 122.307 44.9957ZM120.552 39.0075C120.591 39.012 120.632 39.0081 120.671 38.994C120.811 38.9471 120.883 38.7976 120.834 38.6614C120.477 37.6792 120.083 36.6962 119.665 35.7427C119.607 35.6105 119.449 35.5484 119.314 35.6043C119.179 35.6602 119.116 35.8142 119.174 35.9464C119.588 36.8892 119.978 37.8616 120.332 38.8332C120.364 38.9319 120.452 38.9962 120.552 39.0075ZM118.035 33.2805C118.085 33.2861 118.138 33.2786 118.186 33.2552C118.318 33.1905 118.369 33.0335 118.302 32.9037C117.82 31.9752 117.3 31.0507 116.757 30.1543C116.681 30.0303 116.517 29.9879 116.39 30.0617C116.264 30.1355 116.221 30.2952 116.298 30.4192C116.835 31.3049 117.349 32.2201 117.825 33.1378C117.868 33.2191 117.949 33.2707 118.035 33.2805ZM114.784 27.9143C114.846 27.9213 114.91 27.9082 114.964 27.8704C115.087 27.7893 115.117 27.6265 115.034 27.5067C114.433 26.6478 113.796 25.7966 113.139 24.9737C113.048 24.8598 112.88 24.839 112.763 24.9276C112.647 25.0161 112.627 25.1801 112.718 25.2939C113.368 26.1075 114 26.9497 114.594 27.7993C114.638 27.8672 114.708 27.9057 114.784 27.9143ZM110.852 22.9983C110.926 23.0067 111.001 22.9864 111.059 22.9353C111.169 22.8393 111.179 22.6742 111.08 22.5662C110.376 21.7921 109.634 21.0257 108.877 20.2898C108.772 20.1879 108.601 20.1872 108.498 20.2891C108.394 20.3909 108.394 20.5572 108.499 20.659C109.249 21.3873 109.983 22.1461 110.679 22.9124C110.728 22.962 110.789 22.991 110.852 22.9983ZM38.3992 13.0822C38.4661 13.0898 38.5359 13.0723 38.5929 13.0296C39.4161 12.409 40.2837 11.8106 41.1712 11.2516C41.2947 11.1741 41.3306 11.0119 41.2505 10.8908C41.1704 10.7697 41.0042 10.7339 40.8806 10.8114C39.9802 11.3773 39.1011 11.9847 38.2665 12.6141C38.1503 12.7027 38.1282 12.8664 38.2195 12.9803C38.2632 13.0395 38.3305 13.0743 38.3992 13.0822ZM106.328 18.6018C106.412 18.6113 106.499 18.5822 106.558 18.516C106.656 18.4084 106.645 18.2426 106.533 18.1467C105.736 17.4622 104.904 16.7873 104.061 16.1451C103.944 16.0555 103.775 16.0753 103.686 16.1889C103.595 16.3024 103.616 16.466 103.733 16.5556C104.568 17.1918 105.39 17.8589 106.179 18.5373C106.225 18.5748 106.276 18.5959 106.328 18.6018ZM43.7356 9.71812C43.7871 9.72397 43.842 9.71495 43.8919 9.6884C44.8086 9.20915 45.7641 8.75468 46.7326 8.33901C46.8678 8.28145 46.9288 8.12723 46.8674 7.9947C46.8077 7.86237 46.6495 7.80195 46.5141 7.86119C45.5326 8.28387 44.5643 8.74367 43.6366 9.22845C43.5072 9.29684 43.458 9.4541 43.5285 9.58258C43.5735 9.66065 43.6515 9.70855 43.7356 9.71812ZM101.297 14.7634C101.391 14.7741 101.489 14.7344 101.547 14.6528C101.63 14.535 101.6 14.3721 101.478 14.2886C100.606 13.6991 99.7 13.1244 98.7871 12.5777C98.6601 12.5022 98.4958 12.5411 98.4194 12.6631C98.3427 12.7867 98.3835 12.9474 98.5088 13.0227C99.4136 13.5634 100.31 14.1336 101.173 14.7171C101.212 14.7436 101.254 14.7585 101.297 14.7634ZM49.5496 7.21256C49.5891 7.21705 49.6295 7.21317 49.6693 7.19905C50.6502 6.85773 51.663 6.5421 52.6837 6.26301C52.8254 6.22484 52.9079 6.07986 52.8663 5.9411C52.8248 5.80235 52.6776 5.72113 52.5357 5.76097C51.5041 6.04392 50.4788 6.36321 49.4871 6.70837C49.3477 6.75698 49.2768 6.90668 49.3273 7.04306C49.3635 7.13709 49.4518 7.20142 49.5496 7.21256ZM95.8482 11.5069C95.9546 11.519 96.0612 11.4684 96.114 11.3709C96.1842 11.2432 96.1344 11.0848 96.003 11.0173C95.0683 10.5258 94.1038 10.0513 93.1375 9.60708C93.0039 9.54437 92.8445 9.60087 92.7827 9.73125C92.721 9.86164 92.778 10.0174 92.9118 10.0785C93.8698 10.5183 94.8244 10.9883 95.751 11.4755C95.7836 11.4945 95.8156 11.5032 95.8482 11.5069ZM55.6717 5.52754C55.6992 5.53067 55.7289 5.52896 55.7573 5.52371C56.7773 5.31239 57.8255 5.12803 58.8735 4.97588C59.0201 4.95524 59.1204 4.82246 59.0968 4.67896C59.0748 4.53566 58.9383 4.43699 58.7915 4.4593C57.7328 4.61363 56.674 4.80017 55.6433 5.01367C55.4992 5.04307 55.4069 5.18186 55.4395 5.32299C55.4649 5.43614 55.5602 5.51485 55.6717 5.52754ZM90.0726 8.84937C90.1893 8.86265 90.3043 8.7994 90.3499 8.68922C90.405 8.55638 90.339 8.40298 90.2009 8.34825C89.2183 7.95649 88.2092 7.58376 87.2001 7.24158C87.0613 7.19355 86.9088 7.2661 86.8602 7.40307C86.8116 7.54004 86.8869 7.68772 87.0274 7.73594C88.0264 8.07528 89.0271 8.44536 90.0015 8.8328C90.025 8.84056 90.0486 8.84664 90.0726 8.84937ZM61.9653 4.61188C61.9824 4.61383 62.0015 4.6143 62.0208 4.6131C63.0634 4.52311 64.1274 4.45931 65.1861 4.42713C65.3344 4.42196 65.4488 4.30265 65.4427 4.15776C65.4366 4.01286 65.3138 3.90049 65.1655 3.90567C64.0981 3.93855 63.0238 4.00118 61.9704 4.09335C61.823 4.10541 61.7147 4.2322 61.7296 4.3764C61.7416 4.49991 61.8434 4.59801 61.9653 4.61188ZM84.0454 6.79938C84.1724 6.81383 84.2959 6.73627 84.3325 6.6132C84.3726 6.47526 84.29 6.33015 84.1487 6.28862C83.1286 5.99777 82.0849 5.72969 81.0501 5.49145C80.9079 5.4583 80.7624 5.54522 80.729 5.68563C80.6957 5.82603 80.7857 5.9669 80.9296 6.00025C81.9559 6.23752 82.9894 6.50274 84.0012 6.79095C84.0145 6.79586 84.03 6.79762 84.0454 6.79938ZM68.3337 4.41217C68.3423 4.41315 68.3509 4.41413 68.3597 4.41343C69.4084 4.4378 70.4749 4.48964 71.5296 4.56897C71.676 4.58055 71.8047 4.47304 71.8159 4.32842C71.8272 4.18381 71.716 4.06089 71.5681 4.04744C70.5048 3.96713 69.4279 3.91581 68.3703 3.89213C68.223 3.88893 68.1006 4.00224 68.0979 4.14783C68.0931 4.28131 68.1965 4.39655 68.3337 4.41217ZM77.8384 5.36679C77.9774 5.3826 78.1061 5.29037 78.132 5.15421C78.1585 5.01303 78.0611 4.87641 77.9147 4.84956C76.8688 4.66265 75.8044 4.50078 74.7506 4.36727C74.7489 4.36708 74.7489 4.36707 74.7472 4.36688C74.6013 4.35028 74.47 4.45069 74.4521 4.59286C74.434 4.73669 74.5373 4.86721 74.6847 4.88568C75.7281 5.01801 76.7839 5.1789 77.8213 5.36483C77.8264 5.36542 77.8333 5.3662 77.8384 5.36679Z" fill="#2E2E46"/>
</svg>
