<svg width="21" height="20" viewBox="0 0 21 20" fill="none" xmlns="http://www.w3.org/2000/svg">
<path fill-rule="evenodd" clip-rule="evenodd" d="M0.0871582 7.89217C0.0871582 12.2439 3.66869 15.7843 8.07096 15.7843C9.98527 15.7843 11.7444 15.1149 13.1213 14.0004L18.9171 19.7296C18.9911 19.803 19.0791 19.8612 19.1759 19.9009C19.2728 19.9406 19.3767 19.961 19.4815 19.9609C19.6396 19.9612 19.7942 19.9151 19.9257 19.8285C20.0572 19.7418 20.1597 19.6185 20.2202 19.4741C20.2806 19.3298 20.2964 19.1709 20.2654 19.0177C20.2343 18.8645 20.158 18.7239 20.046 18.6137L14.2502 12.8844C15.3776 11.5233 16.0548 9.78444 16.0548 7.89217C16.0548 3.54043 12.4732 0 8.07096 0C3.66869 0 0.0871582 3.54043 0.0871582 7.89217ZM1.68392 7.89217C1.68392 4.41094 4.54931 1.57843 8.07096 1.57843C11.5934 1.57843 14.458 4.41094 14.458 7.89217C14.458 11.3734 11.5926 14.2059 8.07096 14.2059C4.54931 14.2059 1.68392 11.3734 1.68392 7.89217Z" fill="#C4C4C4"/>
</svg>
