<svg width="118" height="124" viewBox="0 0 118 124" fill="none" xmlns="http://www.w3.org/2000/svg">
<path opacity="0.8" d="M35.0937 63.2475C36.3173 63.2632 37.5059 62.8387 38.4429 62.0512C39.3799 61.2637 40.003 60.1657 40.1987 58.9571C40.4214 57.6305 40.1121 56.2696 39.3379 55.1698C38.5636 54.0701 37.3871 53.3203 36.0636 53.0833L16.2051 49.9677C14.8886 49.8062 13.5609 50.1637 12.5032 50.9645C11.4456 51.7653 10.7409 52.9465 10.5386 54.2581C10.3327 55.5918 10.6628 56.9528 11.4568 58.0438C12.2507 59.1348 13.4439 59.8671 14.7757 60.0807L34.43 63.1964L35.0937 63.2475ZM35.3489 70.2959L17.6345 79.2853C16.6171 79.8068 15.8041 80.6548 15.3257 81.6935C14.8472 82.7323 14.7311 83.9016 14.9959 85.0142C15.2606 86.1268 15.891 87.1183 16.786 87.8299C17.6809 88.5415 18.7887 88.9319 19.9318 88.9387C20.7332 88.9528 21.5246 88.7593 22.2291 88.3769L39.9945 79.3875C40.6117 79.0945 41.1638 78.6806 41.6182 78.1702C42.0725 77.6599 42.4199 77.0635 42.6397 76.4164C42.8595 75.7693 42.9473 75.0846 42.8978 74.403C42.8483 73.7213 42.6626 73.0565 42.3516 72.448C42.0407 71.8394 41.6108 71.2995 41.0875 70.8602C40.5642 70.4209 39.9581 70.0911 39.3051 69.8905C38.6521 69.6898 37.9655 69.6223 37.2859 69.6919C36.6064 69.7616 35.9477 69.967 35.3489 70.2959ZM72.3603 42.766C73.0914 43.1262 73.8937 43.3181 74.7086 43.3278C75.6513 43.325 76.5748 43.061 77.3768 42.5651C78.1787 42.0693 78.8278 41.3609 79.252 40.5186L88.2879 22.8463C88.6119 22.2419 88.8109 21.5783 88.873 20.8952C88.9352 20.2122 88.8592 19.5236 88.6495 18.8705C88.4399 18.2175 88.101 17.6134 87.6529 17.0942C87.2049 16.5751 86.6569 16.1516 86.0417 15.8489C84.8423 15.2393 83.4508 15.1281 82.1698 15.5393C80.8889 15.9506 79.8219 16.8511 79.201 18.0452L70.1651 35.8707C69.8555 36.4674 69.6666 37.1194 69.6094 37.7893C69.5522 38.4592 69.6277 39.1338 69.8316 39.7744C70.0356 40.415 70.3639 41.009 70.7979 41.5224C71.2318 42.0358 71.7627 42.4584 72.3603 42.766ZM57.9641 40.6208H58.7809C59.4455 40.5153 60.0826 40.2794 60.6557 39.9266C61.2288 39.5739 61.7265 39.1113 62.1203 38.5654C62.5141 38.0196 62.7961 37.4012 62.9502 36.7459C63.1043 36.0906 63.1273 35.4113 63.0181 34.747L59.904 15.1339C59.7968 14.4631 59.5585 13.8201 59.2029 13.2415C58.8472 12.6629 58.3811 12.16 57.8313 11.7616C57.2814 11.3632 56.6584 11.0771 55.998 10.9195C55.3376 10.762 54.6526 10.7361 53.9822 10.8435C53.3118 10.9508 52.6691 11.1892 52.0908 11.545C51.5125 11.9008 51.0099 12.3671 50.6117 12.9173C50.2135 13.4675 49.9275 14.0907 49.77 14.7515C49.6126 15.4122 49.5868 16.0975 49.694 16.7683L52.9102 36.2793C53.0935 37.4885 53.7045 38.5917 54.6319 39.3884C55.5594 40.1851 56.7417 40.6224 57.9641 40.6208Z" fill="#E24949"/>
<path d="M55.4626 49.9679L106.513 65.6482H106.717C107.693 65.9443 108.559 66.5263 109.201 67.3191C109.844 68.1119 110.234 69.0792 110.322 70.0962C110.41 71.1131 110.191 72.1331 109.694 73.0245C109.197 73.9159 108.445 74.6379 107.534 75.0973L85.6842 85.8233L74.9637 107.48C74.5466 108.331 73.9006 109.05 73.0981 109.555C72.2956 110.061 71.3683 110.332 70.4202 110.34H70.0118C69.0035 110.271 68.0383 109.904 67.2386 109.286C66.4388 108.667 65.8405 107.825 65.5194 106.867L49.1324 56.4035C48.8551 55.5209 48.8226 54.5796 49.0384 53.68C49.2542 52.7805 49.7102 51.9564 50.3576 51.2959C50.3576 51.2959 51.8257 50.1552 52.7253 49.9211C53.625 49.6871 54.5714 49.7033 55.4626 49.9679Z" fill="#702F2F"/>
<path d="M55.4627 49.9679L106.513 65.6483H106.717C107.693 65.9443 108.559 66.5263 109.201 67.3191C109.844 68.1119 110.234 69.0792 110.322 70.0962C110.41 71.1131 110.191 72.1331 109.694 73.0245C109.197 73.9159 108.445 74.6379 107.534 75.0973L50.3577 51.2959C50.3577 51.2959 51.8258 50.1552 52.7255 49.9211C53.6251 49.6871 54.5715 49.7033 55.4627 49.9679Z" fill="#521B1B"/>
</svg>
