<svg width="16" height="16" viewBox="0 0 16 16" fill="none" xmlns="http://www.w3.org/2000/svg">
<path d="M14.295 3.115C14.6844 2.72564 14.6844 2.09436 14.295 1.705C13.9056 1.31564 13.2744 1.31564 12.885 1.705L8 6.59L3.115 1.705C2.72564 1.31564 2.09436 1.31564 1.705 1.705C1.31564 2.09436 1.31564 2.72564 1.705 3.115L6.59 8L1.705 12.885C1.31564 13.2744 1.31564 13.9056 1.705 14.295C2.09436 14.6844 2.72564 14.6844 3.115 14.295L8 9.41L12.885 14.295C13.2744 14.6844 13.9056 14.6844 14.295 14.295C14.6844 13.9056 14.6844 13.2744 14.295 12.885L9.41 8L14.295 3.115Z" fill="#C4C4C4"/>
</svg>
