<svg width="215" height="56" viewBox="0 0 215 56" fill="none" xmlns="http://www.w3.org/2000/svg">
<g clip-path="url(#clip0_58_1541)">
<path d="M20.9694 5.2179H25.6533C28.5057 4.79769 31.4187 5.16715 34.076 6.28613C37.4096 8.29177 39.8276 11.5206 40.8141 15.2839C41.5126 17.2561 41.5126 17.2561 43.1971 16.5576H44.5118V0.944974H0.426336V3.69773H2.23413C3.01972 3.69229 3.79655 3.86292 4.50754 4.19708C5.21853 4.53124 5.84563 5.02045 6.34275 5.62876C8.02729 8.34043 8.31489 11.3808 8.31489 27.1988C8.31489 44.0029 7.94512 48.1115 6.34275 50.2069C5.94717 50.7456 5.43502 51.188 4.84453 51.501C4.25403 51.814 3.60046 51.9896 2.9326 52.0147C0.426336 52.4666 0.426336 52.4255 0.426336 53.5349C0.287738 53.9058 0.287738 54.3143 0.426336 54.6853H28.2417C28.4258 54.3224 28.5217 53.9212 28.5217 53.5143C28.5217 53.1074 28.4258 52.7062 28.2417 52.3434C27.568 52.1559 26.8814 52.0186 26.1874 51.9325C25.4367 51.8432 24.6946 51.6921 23.9687 51.4806C22.9293 50.7217 22.1059 49.7048 21.5799 48.5303C21.0539 47.3558 20.8435 46.0643 20.9694 44.7836C20.5586 42.0719 20.3532 37.1005 20.3532 32.9919V29.7462H21.9966C24.0442 29.6835 26.0905 29.9047 28.0774 30.4035C29.0292 30.9917 29.8394 31.7828 30.4502 32.7203C31.061 33.6578 31.4573 34.7185 31.6108 35.8269L31.9806 37.1005H34.4868V18.8995H32.186L31.8162 20.6662C31.6606 21.7996 31.2413 22.8807 30.592 23.8226C29.9426 24.7645 29.0813 25.541 28.0774 26.0895C27.1051 26.3789 26.0807 26.449 25.0781 26.2949H20.3532V21.8577C20.3532 17.2561 20.5997 7.5598 20.764 6.03962L20.9694 5.2179ZM213.253 37.799C211.311 34.6732 208.282 32.3758 204.748 31.3485C202.039 30.5017 199.535 29.1028 197.394 27.2399C196.912 26.7739 196.551 26.197 196.344 25.5596C196.136 24.9222 196.087 24.2437 196.202 23.5833C196.205 22.2878 196.723 21.0465 197.64 20.1321C198.262 19.4807 199.049 19.0105 199.918 18.7717C200.786 18.5329 201.703 18.5345 202.571 18.7762C204.367 19.2881 205.991 20.2763 207.271 21.6361C208.551 22.9959 209.44 24.6767 209.843 26.5004C210.5 28.3492 210.582 28.3492 211.774 27.8562L212.513 27.5686V17.3382L211.979 17.0917C207.934 15.6711 203.644 15.0841 199.366 15.3661C195.682 15.4594 192.165 16.9246 189.505 19.4747C188.299 20.6041 187.354 21.9836 186.736 23.5165C186.119 25.0495 185.844 26.6989 185.931 28.3492C185.954 30.8724 186.955 33.2881 188.724 35.0873C190.68 37.0101 193.079 38.4213 195.709 39.1959C202.077 41.7021 203.926 43.3045 203.926 46.2216C203.954 47.4517 203.562 48.6546 202.815 49.6327C202.069 50.6107 201.012 51.3058 199.818 51.6038C198.383 51.919 196.897 51.919 195.463 51.6038C193.584 50.8748 191.907 49.7078 190.571 48.2C189.235 46.6921 188.278 44.887 187.779 42.9347L187.245 41.62H186.506C186.152 41.6462 185.806 41.7295 185.479 41.8665H185.068V53.5349H185.766C188.542 54.4582 191.406 55.0916 194.312 55.4248H198.421C200.203 55.5556 201.994 55.3889 203.721 54.9318C205.914 54.5272 207.962 53.5558 209.663 52.1143C211.364 50.6727 212.659 48.8112 213.417 46.7146C213.908 45.5436 214.159 44.2864 214.157 43.0169C214.319 41.2284 214.007 39.4288 213.253 37.799ZM174.55 16.5576C172.088 15.5239 169.435 15.0225 166.765 15.0862C164.096 15.1499 161.47 15.7774 159.06 16.9274C156.795 18.0354 154.787 19.6061 153.167 21.5381C151.546 23.47 150.349 25.7204 149.651 28.1438C148.763 30.7875 148.386 33.5763 148.542 36.361C148.513 37.8761 148.637 39.3903 148.912 40.8804C149.575 44.5445 151.344 47.9177 153.981 50.5471C156.618 53.1764 159.996 54.9359 163.662 55.5891C166.049 55.8899 168.465 55.8899 170.852 55.5891C173.329 55.1525 175.7 54.246 177.837 52.9186C179.604 51.9278 181.1 50.5166 182.192 48.81C182.122 48.5422 181.998 48.2913 181.829 48.0725C181.659 47.8536 181.447 47.6712 181.206 47.5363C180.737 47.7061 180.294 47.9413 179.891 48.2348C177.847 49.5816 175.434 50.2567 172.988 50.1658C171.365 50.2756 169.738 50.0228 168.224 49.4259C166.71 48.829 165.349 47.9029 164.237 46.7146C163.377 45.916 162.668 44.9698 162.142 43.9208C160.865 41.3666 160.177 38.5587 160.128 35.7036V34.1012H182.89V33.2795C182.94 32.4586 182.94 31.6353 182.89 30.8144C182.882 27.9133 182.106 25.0661 180.641 22.5621C179.176 20.058 177.075 17.9864 174.55 16.5576ZM163.087 30.7733H160.211V28.3492C161.156 22.1453 163.498 18.4475 166.374 18.4475C169.25 18.4475 170.482 22.1042 171.016 28.8012V30.6911H168.551L163.087 30.7733ZM104.005 15.2018C102.585 15.1467 101.174 15.4431 99.8961 16.0646C97.1192 17.4131 94.8763 19.656 93.5277 22.4329L92.9936 23.4189V15.2018H92.7882C92.2951 15.2018 77.0932 18.2421 76.6002 18.4475C76.1072 18.653 76.2715 18.6941 76.2715 19.4336C76.2715 20.1731 76.2715 20.2964 76.6002 20.3375L78.2026 20.6662C78.6513 20.6772 79.0917 20.7902 79.4904 20.9966C79.889 21.2031 80.2354 21.4975 80.5034 21.8577C81.5305 23.2135 81.736 25.5965 81.736 35.7447C81.9389 40.3133 81.7465 44.8908 81.1608 49.4263C81.0229 50.1101 80.6761 50.7344 80.1683 51.2127C79.6605 51.6911 79.0167 52 78.3258 52.0968L76.9289 52.3845H76.3948V53.5349C76.2457 53.918 76.2457 54.3432 76.3948 54.7263H99.362V53.5349C99.4416 53.1417 99.4416 52.7365 99.362 52.3434C97.9791 52.2895 96.604 52.1107 95.2533 51.8092C94.5178 51.4245 93.9161 50.8261 93.5274 50.0927C93.1387 49.3592 92.9812 48.5253 93.0758 47.7007C92.7471 45.3177 92.5827 38.3331 92.6649 32.9919C92.7471 27.6508 92.6649 27.3221 93.1169 26.9523C94.4917 25.8982 96.193 25.3602 97.9239 25.4321C99.5555 25.4677 101.158 25.8752 102.608 26.6236C103.111 26.9028 103.65 27.1103 104.21 27.2399C104.21 27.2399 108.319 17.2971 108.319 16.8452C107.793 16.2342 107.123 15.764 106.37 15.477C105.617 15.1901 104.804 15.0955 104.005 15.2018ZM76.3126 32.4578C76.1692 29.5218 75.3263 26.6626 73.854 24.1184C72.3818 21.5742 70.3229 19.4186 67.8488 17.8313C64.9087 16.2451 61.6376 15.3706 58.2982 15.2778C54.9588 15.185 51.6441 15.8767 48.6205 17.2971C44.3454 19.5514 41.1176 23.3835 39.6226 27.9795C38.0784 33.1251 38.0784 38.6108 39.6226 43.7564C40.4321 46.5686 41.9451 49.1281 44.0188 51.193C46.6015 53.713 49.9317 55.3276 53.5097 55.7946C55.8066 55.9866 58.1154 55.9866 60.4122 55.7946C61.2574 55.666 62.0943 55.4876 62.9185 55.2605C66.2627 54.325 69.2714 52.4564 71.5925 49.8734C73.9136 47.2904 75.451 44.0998 76.025 40.675C76.4352 37.956 76.5317 35.1988 76.3126 32.4578ZM59.2207 53.0007C55.1121 54.2333 52.0306 50.248 51.0035 41.8665C50.6263 37.4784 50.6263 33.066 51.0035 28.6779C51.8252 21.9398 53.9206 18.5297 57.1664 18.5297C57.8213 18.4891 58.4763 18.606 59.0767 18.8704C59.6772 19.1349 60.2056 19.5394 60.6176 20.0499C63.3704 22.8026 64.7263 28.2671 64.7263 36.4842C65.0681 41.1347 64.3372 45.8015 62.5898 50.1247C61.8182 51.3856 60.6244 52.3319 59.2207 52.7953V53.0007ZM133.176 16.0235C132.017 15.8743 130.843 15.8743 129.684 16.0235C127.458 16.0216 125.258 16.498 123.233 17.4204L121.959 17.9545V9.03889C122.182 6.03004 122.182 3.00885 121.959 0C121.466 0 105.771 2.99927 105.525 3.12252C105.404 3.42586 105.404 3.76416 105.525 4.0675C105.525 4.9303 105.525 4.88922 107.374 5.30007C107.893 5.41649 108.392 5.6104 108.853 5.87528C109.655 6.62944 110.189 7.62487 110.373 8.7102C110.841 11.8369 110.992 15.0028 110.825 18.1599V54.2333L111.934 54.4798C113.578 54.8496 118.221 55.6302 119.741 55.7946C122.776 56.036 125.826 56.036 128.862 55.7946C132.231 55.4504 135.443 54.1934 138.151 52.159C140.858 50.1245 142.96 47.3898 144.228 44.2495C144.984 42.2339 145.508 40.1387 145.789 38.0044C146.034 35.1134 145.937 32.2037 145.502 29.3353C145.061 26.12 143.642 23.1181 141.437 20.7367C139.232 18.3554 136.348 16.7099 133.176 16.0235ZM122.411 52.3023C122.411 51.7682 122 33.7726 122.083 26.5825V20.9538L123.274 20.6662C124.078 20.551 124.894 20.551 125.698 20.6662C126.587 20.5758 127.482 20.7777 128.246 21.2414C129.78 22.3003 131.054 23.6935 131.972 25.3161C132.89 26.9387 133.428 28.7484 133.546 30.609C133.845 33.6008 133.845 36.615 133.546 39.6068C133.3 43.9551 131.624 48.1004 128.78 51.3984C127.972 52.1653 126.958 52.6794 125.863 52.8775C125.033 53.0217 124.186 53.0217 123.356 52.8775C122.576 52.8775 122.576 52.631 122.576 52.3023H122.411Z" fill="black"/>
</g>
<defs>
<clipPath id="clip0_58_1541">
<rect width="213.813" height="56" fill="white" transform="translate(0.385254)"/>
</clipPath>
</defs>
</svg>
