<svg width="181" height="56" viewBox="0 0 181 56" fill="none" xmlns="http://www.w3.org/2000/svg">
<path fill-rule="evenodd" clip-rule="evenodd" d="M14.722 56H18.915V33.6H14.722V56ZM30.0923 55.664H33.8478V41.531L49.6555 56V33.936H45.9105V47.8275L30.0923 33.6V55.664ZM58.2288 50.239C60.2728 51.8315 62.7262 52.752 65.3565 52.752C67.9185 52.752 69.7158 51.87 69.7158 49.9223C69.7158 48.2248 68.5695 47.5598 66.5622 46.816L63.3125 45.6873C60.3165 44.6233 58.038 43.0692 58.038 39.4975C58.038 35.6772 61.4872 33.6 65.612 33.6C68.139 33.6 70.442 34.2352 72.241 35.3605V39.1493C70.3703 37.7668 68.3228 36.8148 65.6925 36.8148C63.428 36.8148 61.7357 37.66 61.7357 39.4223C61.7357 41.0148 62.798 41.6517 64.6688 42.2922L68.2895 43.5627C71.7983 44.7965 73.4083 46.7093 73.4083 49.8558C73.4083 53.8143 69.9257 56 65.3565 56C62.3535 56 59.8003 55.16 58.2288 54.0995V50.239ZM83.1908 56H87.382V33.6H83.1908V56ZM107.045 52.6102C111.77 52.6102 114.295 49.5793 114.295 44.7948C114.295 39.9753 111.768 36.9548 107.045 36.9548H102.372V52.6102H107.045ZM98.5575 33.6H107.185C113.826 33.6 118.121 37.975 118.121 44.7948C118.121 51.6198 113.826 56 107.185 56H98.5575V33.6ZM139.082 33.6V36.9548H128.938V42.3448H138.036V45.661H128.936V52.6102H139.082V56H125.108V33.6H139.082ZM153.961 43.743H158.121C160.583 43.743 161.97 42.392 161.97 40.3148C161.97 38.2375 160.583 36.8847 158.121 36.8847H153.961V43.743ZM153.961 46.9105V56H150.259V33.6H158.191C162.713 33.6 165.639 35.9293 165.639 40.3148C165.639 44.065 164.015 46.2192 160.555 46.7722L168.425 56H164.214L156.595 46.9122H153.963L153.961 46.9105ZM13.2572 11.5325C14.897 10.9323 16.1745 9.1315 16.1745 6.65525C16.1745 2.52875 13.2573 0.39025 8.59 0.39025H0.75V23.4255H9.318C13.9852 23.4255 16.9025 21.1365 16.9025 16.8227C16.9025 14.3832 15.3712 12.2448 13.2572 11.5325ZM4.432 10.0695V3.76775H8.555C11.145 3.76775 12.5292 4.70575 12.5292 6.881C12.5292 9.05625 11.1433 10.0695 8.555 10.0695H4.432ZM4.432 13.2965H9.2445C11.7995 13.2965 13.1838 14.5705 13.1838 16.6723C13.1838 18.7355 11.7977 20.0497 9.24625 20.0497H4.43375V13.2948L4.432 13.2965ZM34.0087 23.8C39.369 23.8 42.9793 20.573 42.9793 14.2712V0.39025H39.187V13.8197C39.187 18.2472 37.3635 20.3123 34.0087 20.3123C30.654 20.3123 28.8323 18.2472 28.8323 13.8197V0.39025H25.04V14.2328C25.04 20.573 28.6852 23.8 34.0087 23.8ZM51.9077 21.7735C53.4757 22.9005 56.029 23.8 59.018 23.8C63.5768 23.8 67.04 21.4725 67.04 17.2725C67.04 13.9335 65.437 11.907 61.9353 10.5945L58.3268 9.2435C56.4665 8.56975 55.4095 7.89425 55.4095 6.2055C55.4095 4.3295 57.086 3.43 59.347 3.43C61.972 3.43 64.0143 4.4415 65.8745 5.90625V1.89C64.0878 0.69125 61.79 0.01575 59.2735 0.01575C55.154 0.01575 51.7257 2.2295 51.7257 6.28075C51.7257 10.0695 53.9868 11.7198 56.9758 12.845L60.222 14.0455C62.2275 14.833 63.358 15.547 63.358 17.3478C63.358 19.411 61.5713 20.349 59.018 20.349C56.393 20.349 53.95 19.3725 51.9077 17.6855V21.7735ZM80.5903 0.39025H76.7998V23.4238H80.5903V0.39025ZM91.4088 23.3958H95.0628V8.4105L110.442 23.7527V0.35525H106.798V15.085L91.4088 0V23.3958ZM134.139 0.3955V3.84475H124.293V9.38875H133.122V12.7995H124.293V19.9448H134.139V23.4307H120.576V0.3955H134.139ZM142.967 21.7577C144.535 22.8847 147.087 23.7842 150.078 23.7842C154.635 23.7842 158.1 21.4585 158.1 17.2568C158.1 13.9178 156.495 11.893 152.995 10.5788L149.384 9.2295C147.524 8.554 146.467 7.8785 146.467 6.18975C146.467 4.31375 148.144 3.41425 150.405 3.41425C153.03 3.41425 155.072 4.4275 156.932 5.8905V1.876C155.146 0.6755 152.848 0 150.331 0C146.212 0 142.784 2.21375 142.784 6.265C142.784 10.0537 145.045 11.704 148.034 12.8292L151.28 14.0298C153.285 14.8173 154.416 15.5313 154.416 17.332C154.416 19.3953 152.631 20.3333 150.076 20.3333C147.451 20.3333 145.008 19.3585 142.967 17.6698V21.7577ZM165.868 21.7577C167.436 22.8847 169.989 23.7842 172.978 23.7842C177.537 23.7842 181 21.4585 181 17.2568C181 13.9178 179.395 11.893 175.895 10.5788L172.285 9.2295C170.426 8.554 169.368 7.8785 169.368 6.18975C169.368 4.31375 171.046 3.41425 173.305 3.41425C175.93 3.41425 177.974 4.4275 179.833 5.8905V1.876C178.048 0.6755 175.75 0 173.233 0C169.112 0 165.686 2.21375 165.686 6.265C165.686 10.0537 167.947 11.704 170.936 12.8292L174.182 14.0298C176.187 14.8173 177.318 15.5313 177.318 17.332C177.318 19.3953 175.531 20.3333 172.978 20.3333C170.353 20.3333 167.91 19.3585 165.868 17.6698V21.7577Z" fill="#111111"/>
</svg>
