<svg width="321" height="56" viewBox="0 0 321 56" fill="none" xmlns="http://www.w3.org/2000/svg">
<g clip-path="url(#clip0_58_1543)">
<path d="M306.554 20.2667L309.647 29.7601H303.034L306.767 20.2667H306.554ZM292.421 40.1601H299.941L301.701 35.3067H311.194L312.954 40.1601H320.474L310.074 12.5334H302.767L292.421 40.1601ZM283.567 40.1601H291.087V12.5334H283.567V40.1601ZM259.247 30.6667C259.247 37.2801 264.527 40.1601 270.714 40.1601C276.474 40.1601 282.181 37.9734 282.181 31.3067C282.181 26.4534 278.181 24.6934 274.447 23.5734C270.234 22.4534 266.501 22.4534 266.501 20.2667C266.501 18.5067 268.687 18.0801 269.807 18.0801C271.994 18.0801 274.234 18.7201 274.234 21.1734H280.847C280.847 15.2001 275.567 12.3201 270.234 12.3201C265.167 12.3201 259.194 14.5067 259.194 20.6934C259.194 25.5467 263.621 27.3067 267.141 28.2134C271.141 29.3334 274.874 29.7601 274.874 32.2134C274.874 34.4001 272.687 34.8801 270.447 34.8801C267.567 34.8801 265.594 33.7601 265.594 30.4534H258.981L259.247 30.6667ZM246.661 20.2667L249.754 29.7601H243.141L246.874 20.2667H246.661ZM232.794 40.1601H240.101L241.861 35.3067H251.567L253.327 40.1601H260.847L250.447 12.5334H242.927L232.794 40.1601ZM208.474 40.1601H211.354V16.7467L227.461 40.1601H230.554V12.5334H227.887V35.7334L211.567 12.8001H208.474V40.1601ZM202.714 40.1601H205.381V12.5334H202.714V40.1601ZM175.354 40.1601H182.607V29.1201H192.101V40.1601H199.194V12.5334H192.101V22.4534H182.607V12.8001H175.301V40.1601H175.354ZM173.114 22.5067C173.114 16.3201 167.141 12.5867 161.434 12.5867C153.487 12.5867 148.207 18.7734 148.207 26.5067C148.207 34.0267 153.487 40.2134 161.434 40.2134C168.047 40.2134 173.114 36.2134 173.594 29.1734H166.981C166.554 32.4801 164.794 34.2401 161.434 34.2401C157.007 34.2401 155.247 30.2401 155.247 26.5067C155.247 22.5067 157.007 18.5601 161.434 18.5601C164.314 18.5601 166.501 19.8934 166.714 22.5601H173.327H173.114V22.5067ZM125.221 40.1601H147.727V33.9734H132.261V28.6934H145.967V23.1467H132.741V18.0801H147.301V12.8001H125.221V40.1601ZM122.981 12.5334H99.7806V18.7201H107.941V40.1601H115.247V18.7201H123.407V12.5334H122.981Z" fill="#E10000"/>
<path d="M56.2606 22.9334C56.9006 23.3601 57.594 22.9334 57.3806 22.0267L53.8606 15.8401H52.5273L30.4473 54.9334C29.5406 55.8401 28.2606 55.8401 27.7806 54.9334L20.2606 42.3467L19.834 40.5868V29.5467C19.834 28.4267 19.4073 27.7867 18.714 27.3601L1.06065 11.8934C-0.0593516 11.2534 0.420648 9.70676 1.96731 9.70676H33.5406L41.274 14.1334C41.7006 14.5601 41.7006 15.0401 41.274 15.2534L38.1806 21.0134C38.1806 21.4401 37.754 21.6534 37.5406 21.4401L31.354 18.1334L30.0206 17.7068H21.8073C21.1673 17.7068 20.9006 18.6134 21.3806 19.0401L26.9273 23.4668C27.5673 24.1068 27.834 25.0134 27.834 25.6534V40.2134C27.834 41.1201 28.954 41.3334 29.3806 40.6401L52.3673 0.906758C52.794 0.266758 54.554 0.266758 54.554 0.906758L78.1806 41.7601C79.3006 43.0934 77.754 44.4267 76.4206 43.9467L49.0073 27.8401C48.5806 27.8401 48.3673 27.2001 48.5806 26.9334L51.8873 21.3868C51.8873 20.9601 52.5273 20.9601 53.0073 20.9601L56.314 23.1467V22.9334H56.2606Z" fill="#E10000"/>
</g>
<defs>
<clipPath id="clip0_58_1543">
<rect width="320.533" height="56" fill="white" transform="translate(0.207275)"/>
</clipPath>
</defs>
</svg>
