<svg width="230" height="56" viewBox="0 0 230 56" fill="none" xmlns="http://www.w3.org/2000/svg">
<path d="M55.6063 0H86.0226C91.3687 0 96.503 2.05291 100.372 5.72227L100.768 6.1076L112.046 17.377C115.827 21.1573 118.014 26.2395 118.156 31.5695L118.163 32.1217V55.6063H97.311V35.0008C97.311 33.2802 96.6648 31.6253 95.5187 30.3526L95.2655 30.0858L88.0632 22.8881C86.8465 21.6715 85.2213 20.9525 83.5111 20.8621L83.1434 20.8524H76.4587V55.6063H55.6063V0ZM145.967 0V34.7539H152.651C154.372 34.7539 156.026 34.1161 157.299 32.9711L157.566 32.718L164.773 25.5203C165.99 24.3037 166.717 22.6825 166.809 20.973L166.819 20.6055V0H187.671V23.4844C187.671 27.3125 186.603 31.0257 184.654 34.2491L184.339 34.7539H194.356C196.076 34.7539 197.731 34.1161 199.004 32.9711L199.271 32.718L206.478 25.5203C207.695 24.3037 208.422 22.6825 208.514 20.973L208.524 20.6055V0H229.376V23.4844C229.376 28.8305 227.314 33.9648 223.644 37.8335L223.259 38.2291L211.985 49.4987C208.205 53.279 203.118 55.4579 197.787 55.599L197.235 55.6063H177.245V42.5367L170.28 49.4987C166.5 53.279 161.413 55.4579 156.083 55.599L155.53 55.6063H125.114V0H145.967ZM48.6555 0V20.8524H34.7539V55.6063H13.9016V20.8524H0V0H48.6555Z" fill="#FF4422"/>
</svg>
