<svg width="222" height="180" viewBox="0 0 222 180" fill="none" xmlns="http://www.w3.org/2000/svg">
<path d="M146.625 82.8917C146.625 96.1092 142.363 108.33 135.132 118.261C135.132 118.261 135.132 118.268 135.125 118.268C124.184 133.288 106.464 143.056 86.4607 143.056C53.2331 143.056 26.3032 116.119 26.3032 82.8988C26.3032 63.0018 35.9584 45.3666 50.844 34.4109C60.8172 27.0741 73.1371 22.7343 86.4677 22.7343C88.1146 22.7343 89.7545 22.7979 91.3731 22.9322C100.958 23.7026 109.906 26.7207 117.695 31.4635C123.873 35.2167 129.315 40.0513 133.761 45.7059C135.104 47.4164 136.362 49.1976 137.514 51.0424C143.282 60.2805 146.625 71.2009 146.625 82.8917Z" fill="#EBEBEB"/>
<path d="M99.4517 111.292C98.6954 113.313 99.9606 113.398 100.038 114.239C100.123 115.08 100.038 116.685 97.5928 119.123C95.1472 121.569 91.1042 121.06 90.2631 122.071C89.422 123.081 87.9871 127.379 85.9656 128.814C83.9441 130.249 83.6048 129.4 80.7422 129.994C77.8796 130.581 75.6885 134.292 74.8473 136.059C74.0062 137.826 75.017 140.78 72.9954 140.858C70.9739 140.943 70.048 136.561 68.1962 134.2C66.3443 131.839 65.7506 129.733 65.1639 126.955C64.5772 124.177 65.5032 118.36 65.1639 116.084C64.8246 113.808 58.7601 109.765 56.569 106.987C54.3778 104.209 51.3456 98.6467 51.5152 96.7948C51.6848 94.9429 53.0349 92.9214 54.0456 92.1581C55.0564 91.4018 54.6323 90.9777 54.8019 90.3062C54.9715 89.6347 55.8127 89.4651 55.9823 88.624C56.1519 87.7829 55.4734 85.2524 54.6323 84.8354C53.7912 84.4113 53.1974 85.8462 52.6956 85.5917C52.1867 85.3373 50.6741 83.5702 50.0804 83.4006C49.4937 83.2309 49.6563 84.4961 48.8151 82.8917C47.974 81.2942 47.5499 77.2442 46.8785 76.5727C46.207 75.9012 45.6981 77.7531 44.1007 76.5727C42.5032 75.3923 41.8247 73.1163 41.1532 72.7841C40.4817 72.4449 39.5558 72.8689 38.8631 71.5189C38.1704 70.1689 39.471 67.7304 38.8631 67.9778C38.2553 68.2322 36.9406 70.1689 36.6084 68.317C36.2691 66.4652 38.2906 60.231 37.9584 56.8595C37.6191 53.4879 38.7995 49.9538 41.1603 47.0842C41.1603 47.0842 41.4995 45.2323 41.8318 44.0519C42.171 42.8715 49.4159 38.157 50.2571 36.807C50.6105 36.2415 50.7236 35.358 50.8508 34.4109C60.824 27.0741 73.1439 22.7342 86.4745 22.7342C88.1214 22.7342 89.7612 22.7978 91.3798 22.9321C91.4364 23.0099 91.4929 23.0805 91.5495 23.1583C92.2775 24.0842 93.0692 24.6779 95.2038 25.4625C97.3383 26.2471 97.8402 27.2578 97.3949 28.099C96.9425 28.9401 96.2145 29.1097 95.3734 29.1663C94.5323 29.2228 93.7406 28.7704 92.843 29.3359C91.9453 29.8943 91.0477 32.9336 89.8673 33.0962C88.6869 33.2658 86.6088 30.4032 86.1565 29.555C85.7041 28.7139 87.1672 26.9115 86.4816 26.0704C85.7889 25.2293 84.5873 25.3989 82.6789 25.2293C80.7705 25.0596 76.3317 25.7947 76.5013 26.5227C76.6709 27.2508 83.0182 26.4097 83.1878 27.8728C83.3574 29.3359 78.5299 31.8027 77.6817 31.5836C76.8406 31.3574 75.7167 29.9014 74.4798 29.7317C73.2428 29.5621 72.2321 30.5728 71.4546 30.6859C70.6771 30.799 69.7582 29.8448 68.5778 30.071C67.3974 30.2972 67.1147 31.3079 66.4998 31.7037C65.8848 32.0996 64.4217 32.0996 64.2521 32.9972C64.0825 33.8949 66.104 34.4038 66.6129 34.9622C67.1218 35.5206 65.9909 37.4361 66.4998 37.8248C67.0087 38.2206 70.1541 35.464 70.9386 34.7926C71.7232 34.1211 72.3947 31.1948 74.084 31.2514C75.7662 31.3079 76.3316 34.1705 76.89 34.4533C77.4484 34.736 78.6854 33.7818 80.5443 34.1705C82.3962 34.5664 83.6897 38.6094 84.0289 39.8463C84.3682 41.0832 85.1528 42.3202 84.4813 42.822C83.8098 43.3309 80.7705 42.4827 80.3817 41.6982C79.9859 40.9136 82.4032 39.7332 82.2336 39.4505C82.064 39.1678 80.6574 38.779 79.9294 39.2172C79.2013 39.6555 78.8621 40.5743 78.0775 40.8005C77.2929 41.0267 75.2149 38.6659 74.6494 39.3374C74.084 40.0089 75.2078 42.1435 75.7733 42.6524C76.3387 43.1613 78.4168 43.437 78.5793 44.0024C78.749 44.5608 77.1728 45.7977 75.2644 45.6846C73.3559 45.5716 71.7797 44.1084 71.0517 44.7304C70.3237 45.3454 70.7124 46.9781 70.2106 47.5365C69.7017 48.0949 66.9521 47.7061 65.6021 49.1622C64.2521 50.6253 63.6372 52.8165 62.2871 54.0463C60.9371 55.2833 60.3222 53.7071 58.5268 55.4529C56.7315 57.1917 56.4488 61.0721 56.3923 62.4151C56.3357 63.7651 56.3922 64.8324 55.947 64.6628C55.4946 64.4931 54.8797 63.3127 54.71 62.5847C54.5404 61.8567 55.1058 60.6198 55.1058 60.1674C55.1058 59.715 52.5189 57.4108 51.0063 57.1917C49.4866 56.9655 48.1437 58.2024 47.0198 59.1001C45.896 59.9978 43.8745 59.8281 43.1464 60.5632C42.4184 61.2912 41.853 67.7516 42.4184 69.2712C42.9839 70.7909 43.7119 70.7909 45.5072 69.9993C47.3025 69.2147 46.2918 67.695 47.3591 68.0343C48.4264 68.3736 48.9848 69.4974 48.9848 70.3951C48.9848 71.2927 46.8502 73.4273 47.1329 74.0493C47.4156 74.6713 49.2675 73.9362 50.1652 74.219C51.0628 74.5017 51.5152 75.0601 51.2325 77.3643C50.9497 79.6686 51.1194 81.4639 52.4694 82.2202C53.8194 82.9765 54.5757 81.1246 55.1624 81.3791C55.7491 81.6335 56.5972 82.9835 57.4384 82.8987C58.2795 82.8139 57.8624 82.0576 59.4598 81.5487C61.0573 81.0398 60.4706 80.7076 60.8099 79.6968C61.1492 78.6861 62.1599 77.845 63.2555 78.3468C64.351 78.8557 63.5947 79.612 63.6796 80.4531C63.7644 81.2942 65.7011 81.3791 67.2207 81.888C68.7404 82.3969 69.5815 81.888 72.6138 82.8987C75.646 83.9095 75.8157 86.9417 77.0809 87.4507C78.3461 87.9596 82.5587 87.1114 85.591 89.3025C88.6232 91.4937 87.7821 95.5367 89.3018 96.7171C90.8215 97.8975 96.4619 99.4949 98.653 99.919C100.844 100.343 101.183 98.8234 102.95 99.2475C104.718 99.6716 105.728 100.173 106.322 102.619C106.796 104.761 100.208 109.27 99.4517 111.292Z" fill="#DBDBDB"/>
<path d="M54.1797 68.2039C54.2363 68.6775 55.6429 68.8754 57.3251 69.8296C59.0073 70.7838 59.6293 73.5899 60.527 73.5404C61.4246 73.4839 61.1419 72.1904 61.4812 71.8582C61.8205 71.5189 62.3789 70.7909 61.4812 70.0629C60.5835 69.3349 59.7071 67.7587 58.0672 67.5325C56.4274 67.3063 56.1447 66.6348 55.4167 66.6914C54.6816 66.7479 54.0666 67.2497 54.1797 68.2039Z" fill="#DBDBDB"/>
<path d="M63.4462 72.9255C63.1988 73.6111 63.4462 74.1059 65.2415 74.5512C67.0368 75.0035 68.7261 74.0988 68.1606 73.7383C67.6023 73.3708 66.7541 73.5404 67.0934 72.9255C67.4326 72.3105 67.3125 71.4058 65.8564 71.5754C64.4004 71.7451 63.6724 72.3035 63.4462 72.9255Z" fill="#DBDBDB"/>
<path d="M69.7371 73.1163C69.1222 73.2082 68.7829 74.2755 69.3978 74.9469C70.0127 75.6184 70.0127 75.5053 70.7478 74.9469C71.4759 74.3886 72.5997 74.1058 72.3241 73.5404C72.0413 72.982 70.3591 73.0244 69.7371 73.1163Z" fill="#DBDBDB"/>
<path d="M74.6279 75.4134C74.9035 74.5723 76.3101 75.3993 76.9321 76.297C77.547 77.1946 77.2714 78.4881 76.9321 79.4423C76.5928 80.3965 76.3737 81.5204 75.5821 81.068C74.7975 80.6156 75.6386 79.2727 75.5255 78.4811C75.4124 77.6965 74.4017 76.0991 74.6279 75.4134Z" fill="#DBDBDB"/>
<path d="M98.8365 28.5513C98.5396 29.2581 99.9038 29.5055 100.688 29.9578C101.473 30.4102 102.095 30.6859 102.54 29.9578C102.993 29.2298 102.371 28.3816 101.756 28.2191C101.141 28.0424 99.1121 27.8727 98.8365 28.5513Z" fill="#DBDBDB"/>
<path d="M109.453 35.1177C109.969 35.662 110.86 35.5701 111.475 36.3547C112.09 37.1392 111.871 38.4893 112.655 38.8851C113.44 39.2809 114.005 38.8851 114.062 38.3267C114.118 37.7683 112.938 36.3617 113.051 36.079C113.164 35.7963 114.677 36.4748 115.016 37.3159C115.355 38.1571 114.677 39.3375 115.468 39.5636C116.253 39.7898 116.083 38.7791 116.423 38.5529C116.762 38.3267 117.49 38.4398 117.433 37.7683C117.377 37.0968 116.479 35.6337 115.751 35.1248C115.023 34.6159 114.458 34.0575 113.221 33.7748C111.984 33.492 110.803 33.7182 110.188 34.2271C109.566 34.729 109.135 34.7855 109.453 35.1177Z" fill="#DBDBDB"/>
<path d="M133.755 45.7058C133.684 45.9885 133.585 46.1935 133.436 46.2996C132.256 47.1407 130.849 44.2215 129.224 43.6631C127.591 43.0977 126.863 41.0196 126.531 41.472C126.192 41.9173 126.305 42.5393 125.803 43.2673C125.294 43.9953 124.566 43.8327 124.234 45.2323C123.894 46.6388 125.803 49.2187 125.357 50.0669C124.905 50.908 124.347 50.6253 123.449 50.5758C122.551 50.5193 122.721 51.3038 121.541 50.9716C120.36 50.6324 121.371 49.1763 119.519 47.4305C117.667 45.6917 117.045 45.3524 117.441 44.5678C117.837 43.7833 117.271 42.6594 118.113 42.5463C118.954 42.4332 119.632 43.6702 120.191 44.0095C120.749 44.3487 121.484 43.338 121.541 42.4333C121.597 41.5356 119.576 40.2986 118.848 39.5989C118.12 38.8991 118.063 36.3617 118.339 35.8598C118.614 35.358 119.463 35.5205 119.689 34.2907C119.823 33.5627 118.671 32.354 117.703 31.4775C123.859 35.2166 129.302 40.0513 133.755 45.7058Z" fill="#DBDBDB"/>
<path d="M142.143 96.0667C142.313 94.2714 141.415 94.1583 142.313 90.8434C143.211 87.5284 141.359 83.9872 140.687 83.2592C140.016 82.5311 138.553 82.7503 137.372 83.4854C136.192 84.2134 137.033 84.7788 136.249 85.0545C135.464 85.3372 134.679 84.8849 133.944 84.9414C133.216 84.9979 132.538 86.8498 130.969 86.7933C129.399 86.7367 128.389 84.489 127.208 82.8916C126.028 81.2942 123.611 80.2764 122.826 78.3114C122.041 76.3465 123.554 73.3142 123.222 71.01C122.883 68.7057 121.37 69.2147 121.087 67.9212C120.805 66.6277 121.313 67.2497 121.709 66.0128C122.105 64.7758 121.257 64.1043 122.049 61.9697C122.833 59.8351 124.24 58.7678 123.9 57.8136C123.561 56.8594 122.494 55.2832 122.437 54.1664C122.381 53.0497 123.505 53.0992 125.639 51.5229C127.774 49.9538 128.332 50.0669 129.965 50.6253C131.598 51.1837 132.608 51.4664 133.563 51.636C134.517 51.8057 135.81 54.2795 136.206 54.1664C136.602 54.0534 136.658 53.3253 136.828 52.258C136.899 51.8057 137.203 51.3816 137.528 51.0494C143.303 60.2875 146.639 71.2008 146.639 82.8987C146.639 96.1162 142.377 108.337 135.146 118.268C140.864 109.518 141.974 97.8621 142.143 96.0667Z" fill="#DBDBDB"/>
<path d="M50.2917 48.5826C50.2917 48.5826 50.525 48.5119 50.9632 48.3847" stroke="#C7C7C7" stroke-width="0.75" stroke-miterlimit="10"/>
<path d="M52.3413 48.003C62.0459 45.4514 103.946 36.3687 130.035 61.8567" stroke="#C7C7C7" stroke-width="0.75" stroke-miterlimit="10" stroke-dasharray="2.03 2.03"/>
<path d="M130.544 62.3656C130.714 62.5352 130.877 62.6978 131.039 62.8674" stroke="#C7C7C7" stroke-width="0.75" stroke-miterlimit="10"/>
<path d="M64.0039 84.9344C63.9685 84.8001 63.9615 84.5598 63.9685 84.2346" stroke="#C7C7C7" stroke-width="0.75" stroke-miterlimit="10"/>
<path d="M64.0462 82.8704C64.442 76.813 65.6931 59.6726 51.4365 49.3742" stroke="#C7C7C7" stroke-width="0.75" stroke-miterlimit="10" stroke-dasharray="1.93 1.93"/>
<path d="M50.8784 48.9784C50.6876 48.8441 50.4897 48.7098 50.2917 48.5826" stroke="#C7C7C7" stroke-width="0.75" stroke-miterlimit="10"/>
<path d="M64.6614 82.8916C64.6614 82.8916 64.8239 82.7078 65.1491 82.3827" stroke="#C7C7C7" stroke-width="0.75" stroke-miterlimit="10"/>
<path d="M66.1743 81.386C71.9632 75.9435 94.1644 57.8842 129.626 62.6694" stroke="#C7C7C7" stroke-width="0.75" stroke-miterlimit="10" stroke-dasharray="2.03 2.03"/>
<path d="M130.346 62.7613C130.579 62.7966 130.813 62.832 131.046 62.8673" stroke="#C7C7C7" stroke-width="0.75" stroke-miterlimit="10"/>
<path d="M84.5017 92.8296C84.5017 92.8296 84.5441 92.5822 84.5936 92.1298" stroke="#C7C7C7" stroke-width="0.75" stroke-miterlimit="10"/>
<path d="M84.714 90.7514C85.1522 83.4641 84.0849 59.0223 51.6418 48.9854" stroke="#C7C7C7" stroke-width="0.75" stroke-miterlimit="10" stroke-dasharray="1.97 1.97"/>
<path d="M50.9703 48.7805C50.7441 48.7098 50.5179 48.6462 50.2917 48.5826" stroke="#C7C7C7" stroke-width="0.75" stroke-miterlimit="10"/>
<path d="M131.046 62.8674C131.046 62.8674 130.806 62.9098 130.36 63.0158" stroke="#C7C7C7" stroke-width="0.75" stroke-miterlimit="10"/>
<path d="M128.975 63.3622C119.885 65.7795 83.59 78.1983 76.4087 123.633" stroke="#C7C7C7" stroke-width="0.75" stroke-miterlimit="10" stroke-dasharray="2.01 2.01"/>
<path d="M76.3028 124.34C76.2675 124.573 76.2321 124.806 76.1968 125.039" stroke="#C7C7C7" stroke-width="0.75" stroke-miterlimit="10"/>
<path d="M64.0044 84.9343C64.0044 84.9343 82.3605 102.923 76.197 125.039" stroke="#C7C7C7" stroke-width="0.75" stroke-miterlimit="10" stroke-dasharray="2 2"/>
<path d="M54.0598 42.2919C53.869 40.4047 52.5755 38.5316 50.2854 38.5316C48.0024 38.5316 46.7018 40.4118 46.518 42.2919C46.2282 45.204 48.1932 47.8404 50.2854 50.2436C52.3846 47.8404 54.3496 45.204 54.0598 42.2919ZM50.2924 44.3841C49.1545 44.3841 48.2285 43.4582 48.2285 42.3202C48.2285 41.1822 49.1545 40.2563 50.2924 40.2563C51.4375 40.2563 52.3634 41.1822 52.3634 42.3202C52.3634 43.4582 51.4304 44.3841 50.2924 44.3841Z" fill="#A6A6A6"/>
<path d="M87.5701 86.3338C87.3792 84.4466 86.0857 82.5735 83.7956 82.5735C81.5126 82.5735 80.2121 84.4537 80.0283 86.3338C79.7385 89.2459 81.7034 91.8823 83.7956 94.2855C85.8949 91.8823 87.8599 89.2459 87.5701 86.3338ZM83.7956 88.426C82.6576 88.426 81.7317 87.5001 81.7317 86.3621C81.7317 85.2241 82.6576 84.2982 83.7956 84.2982C84.9407 84.2982 85.8666 85.2241 85.8666 86.3621C85.8666 87.5001 84.9407 88.426 83.7956 88.426Z" fill="#A6A6A6"/>
<path d="M67.136 78.1488C66.9451 76.2616 65.6517 74.3885 63.3616 74.3885C61.0785 74.3885 59.778 76.2687 59.5942 78.1488C59.3044 81.0609 61.2694 83.6974 63.3616 86.1006C65.4608 83.6974 67.4258 81.0609 67.136 78.1488ZM63.3616 80.241C62.2236 80.241 61.2976 79.3151 61.2976 78.1771C61.2976 77.0391 62.2236 76.1132 63.3616 76.1132C64.5066 76.1132 65.4325 77.0391 65.4325 78.1771C65.4325 79.3151 64.5066 80.241 63.3616 80.241Z" fill="#A6A6A6"/>
<path d="M134.814 57.2129C134.623 55.3256 133.33 53.4526 131.04 53.4526C128.757 53.4526 127.456 55.3327 127.272 57.2129C126.982 60.125 128.947 62.7614 131.04 65.1646C133.139 62.7614 135.104 60.125 134.814 57.2129ZM131.047 59.305C129.909 59.305 128.983 58.3791 128.983 57.2411C128.983 56.1032 129.909 55.1772 131.047 55.1772C132.192 55.1772 133.118 56.1032 133.118 57.2411C133.118 58.3791 132.185 59.305 131.047 59.305Z" fill="#A6A6A6"/>
<path d="M79.9722 120.148C79.7813 118.261 78.4878 116.388 76.1977 116.388C73.9147 116.388 72.6142 118.268 72.4304 120.148C72.1406 123.06 74.1055 125.697 76.1977 128.1C78.297 125.697 80.262 123.053 79.9722 120.148ZM76.1977 122.24C75.0597 122.24 74.1338 121.314 74.1338 120.176C74.1338 119.038 75.0597 118.113 76.1977 118.113C77.3428 118.113 78.2687 119.038 78.2687 120.176C78.2687 121.314 77.3428 122.24 76.1977 122.24Z" fill="#A6A6A6"/>
<path d="M94.9697 70.41L91.6889 143.239H31.9873L38.1648 113.68L58.0614 107.401C59.1001 107.036 59.9311 106.225 60.3192 105.186L72.2156 74.6355L94.9697 70.41Z" fill="#E24949"/>
<path d="M88.3967 78.077L86.9072 104.351L65.3604 106.37L74.6423 79.0374L88.3967 78.077Z" fill="#455A64"/>
<g opacity="0.3">
<path opacity="0.3" d="M87.5811 92.4704L87.24 98.4637L80.7803 104.923L74.5401 105.511L87.5811 92.4704Z" fill="white"/>
<path opacity="0.3" d="M83.9905 78.3868L70.1695 92.2039L71.6237 87.9196L80.9488 78.5945L83.9905 78.3868Z" fill="white"/>
<path opacity="0.3" d="M88.2202 81.1659L88.181 81.891L66.2109 103.861L66.5676 102.819L88.2202 81.1659Z" fill="white"/>
<path opacity="0.3" d="M87.1145 100.674L87.0714 101.403L83.8376 104.637L83.0811 104.708L87.1145 100.674Z" fill="white"/>
</g>
<path d="M88.3967 78.077L74.6423 79.0374L65.3604 106.37L66.8029 106.233L75.5752 80.3936L88.3301 79.2255L88.3967 78.077Z" fill="#263238"/>
<path d="M38.3651 93.8027C38.3398 93.765 38.2988 93.7391 38.2498 93.7351C37.9487 93.7124 37.644 93.6825 37.3442 93.6458C37.2603 93.6355 37.1844 93.6958 37.1736 93.779C37.1633 93.8629 37.2228 93.9394 37.3067 93.9497C37.6106 93.9872 37.9202 94.0173 38.2263 94.0403C38.3102 94.047 38.384 93.9835 38.3907 93.8995C38.3936 93.8631 38.3832 93.8298 38.3651 93.8027Z" fill="#2E2E46"/>
<path d="M83.4449 38.4917C83.3983 38.422 83.3047 38.4028 83.2345 38.4485C83.1635 38.4949 83.144 38.5898 83.1906 38.6595C83.5173 39.1585 83.8442 39.6754 84.1611 40.1953C84.2025 40.266 84.2994 40.2902 84.3707 40.2461C84.4433 40.2022 84.4656 40.1078 84.4215 40.0365C84.1023 39.5134 83.7739 38.994 83.4454 38.4925L83.4449 38.4917ZM82.4208 36.9858C82.4202 36.985 82.4191 36.9833 82.4186 36.9825C82.0658 36.4818 81.7021 35.9861 81.3385 35.5081C81.2878 35.4412 81.1915 35.4285 81.1246 35.4792C81.0577 35.5299 81.0447 35.6276 81.0957 35.6931C81.4571 36.1678 81.8186 36.6603 82.1692 37.1577C82.2174 37.2262 82.3129 37.243 82.3823 37.1942C82.4492 37.1471 82.4663 37.0538 82.4208 36.9858ZM85.3415 41.6014C85.2971 41.535 85.2095 41.5141 85.1391 41.5541C85.0661 41.5958 85.0397 41.6894 85.0814 41.7623C85.3771 42.2823 85.6716 42.8183 85.9561 43.3552C85.9959 43.4306 86.0878 43.4581 86.1624 43.4188C86.237 43.3796 86.2653 43.2871 86.226 43.2125C85.9399 42.6732 85.6437 42.1347 85.3473 41.6118C85.3453 41.6071 85.3431 41.6039 85.3415 41.6014ZM80.212 34.0885C80.2092 34.0844 80.2065 34.0803 80.2024 34.0759C79.8122 33.6027 79.4113 33.1365 79.0108 32.6903C78.9544 32.6273 78.8573 32.6222 78.795 32.6781C78.732 32.7346 78.7275 32.8325 78.7828 32.8939C79.1803 33.3374 79.579 33.8002 79.9661 34.2708C80.0201 34.3355 80.1164 34.3446 80.1816 34.2915C80.2436 34.2405 80.2553 34.1532 80.212 34.0885ZM87.0499 44.8181C87.0077 44.755 86.9248 44.7321 86.8553 44.7667C86.7797 44.8043 86.7486 44.8962 86.7862 44.9719C87.0524 45.508 87.3169 46.0594 87.5721 46.6111C87.6075 46.6871 87.6989 46.7208 87.7748 46.6854C87.8516 46.6495 87.8846 46.5586 87.8492 46.4827C87.5923 45.9285 87.3261 45.3746 87.0597 44.8364C87.0575 44.8295 87.0537 44.8238 87.0499 44.8181ZM77.7792 31.3778C77.7743 31.3705 77.7679 31.3628 77.7608 31.3557C77.3316 30.9181 76.8914 30.4889 76.4516 30.0797C76.3897 30.0226 76.2932 30.0255 76.2361 30.0874C76.1791 30.1493 76.182 30.2459 76.2439 30.3029C76.6802 30.7086 77.1173 31.135 77.5429 31.5691C77.6021 31.6292 77.6992 31.6306 77.7593 31.5715C77.8122 31.5194 77.8192 31.4377 77.7792 31.3778ZM88.5836 48.1231C88.5436 48.0632 88.4648 48.0377 88.3962 48.0681C88.3192 48.1019 88.2829 48.1914 88.3172 48.2693C88.5558 48.8191 88.7922 49.3834 89.0203 49.9461C89.0511 50.0239 89.1408 50.0624 89.219 50.0302C89.2971 49.9981 89.3353 49.9097 89.3032 49.8316C89.0747 49.2667 88.8373 48.7007 88.5979 48.1479C88.5932 48.1392 88.5886 48.1304 88.5836 48.1231ZM75.1122 28.8986C75.1045 28.8871 75.0946 28.876 75.0837 28.8667C74.6154 28.4717 74.1343 28.0878 73.6554 27.7249C73.5881 27.6738 73.4924 27.6868 73.4414 27.7542C73.3903 27.8215 73.4034 27.9172 73.4707 27.9683C73.9466 28.3284 74.4227 28.7086 74.8866 29.1005C74.9512 29.1546 75.048 29.1468 75.1021 29.0821C75.1468 29.0285 75.1489 28.9535 75.1122 28.8986ZM89.9518 51.4997C89.9134 51.4423 89.839 51.4162 89.7707 51.4418C89.6922 51.4717 89.6519 51.5604 89.6819 51.6388C89.8944 52.2012 90.1046 52.776 90.3062 53.3469C90.334 53.4256 90.4215 53.4679 90.5016 53.4404C90.5812 53.4121 90.6226 53.3251 90.5951 53.245C90.3932 52.6719 90.1828 52.0949 89.9685 51.53C89.9641 51.5199 89.9584 51.5095 89.9518 51.4997ZM91.1639 54.9357C91.1266 54.88 91.0558 54.8538 90.9896 54.8755C90.9098 54.9016 90.8657 54.9881 90.8918 55.0679C91.08 55.6419 91.2634 56.2263 91.4377 56.8024C91.4622 56.8833 91.547 56.9286 91.6279 56.9041C91.7088 56.8796 91.7541 56.7948 91.7296 56.7139C91.5545 56.1347 91.37 55.5487 91.1815 54.9726C91.1776 54.9597 91.1716 54.9472 91.1639 54.9357ZM72.208 26.7015C72.1976 26.6859 72.1833 26.6717 72.1658 26.6597C71.6593 26.3176 71.1398 25.9878 70.6211 25.6788C70.5485 25.636 70.455 25.6594 70.4114 25.7325C70.3686 25.8051 70.392 25.8985 70.4651 25.9422C70.978 26.2479 71.4932 26.5747 71.9953 26.9137C72.0648 26.9609 72.1602 26.9422 72.2074 26.8726C72.2437 26.8187 72.242 26.7523 72.208 26.7015ZM92.2192 58.4244C92.1835 58.3711 92.1165 58.3436 92.0517 58.3621C91.9705 58.3843 91.9225 58.4687 91.9454 58.5507C92.1096 59.1419 92.2659 59.7337 92.4104 60.3096C92.431 60.3919 92.5137 60.441 92.596 60.4203C92.6783 60.3997 92.7273 60.317 92.7067 60.2347C92.5619 59.6566 92.404 59.0624 92.2395 58.469C92.2351 58.4517 92.2279 58.4375 92.2192 58.4244ZM69.0809 24.8397C69.0672 24.8192 69.048 24.8011 69.0248 24.7894C68.4834 24.5086 67.9287 24.2416 67.3762 23.9955C67.299 23.9617 67.2091 23.9958 67.1745 24.0735C67.1407 24.1507 67.1747 24.2406 67.2525 24.2752C67.7998 24.5188 68.3493 24.7834 68.8849 25.0609C68.9597 25.0999 69.0515 25.0705 69.0905 24.9958C69.1158 24.9432 69.1105 24.8839 69.0809 24.8397ZM65.7543 23.3605C65.7373 23.3351 65.7124 23.3138 65.6812 23.3026C65.1129 23.0897 64.5301 22.8924 63.9484 22.7145C63.868 22.69 63.7822 22.7356 63.7577 22.816C63.7332 22.8964 63.7788 22.9822 63.8592 23.0067C64.4349 23.1827 65.0116 23.3781 65.5748 23.5886C65.6536 23.6177 65.7418 23.5776 65.7709 23.4988C65.7889 23.4512 65.7806 23.3998 65.7543 23.3605ZM62.2742 22.2972C62.2533 22.2661 62.2216 22.2434 62.183 22.2336C62.0317 22.1972 61.8788 22.1619 61.7264 22.1275C61.28 22.0275 60.8308 21.9378 60.392 21.86C60.3089 21.8456 60.2297 21.901 60.2153 21.9842C60.2009 22.0673 60.2563 22.1465 60.3395 22.1609C60.7741 22.2378 61.2192 22.3268 61.661 22.4251C61.8128 22.4587 61.963 22.4935 62.1129 22.5296C62.195 22.5495 62.2775 22.499 62.2973 22.4169C62.3063 22.3754 62.2972 22.3316 62.2742 22.2972ZM58.6897 21.6667C58.6656 21.6307 58.6259 21.605 58.5794 21.5993C57.9673 21.532 57.3524 21.4854 56.753 21.4618C56.669 21.4586 56.5978 21.5241 56.5946 21.6081C56.5915 21.692 56.6569 21.7633 56.7409 21.7664C57.3333 21.7901 57.9404 21.8358 58.5457 21.9018C58.6291 21.9113 58.705 21.851 58.7139 21.7668C58.7188 21.7315 58.7089 21.6954 58.6897 21.6667ZM55.0546 21.528C55.0261 21.4854 54.9769 21.4578 54.9216 21.4604C54.3072 21.4835 53.6922 21.5308 53.0943 21.6034C53.0106 21.6131 52.9506 21.69 52.9611 21.7731C52.9714 21.8576 53.0478 21.9168 53.1309 21.9063C53.7206 21.8356 54.3271 21.7881 54.9336 21.7655C55.0181 21.7624 55.0833 21.6915 55.0802 21.607C55.0788 21.5783 55.0694 21.5501 55.0546 21.528ZM51.4435 21.964C51.41 21.9141 51.3479 21.8868 51.285 21.8992C50.685 22.0254 50.0875 22.1785 49.5086 22.3558C49.4277 22.3803 49.3829 22.4659 49.4074 22.5468C49.4319 22.6277 49.5175 22.6724 49.5985 22.648C50.1683 22.4731 50.7568 22.3226 51.3473 22.198C51.4296 22.1809 51.4833 22.0999 51.4657 22.0168C51.4616 21.9982 51.4539 21.9796 51.4435 21.964ZM47.9665 23.0316C47.927 22.9726 47.8496 22.9473 47.7816 22.975C47.2173 23.2078 46.6585 23.4701 46.1202 23.7543C46.0456 23.7936 46.0173 23.886 46.0565 23.9606C46.0963 24.036 46.1882 24.0635 46.2628 24.0243C46.7923 23.7448 47.3424 23.4871 47.8982 23.2576C47.9764 23.2254 48.014 23.1362 47.9819 23.0581C47.9767 23.0485 47.972 23.0398 47.9665 23.0316ZM44.7518 24.7304C44.7052 24.6607 44.6108 24.642 44.5406 24.6878C44.4955 24.7179 44.4499 24.7473 44.4056 24.7769C43.9451 25.085 43.4917 25.418 43.0566 25.766C42.9908 25.8183 42.9795 25.9149 43.0332 25.981C43.0855 26.0468 43.1815 26.0573 43.2482 26.0044C43.6758 25.6613 44.1224 25.3341 44.5756 25.0309C44.6198 25.0013 44.6641 24.9717 44.7089 24.9429C44.7799 24.8966 44.7995 24.8017 44.7523 24.7312L44.7518 24.7304ZM41.9128 27.0034C41.9079 26.996 41.9022 26.9892 41.895 26.9821C41.8367 26.9214 41.7396 26.92 41.679 26.9783C41.2421 27.3999 40.8185 27.8482 40.4183 28.3105C40.3629 28.3748 40.3702 28.4708 40.4345 28.5262C40.4989 28.5816 40.5949 28.5744 40.6503 28.51C41.0441 28.0543 41.4615 27.6125 41.8921 27.1976C41.9459 27.145 41.9529 27.0632 41.9128 27.0034ZM49.0833 37.737C48.8514 37.3904 48.594 37.0536 48.3176 36.7344C48.262 36.6708 48.166 36.6638 48.1018 36.7186C48.0382 36.7742 48.0312 36.8702 48.086 36.9344C48.4792 37.3891 48.8325 37.8799 49.1303 38.3889C49.1739 38.4629 49.2666 38.4863 49.3399 38.4432C49.4123 38.4007 49.4373 38.3069 49.3948 38.2345C49.2966 38.0665 49.1918 37.8993 49.0833 37.737ZM50.1522 39.8773C50.1144 39.8207 50.0427 39.7952 49.9757 39.8174C49.8956 39.8449 49.8528 39.9316 49.8811 40.0112C50.079 40.587 50.2109 41.1726 50.2717 41.7511C50.2806 41.8353 50.3554 41.8956 50.4396 41.8868C50.5238 41.8779 50.5841 41.8031 50.5752 41.7189C50.5116 41.1185 50.375 40.51 50.1695 39.912C50.1648 39.8997 50.1593 39.8879 50.1522 39.8773ZM47.0235 35.4827C47.0152 35.4704 47.0054 35.4592 46.9931 35.4496C46.5207 35.0646 46.0088 34.7143 45.4717 34.4081C45.3984 34.3658 45.3052 34.3914 45.2634 34.4656C45.222 34.5384 45.2468 34.6321 45.3209 34.6738C45.844 34.9716 46.3414 35.3126 46.8009 35.6873C46.8664 35.7408 46.9629 35.7308 47.0164 35.6654C47.0584 35.6112 47.0602 35.5376 47.0235 35.4827ZM50.5097 43.4651C50.4867 43.4306 50.4503 43.4064 50.4062 43.399C50.3228 43.3861 50.2447 43.4431 50.2312 43.5257C50.1373 44.1211 49.9593 44.6886 49.702 45.2119C49.665 45.2877 49.6966 45.3792 49.7724 45.4163C49.8482 45.4534 49.9397 45.4218 49.9768 45.346C50.2466 44.7953 50.4346 44.1986 50.5331 43.5728C50.5399 43.535 50.5306 43.4962 50.5097 43.4651ZM43.876 33.6844C43.859 33.659 43.8341 33.6377 43.8029 33.6265C43.2359 33.4139 42.6411 33.2412 42.0349 33.1117C41.9523 33.0946 41.8709 33.1467 41.8538 33.2293C41.8367 33.312 41.8888 33.3934 41.9714 33.4105C42.5629 33.5356 43.1426 33.7052 43.6959 33.9116C43.7752 33.9416 43.8629 33.9007 43.8926 33.8227C43.9106 33.7751 43.9029 33.7245 43.876 33.6844ZM39.5336 29.7542C39.5237 29.7394 39.5114 29.7263 39.4958 29.7154C39.4273 29.6663 39.3319 29.6815 39.2828 29.7499C38.927 30.243 38.5888 30.7588 38.2765 31.2832C38.2337 31.3558 38.2571 31.4492 38.3302 31.4929C38.4027 31.5357 38.4962 31.5123 38.5398 31.4392C38.8477 30.9224 39.1816 30.4143 39.5311 29.9278C39.5685 29.8755 39.5681 29.8058 39.5336 29.7542ZM40.3293 32.9242C40.3041 32.8865 40.2617 32.8603 40.2133 32.8571C39.6146 32.8151 38.9966 32.8099 38.375 32.8437C38.2903 32.8482 38.2261 32.9208 38.2309 33.0042C38.2349 33.0881 38.308 33.1531 38.3914 33.1483C38.9993 33.1153 39.6047 33.1195 40.1913 33.1612C40.2761 33.1674 40.3485 33.1035 40.3544 33.0201C40.357 32.9851 40.348 32.952 40.3293 32.9242ZM48.9256 46.6792C48.9196 46.6702 48.9127 46.6617 48.9042 46.6543C48.8434 46.5954 48.7464 46.5974 48.6888 46.6585C48.3852 46.9743 48.0378 47.2636 47.6576 47.518C47.5388 47.5975 47.4156 47.674 47.291 47.7467C47.2186 47.7892 47.1936 47.883 47.2361 47.9554C47.2791 48.0287 47.3724 48.0528 47.4448 48.0103C47.5757 47.9346 47.7033 47.854 47.8278 47.7707C48.2269 47.5037 48.5912 47.2007 48.9092 46.8693C48.9595 46.8167 48.9645 46.7373 48.9256 46.6792ZM37.6707 32.8796C37.6559 32.8575 37.6353 32.8392 37.6107 32.8272C37.5349 32.7901 37.4433 32.8217 37.4068 32.8983C37.1405 33.449 36.8959 34.016 36.6811 34.5832C36.6511 34.6626 36.6906 34.75 36.77 34.78C36.8493 34.8099 36.9368 34.7704 36.9667 34.691C37.1786 34.1317 37.4194 33.5732 37.6819 33.0311C37.7061 32.9804 37.6997 32.923 37.6707 32.8796ZM36.703 33.1142C36.6707 33.0658 36.6115 33.0377 36.5511 33.0485C35.9623 33.1471 35.3603 33.2793 34.7592 33.443C34.6781 33.4653 34.6295 33.5488 34.6518 33.63C34.6741 33.7112 34.7576 33.7597 34.8387 33.7374C35.4292 33.5773 36.0224 33.4461 36.6008 33.3498C36.6839 33.3357 36.7402 33.2566 36.7261 33.1735C36.7225 33.1521 36.7145 33.1314 36.703 33.1142ZM45.8281 48.5213C45.7914 48.4664 45.7213 48.4398 45.6547 48.4606C45.5932 48.4804 45.5311 48.4994 45.4685 48.5175C44.9333 48.6751 44.4082 48.7963 43.9068 48.8767C43.8232 48.89 43.767 48.9691 43.7805 49.0514C43.7938 49.135 43.8729 49.1912 43.9552 49.1777C44.4691 49.0948 45.0077 48.9706 45.5549 48.8097C45.6196 48.7913 45.6833 48.7712 45.747 48.7512C45.8274 48.7259 45.8721 48.6402 45.8462 48.559C45.8424 48.5462 45.8358 48.5328 45.8281 48.5213ZM36.3825 36.2824C36.3627 36.2529 36.3332 36.23 36.2968 36.22C36.2153 36.1974 36.1311 36.2454 36.108 36.3261C35.9422 36.9222 35.8064 37.5244 35.7024 38.1171C35.688 38.2003 35.7434 38.2795 35.8265 38.2938C35.9097 38.3082 35.9889 38.2528 36.0033 38.1697C36.1046 37.587 36.2398 36.9948 36.4024 36.4079C36.4154 36.3636 36.4066 36.3185 36.3825 36.2824ZM33.1928 34.0592C33.1544 34.0019 33.0805 33.9765 33.0138 34.001C32.4558 34.2059 31.8862 34.4398 31.3203 34.6986C31.2438 34.7332 31.2095 34.8238 31.2446 34.9011C31.2792 34.9776 31.3698 35.0119 31.4471 34.9768C32.0051 34.7221 32.5678 34.4904 33.1188 34.2891C33.1977 34.2599 33.2386 34.1721 33.2095 34.0931C33.2051 34.0794 33.1993 34.0691 33.1928 34.0592ZM42.2459 49.0697C42.2196 49.0304 42.1744 49.0037 42.1235 49.0021C41.5033 48.9829 40.913 48.8914 40.3677 48.7307C40.2865 48.7068 40.202 48.7526 40.1781 48.8338C40.1542 48.9151 40.2005 49.0003 40.2812 49.0235C40.8506 49.1918 41.4671 49.287 42.1142 49.3073C42.199 49.3099 42.2688 49.2442 42.2714 49.1594C42.2722 49.1268 42.2629 49.0951 42.2459 49.0697ZM35.7635 39.8663C35.7377 39.8278 35.6953 39.8016 35.6461 39.799C35.5618 39.7937 35.4895 39.8575 35.4841 39.9417C35.4436 40.5691 35.4424 41.188 35.4789 41.7816C35.4843 41.8658 35.5568 41.9299 35.6411 41.9246C35.7253 41.9193 35.7894 41.8467 35.7841 41.7625C35.7484 41.1825 35.7499 40.5765 35.7893 39.9617C35.7907 39.9265 35.781 39.8926 35.7635 39.8663ZM36.0062 43.4882C35.9722 43.4374 35.9101 43.4102 35.8461 43.4245C35.7636 43.4429 35.7112 43.5242 35.7297 43.6068C35.8677 44.2333 36.0582 44.8248 36.2956 45.3659C36.3294 45.4429 36.4197 45.4786 36.4967 45.4448C36.5738 45.4111 36.6095 45.3208 36.5757 45.2437C36.3465 44.7221 36.1623 44.1489 36.029 43.5418C36.0238 43.5215 36.0166 43.5038 36.0062 43.4882ZM38.8114 48.0198C38.801 48.0042 38.7867 47.99 38.7706 47.9783C38.2896 47.6512 37.8563 47.2447 37.482 46.7703C37.4296 46.7045 37.3339 46.6926 37.2673 46.7455C37.2015 46.7979 37.1901 46.8944 37.2425 46.9602C37.636 47.4597 38.0928 47.8872 38.5995 48.2315C38.6691 48.2787 38.7642 48.2613 38.8122 48.1913C38.8463 48.1376 38.8448 48.0698 38.8114 48.0198ZM29.8811 35.5618C29.8378 35.4971 29.7519 35.4751 29.682 35.5124C29.1582 35.7952 28.626 36.1026 28.0988 36.4281C28.0267 36.4727 28.0052 36.5666 28.0493 36.6379C28.094 36.71 28.1879 36.7315 28.2592 36.6873C28.7807 36.3657 29.3082 36.0602 29.8265 35.7799C29.9006 35.7398 29.9289 35.6473 29.8883 35.5725C29.8858 35.5706 29.8839 35.5659 29.8811 35.5618ZM26.7838 37.4715C26.7832 37.4707 26.7827 37.4699 26.7821 37.4691C26.7341 37.3992 26.6387 37.3824 26.5701 37.4306C26.0815 37.7694 25.5841 38.1306 25.0916 38.5064C25.0247 38.5571 25.0112 38.6539 25.0627 38.7202C25.1134 38.7872 25.2097 38.7999 25.2766 38.7492C25.765 38.3762 26.2582 38.0177 26.7428 37.6816C26.8119 37.6342 26.8298 37.5404 26.7838 37.4715ZM23.8873 39.6798C23.884 39.6749 23.8813 39.6708 23.8772 39.6664C23.8232 39.6017 23.7261 39.5931 23.6614 39.6471C23.1911 40.04 22.7296 40.446 22.2889 40.8548C22.2264 40.912 22.2236 41.0088 22.2803 41.0705C22.3375 41.1331 22.4343 41.1359 22.496 41.0792C22.9332 40.6741 23.3906 40.2708 23.8565 39.882C23.9185 39.831 23.9301 39.7437 23.8873 39.6798ZM21.2216 42.1549C21.2155 42.1459 21.2087 42.1374 21.2002 42.1301C21.1394 42.0711 21.0423 42.0732 20.9842 42.1334C20.5594 42.573 20.1445 43.0274 19.7506 43.483C19.696 43.5468 19.7025 43.6434 19.7668 43.6988C19.8306 43.7534 19.9271 43.7469 19.9825 43.6826C20.372 43.231 20.7826 42.7807 21.2036 42.3461C21.2546 42.2929 21.2605 42.2131 21.2216 42.1549ZM18.847 44.9109C18.8376 44.897 18.8264 44.8855 18.813 44.8743C18.7456 44.8233 18.6499 44.8363 18.5984 44.9028C18.2286 45.3874 17.8693 45.8876 17.5332 46.3889C17.4866 46.4593 17.5048 46.5538 17.5751 46.6005C17.6455 46.6471 17.7401 46.6289 17.7867 46.5586C18.1203 46.0625 18.4745 45.567 18.8418 45.0876C18.8813 45.035 18.882 44.9633 18.847 44.9109ZM16.8195 47.9305C16.8069 47.9116 16.7902 47.8955 16.7691 47.8835C16.6966 47.8407 16.6028 47.8655 16.56 47.938C16.2532 48.4636 15.9596 49.0052 15.6881 49.5463C15.6505 49.6213 15.6813 49.7134 15.7563 49.751C15.8313 49.7886 15.9234 49.7578 15.961 49.6828C16.2292 49.1475 16.5196 48.6116 16.8231 48.0918C16.8553 48.0406 16.8513 47.978 16.8195 47.9305ZM15.1909 51.1827C15.175 51.1589 15.152 51.1387 15.1238 51.1267C15.0458 51.0935 14.9567 51.1306 14.9235 51.2085C14.6868 51.7679 14.4662 52.3425 14.2664 52.9163C14.2392 52.9962 14.2809 53.0833 14.3608 53.1106C14.4407 53.1378 14.5279 53.0961 14.5551 53.0162C14.7522 52.449 14.9708 51.8804 15.2048 51.3276C15.2252 51.2783 15.2183 51.2236 15.1909 51.1827ZM13.9958 54.6182C13.976 54.5887 13.9464 54.5658 13.9092 54.5563C13.8277 54.5337 13.7436 54.5817 13.721 54.6632C13.5595 55.2481 13.4147 55.8456 13.2902 56.4414C13.2731 56.524 13.326 56.6049 13.4086 56.622C13.4912 56.6391 13.5721 56.5862 13.5892 56.5036C13.7124 55.9146 13.8547 55.3223 14.0148 54.7442C14.0287 54.6994 14.0199 54.6543 13.9958 54.6182ZM13.2539 58.1799C13.2304 58.1446 13.1934 58.1195 13.1491 58.1136C13.0654 58.102 12.9878 58.1598 12.9762 58.2435C12.891 58.8414 12.8231 59.4527 12.7746 60.0593C12.7679 60.1433 12.8307 60.2176 12.9146 60.2243C12.9986 60.231 13.0729 60.1682 13.0796 60.0843C13.1275 59.4839 13.1949 58.8789 13.2795 58.2873C13.2839 58.2476 13.2742 58.2102 13.2539 58.1799ZM35.6582 93.4123C35.6368 93.3804 35.6031 93.3566 35.5629 93.348C34.9805 93.2239 34.3915 93.0723 33.8128 92.8971C33.7324 92.8727 33.6466 92.9182 33.6221 92.9986C33.5976 93.0791 33.6432 93.1649 33.7236 93.1893C34.3102 93.3675 34.9074 93.5208 35.498 93.6464C35.5806 93.6635 35.6621 93.6114 35.6791 93.5288C35.6895 93.4875 35.6801 93.4451 35.6582 93.4123ZM12.964 61.8034C12.9371 61.7633 12.8919 61.7365 12.8403 61.7355C12.756 61.7338 12.6859 61.8009 12.6846 61.8859C12.6736 62.49 12.6801 63.1061 12.7051 63.7145C12.7083 63.799 12.7797 63.8651 12.8637 63.8611C12.9482 63.858 13.0134 63.787 13.0103 63.7025C12.9855 63.0999 12.979 62.4909 12.9904 61.8925C12.99 61.8584 12.9804 61.828 12.964 61.8034ZM32.1772 92.3603C32.1608 92.3357 32.1364 92.3152 32.106 92.3035C31.5522 92.0856 30.995 91.8415 30.4504 91.5772C30.3746 91.5401 30.283 91.5717 30.2465 91.6483C30.2094 91.7241 30.241 91.8157 30.3177 91.8522C30.8702 92.1196 31.4345 92.3672 31.9949 92.5878C32.0734 92.6183 32.162 92.5804 32.1933 92.5014C32.2115 92.4524 32.2041 92.4004 32.1772 92.3603ZM13.1113 65.4369C13.0811 65.3919 13.0269 65.3641 12.969 65.3696C12.8856 65.378 12.8239 65.4524 12.832 65.5372C12.8912 66.1382 12.9699 66.7487 13.0635 67.3515C13.0768 67.4352 13.1551 67.4919 13.238 67.4792C13.3216 67.4659 13.3784 67.3876 13.3656 67.3048C13.2722 66.7077 13.1952 66.1032 13.1363 65.508C13.1338 65.4812 13.125 65.4574 13.1113 65.4369ZM28.9032 90.7771C28.8906 90.7582 28.8739 90.7421 28.8528 90.7301C28.3369 90.4324 27.8206 90.1111 27.3177 89.7725C27.2481 89.7253 27.1527 89.7441 27.1061 89.8144C27.0594 89.8848 27.0776 89.9794 27.148 90.026C27.6567 90.3678 28.1792 90.6932 28.7009 90.9943C28.7743 91.0365 28.8675 91.011 28.9098 90.9376C28.9384 90.8864 28.9345 90.8238 28.9032 90.7771ZM13.6734 69.0326C13.6394 68.9818 13.5773 68.9545 13.5141 68.9683C13.431 68.9859 13.3786 69.0672 13.3971 69.1498C13.5236 69.7414 13.6687 70.3395 13.828 70.9269C13.8494 71.0086 13.9337 71.0566 14.0149 71.0343C14.0961 71.012 14.1446 70.9285 14.1224 70.8473C13.9642 70.2651 13.8207 69.6731 13.6953 69.0867C13.6918 69.0654 13.6838 69.0481 13.6734 69.0326ZM25.882 88.7508C25.8732 88.7376 25.8614 88.7254 25.8486 88.715C25.3762 88.3512 24.9055 87.9651 24.4493 87.5668C24.3858 87.5109 24.2892 87.5173 24.2338 87.5817C24.1779 87.6452 24.1843 87.7417 24.2487 87.7971C24.7098 88.1992 25.1855 88.5892 25.6627 88.9568C25.7293 89.0083 25.8255 88.9961 25.8765 88.9288C25.9177 88.8751 25.9176 88.804 25.882 88.7508ZM14.6245 72.5447C14.5872 72.489 14.5163 72.4629 14.4502 72.4846C14.3704 72.5107 14.3262 72.5972 14.3529 72.6778C14.5417 73.2526 14.7488 73.8317 14.9696 74.3993C14.9995 74.4777 15.0885 74.5167 15.1677 74.4862C15.247 74.4557 15.2851 74.3674 15.2546 74.2881C15.0363 73.726 14.8311 73.1515 14.6434 72.5819C14.6382 72.5688 14.6321 72.5562 14.6245 72.5447ZM23.1413 86.36C23.1358 86.3518 23.1289 86.3433 23.1213 86.3354C22.6948 85.9161 22.2721 85.4776 21.8656 85.0295C21.8083 84.967 21.7126 84.9622 21.6501 85.0195C21.5876 85.0767 21.5828 85.1724 21.6401 85.235C22.0502 85.6866 22.4761 86.13 22.9075 86.5532C22.9675 86.6127 23.0643 86.612 23.1233 86.5512C23.1741 86.4994 23.1802 86.4182 23.1413 86.36ZM15.9404 75.9373C15.8999 75.8767 15.8194 75.8522 15.7508 75.8827C15.6743 75.9172 15.64 76.0078 15.6738 76.0849C15.9216 76.6379 16.1883 77.1926 16.4651 77.7323C16.503 77.8066 16.5957 77.8371 16.6709 77.7987C16.746 77.7603 16.7757 77.668 16.7373 77.5929C16.4632 77.0574 16.199 76.5081 15.9531 75.9597C15.9503 75.9521 15.9454 75.9447 15.9404 75.9373ZM20.693 83.6669C20.6902 83.6628 20.6875 83.6587 20.6839 83.6551C20.3063 83.19 19.9345 82.7069 19.5793 82.2185C19.5302 82.1505 19.4345 82.1351 19.3656 82.1847C19.2968 82.2343 19.283 82.3289 19.3318 82.3983C19.6897 82.8908 20.0657 83.3783 20.4469 83.8469C20.5 83.9122 20.596 83.9227 20.6621 83.869C20.7236 83.8208 20.7368 83.7324 20.693 83.6669ZM17.5991 79.1754C17.5547 79.109 17.4658 79.0878 17.3953 79.1279C17.3223 79.1696 17.2973 79.2634 17.3395 79.3372C17.6434 79.8622 17.9653 80.3859 18.2959 80.8943C18.2965 80.8951 18.2965 80.8951 18.297 80.896C18.3436 80.9656 18.4372 80.9849 18.5074 80.9391C18.5784 80.8928 18.5985 80.7987 18.5522 80.7276C18.2248 80.2242 17.9057 79.7046 17.6046 79.1836C17.6029 79.1811 17.6007 79.1778 17.5991 79.1754Z" fill="#2E2E46"/>
<path d="M93.1205 62.0331C93.0865 61.9823 93.0243 61.9551 92.9612 61.9688C92.8786 61.9873 92.8263 62.0686 92.8442 62.1503C92.9684 62.7208 93.0267 63.0401 93.0275 63.0432C93.0429 63.1265 93.1223 63.1814 93.2049 63.1665C93.2883 63.151 93.3431 63.0716 93.3282 62.9891C93.3274 62.9861 93.2686 62.6624 93.1432 62.0867C93.1388 62.0659 93.1309 62.0487 93.1205 62.0331Z" fill="#2E2E46"/>
<path d="M58.9673 108.055V142.13" stroke="#263238" stroke-miterlimit="10"/>
<path d="M35.539 113.755L40.3916 112.986L37.5615 122.986L35.0607 122.719C34.5041 122.66 34.1004 122.17 34.1396 121.614L34.6688 114.691C34.708 114.221 35.0686 113.833 35.539 113.755Z" fill="white"/>
<path d="M62.6866 99.3064C63.8469 100.294 62.8003 109.216 61.9693 109.067C61.1423 108.918 59.3705 108.577 58.6532 108.012C57.9359 107.448 53.9064 100.228 54.8863 98.7302C55.8663 97.2368 61.789 98.5421 62.6866 99.3064Z" fill="#E24949"/>
<path opacity="0.1" d="M62.6866 99.3064C63.8469 100.294 62.8003 109.216 61.9693 109.067C61.1423 108.918 59.3705 108.577 58.6532 108.012C57.9359 107.448 53.9064 100.228 54.8863 98.7302C55.8663 97.2368 61.789 98.5421 62.6866 99.3064Z" fill="black"/>
<path opacity="0.1" d="M78.311 112.022H85.7036V109.945L78.311 110.348V112.022Z" fill="black"/>
<path d="M93.3431 143.235H216.082L209.587 55.7149L97.7646 49.7804L93.3431 143.235Z" fill="#E24949"/>
<path opacity="0.1" d="M93.3394 143.235H216.078L215.73 138.539L93.9235 130.892L93.3394 143.235Z" fill="black"/>
<path d="M216.7 147.174H29.2465V141.596H216.7V147.174Z" fill="#EBEBEB"/>
<path d="M25.3431 138.915L44.0442 140.064V148.021H23.9516L25.3431 138.915Z" fill="#DBDBDB"/>
<path d="M208.626 148.021V140.232L220.429 139.013L221.879 148.021H208.626Z" fill="#DBDBDB"/>
<path d="M166.955 148.86C166.955 148.86 168.699 135.944 181.478 135.944C194.256 135.944 196.149 148.86 196.149 148.86" stroke="#C7C7C7" stroke-width="10" stroke-miterlimit="10"/>
<path d="M181.552 136.364C199.829 136.364 199.861 164.766 181.552 164.766C163.278 164.77 163.246 136.364 181.552 136.364Z" fill="#263238"/>
<path d="M181.552 144.121C189.846 144.121 189.861 157.013 181.552 157.013C173.257 157.013 173.246 144.121 181.552 144.121Z" fill="#C7C7C7"/>
<path d="M57.4698 148.86C57.4698 148.86 59.2141 135.944 71.9925 135.944C84.7747 135.944 86.6641 148.86 86.6641 148.86" stroke="#C7C7C7" stroke-width="10" stroke-miterlimit="10"/>
<path d="M71.9955 136.364C90.2733 136.364 90.3046 164.766 71.9955 164.766C53.7216 164.77 53.6903 136.364 71.9955 136.364Z" fill="#263238"/>
<path d="M71.9954 144.121C80.2896 144.121 80.3053 157.013 71.9954 157.013C63.7012 157.013 63.6856 144.121 71.9954 144.121Z" fill="#C7C7C7"/>
<path d="M163.749 113.681C163.745 113.696 163.741 113.713 163.741 113.729C163.731 113.852 163.822 113.958 163.944 113.968C164.386 114.003 164.84 114.018 165.292 114.014C165.413 114.012 165.512 113.911 165.511 113.79C165.51 113.668 165.409 113.569 165.287 113.57C164.849 113.575 164.408 113.561 163.979 113.526C163.874 113.518 163.78 113.584 163.749 113.681Z" fill="#2E2E46"/>
<path d="M121.648 38.3209C121.622 38.4069 121.649 38.5022 121.723 38.5613C121.82 38.6362 121.96 38.6198 122.035 38.5232C122.551 37.8632 123.136 37.2139 123.774 36.5947C123.862 36.5097 123.864 36.3695 123.779 36.2817C123.694 36.1939 123.554 36.1923 123.466 36.2773C122.814 36.9103 122.215 37.5748 121.687 38.2505C121.668 38.2717 121.656 38.2963 121.648 38.3209ZM125.402 34.6599C125.382 34.7255 125.392 34.8004 125.438 34.8596C125.512 34.9575 125.65 34.9764 125.748 34.902C126.439 34.3785 127.168 33.8954 127.913 33.4635C128.019 33.4021 128.055 33.2666 127.994 33.1607C127.933 33.0548 127.797 33.0187 127.691 33.0801C126.93 33.5204 126.186 34.0156 125.481 34.548C125.443 34.5781 125.416 34.6176 125.402 34.6599ZM129.941 32.036C129.926 32.0838 129.927 32.1381 129.948 32.1879C129.995 32.2999 130.125 32.3538 130.237 32.3062C131.038 31.9695 131.862 31.6821 132.69 31.4556C132.808 31.4234 132.877 31.3012 132.845 31.1834C132.813 31.0655 132.691 30.9962 132.573 31.0284C131.726 31.2612 130.883 31.5531 130.065 31.8978C130.004 31.9239 129.96 31.9746 129.941 32.036ZM134.994 30.6515C134.985 30.6816 134.982 30.7137 134.986 30.7462C135.002 30.868 135.113 30.9521 135.235 30.936C136.086 30.8216 136.958 30.763 137.825 30.7641C137.947 30.7647 138.047 30.6641 138.046 30.5424C138.047 30.4199 137.948 30.3202 137.825 30.3209C136.939 30.3197 136.048 30.3801 135.177 30.4972C135.087 30.5099 135.019 30.5723 134.994 30.6515ZM140.232 30.6493C140.228 30.6616 140.226 30.6743 140.223 30.687C140.208 30.8081 140.293 30.9198 140.414 30.935C141.257 31.0442 142.116 31.2106 142.965 31.4278C143.083 31.4583 143.202 31.3876 143.235 31.2675C143.265 31.1498 143.194 31.0287 143.074 30.9977C142.209 30.7768 141.333 30.6067 140.471 30.4947C140.363 30.482 140.263 30.5483 140.232 30.6493ZM145.311 31.9392C145.276 32.0499 145.335 32.1712 145.444 32.2128C146.237 32.5112 147.042 32.86 147.834 33.2498C147.944 33.3036 148.076 33.2593 148.13 33.1487C148.184 33.0395 148.14 32.9061 148.029 32.8523C147.223 32.4552 146.406 32.1012 145.6 31.7985C145.486 31.7556 145.357 31.813 145.314 31.9283C145.313 31.931 145.312 31.9352 145.311 31.9392ZM150.025 34.2461C149.995 34.3417 150.032 34.4477 150.122 34.501C150.847 34.9373 151.582 35.4201 152.305 35.932C152.404 36.0033 152.544 35.9791 152.613 35.8796C152.684 35.7786 152.661 35.6412 152.561 35.5713C151.828 35.0519 151.084 34.5648 150.351 34.1213C150.246 34.0588 150.11 34.0915 150.046 34.1973C150.038 34.2128 150.03 34.2284 150.025 34.2461ZM154.333 37.2492C154.306 37.3379 154.336 37.4386 154.417 37.4953C155.143 38.0112 155.896 38.4891 156.655 38.9148C156.762 38.975 156.896 38.9374 156.957 38.8304C157.017 38.7233 156.979 38.5889 156.872 38.5287C156.126 38.1099 155.387 37.6408 154.675 37.1336C154.576 37.0624 154.436 37.0865 154.367 37.1861C154.351 37.2068 154.34 37.2273 154.333 37.2492ZM158.908 39.8153C158.875 39.9232 158.928 40.0401 159.034 40.085C159.735 40.3821 160.456 40.6463 161.177 40.8702C161.294 40.9067 161.413 40.9422 161.531 40.9773C161.648 41.012 161.77 40.9452 161.806 40.8305C161.806 40.8292 161.807 40.8278 161.807 40.8265C161.842 40.7086 161.774 40.5856 161.657 40.5523C161.542 40.5181 161.426 40.4834 161.31 40.4473C160.602 40.2277 159.895 39.9691 159.209 39.678C159.096 39.631 158.966 39.6835 158.917 39.7957C158.913 39.8017 158.91 39.8085 158.908 39.8153ZM163.939 41.2863C163.936 41.2958 163.933 41.3054 163.931 41.3154C163.91 41.4361 163.993 41.5502 164.112 41.5708C164.982 41.7165 165.868 41.8122 166.749 41.8537C166.871 41.8603 166.976 41.7654 166.981 41.6427C166.987 41.5205 166.893 41.4162 166.77 41.411C165.907 41.3705 165.037 41.2772 164.185 41.1338C164.076 41.1148 163.971 41.1811 163.939 41.2863ZM169.71 23.846C169.674 23.9607 169.738 24.0838 169.852 24.1222C169.969 24.16 170.093 24.0968 170.132 23.9816C170.409 23.1411 170.734 22.3285 171.097 21.5698C171.149 21.4588 171.103 21.3277 170.992 21.2739C170.881 21.2215 170.75 21.2676 170.696 21.3782C170.325 22.1551 169.994 22.9836 169.711 23.8433C169.711 23.8433 169.71 23.8447 169.71 23.846ZM169.034 26.3835C169.032 26.3903 169.03 26.3971 169.029 26.4044C168.852 27.2582 168.716 28.1398 168.629 29.0243C168.616 29.1462 168.705 29.2547 168.827 29.2672C168.949 29.2796 169.057 29.1918 169.07 29.0686C169.158 28.1989 169.29 27.3342 169.464 26.4944C169.489 26.375 169.412 26.2568 169.292 26.233C169.178 26.2096 169.068 26.2756 169.034 26.3835ZM171.99 19.1301C171.963 19.2202 171.995 19.3217 172.077 19.3784C172.178 19.4473 172.316 19.4214 172.385 19.32C172.896 18.5728 173.451 17.907 174.037 17.3386C174.124 17.2536 174.126 17.1134 174.041 17.0256C173.956 16.9378 173.816 16.9362 173.728 17.0212C173.122 17.6085 172.547 18.2983 172.02 19.0703C172.006 19.0886 171.997 19.1083 171.99 19.1301ZM168.507 31.6037C168.501 31.6242 168.497 31.6469 168.497 31.6695C168.499 32.5472 168.543 33.4368 168.63 34.3141C168.641 34.436 168.75 34.5251 168.872 34.5122C168.994 34.5006 169.083 34.3921 169.07 34.2698C168.985 33.4064 168.941 32.5318 168.94 31.6676C168.94 31.545 168.841 31.4467 168.718 31.446C168.619 31.4481 168.535 31.5136 168.507 31.6037ZM169.025 36.8249C169.015 36.8591 169.012 36.8958 169.02 36.934C169.191 37.7956 169.406 38.6604 169.659 39.5027C169.695 39.62 169.818 39.6866 169.935 39.6512C170.052 39.6158 170.119 39.4927 170.084 39.3754C169.834 38.5462 169.622 37.6959 169.454 36.8473C169.43 36.7275 169.313 36.6494 169.193 36.6736C169.111 36.6898 169.049 36.7498 169.025 36.8249ZM175.775 15.558C175.758 15.6127 175.762 15.6723 175.79 15.7273C175.848 15.8351 175.982 15.8767 176.089 15.8202C176.881 15.4027 177.692 15.1608 178.5 15.0957C178.621 15.0855 178.713 14.9792 178.704 14.8582C178.694 14.7367 178.588 14.6453 178.466 14.6555C177.597 14.724 176.728 14.9839 175.883 15.4283C175.829 15.4565 175.792 15.5034 175.775 15.558ZM169.174 41.5364C169.166 41.5624 169.162 41.5896 169.166 41.6176C169.174 41.74 169.28 41.8314 169.403 41.823C170.28 41.7615 171.166 41.646 172.033 41.4811C172.154 41.4587 172.232 41.3422 172.21 41.2215C172.187 41.1007 172.071 41.0227 171.95 41.045C171.099 41.2059 170.232 41.3184 169.371 41.3791C169.276 41.3869 169.201 41.4518 169.174 41.5364ZM170.535 41.8498C170.52 41.8976 170.522 41.9491 170.542 41.9985C170.872 42.8093 171.246 43.617 171.654 44.3995C171.71 44.5083 171.844 44.5498 171.952 44.4938C172.061 44.4377 172.103 44.3039 172.047 44.1951C171.645 43.4251 171.277 42.6296 170.951 41.8308C170.906 41.7178 170.776 41.6626 170.663 41.7097C170.599 41.7363 170.554 41.7884 170.535 41.8498ZM180.846 15.1984C180.811 15.309 180.868 15.4285 180.977 15.4697C181.717 15.7579 182.445 16.2056 183.139 16.8031C183.233 16.883 183.372 16.8725 183.452 16.779C183.532 16.6856 183.522 16.546 183.428 16.4661C182.696 15.8359 181.925 15.3615 181.138 15.0558C181.025 15.0115 180.896 15.0689 180.852 15.1824C180.849 15.1888 180.847 15.1943 180.846 15.1984ZM174.326 40.5596C174.313 40.6006 174.312 40.6467 174.327 40.6917C174.364 40.808 174.487 40.8733 174.605 40.8365C175.448 40.5713 176.282 40.2556 177.086 39.8972C177.197 39.8465 177.248 39.717 177.198 39.6041C177.147 39.4925 177.017 39.4418 176.904 39.4921C176.117 39.8434 175.299 40.1538 174.473 40.4137C174.4 40.436 174.346 40.4927 174.326 40.5596ZM172.955 46.5045C172.937 46.5646 172.944 46.6328 172.98 46.6904C173.451 47.4237 173.963 48.1516 174.505 48.8513C174.58 48.9479 174.72 48.9658 174.816 48.891C174.913 48.8162 174.931 48.6766 174.856 48.58C174.323 47.8891 173.817 47.1733 173.354 46.4502C173.289 46.3475 173.151 46.3169 173.048 46.3837C173.002 46.4127 172.97 46.4567 172.955 46.5045ZM184.848 18.4986C184.828 18.5641 184.838 18.639 184.882 18.6977C185.416 19.4071 185.871 20.1458 186.238 20.8944C186.292 21.004 186.424 21.0497 186.534 20.9968C186.643 20.9425 186.689 20.81 186.636 20.7007C186.258 19.9261 185.787 19.163 185.237 18.4322C185.164 18.3347 185.025 18.3154 184.927 18.3884C184.889 18.4168 184.861 18.4562 184.848 18.4986ZM179.112 38.4154C179.093 38.4742 179.099 38.5387 179.134 38.5959C179.197 38.7009 179.333 38.7356 179.438 38.6724C180.203 38.2125 180.938 37.7071 181.624 37.167C181.721 37.0922 181.737 36.9521 181.661 36.8551C181.586 36.7585 181.446 36.7419 181.349 36.8181C180.677 37.3462 179.958 37.8413 179.209 38.2913C179.16 38.3213 179.127 38.3663 179.112 38.4154ZM176.161 50.6591C176.139 50.7315 176.155 50.8144 176.209 50.8748C176.795 51.5148 177.421 52.1477 178.068 52.753C178.157 52.8362 178.298 52.8319 178.381 52.7425C178.464 52.653 178.46 52.5125 178.371 52.4293C177.731 51.8311 177.114 51.208 176.536 50.575C176.453 50.4849 176.313 50.4787 176.223 50.5616C176.192 50.588 176.173 50.6223 176.161 50.6591ZM183.224 35.1668C183.2 35.2446 183.22 35.3315 183.281 35.3926C183.369 35.4767 183.51 35.4756 183.595 35.3866C184.222 34.7355 184.792 34.0472 185.29 33.3396C185.36 33.24 185.338 33.1012 185.237 33.0309C185.137 32.9611 184.998 32.9838 184.928 33.0848C184.443 33.774 183.886 34.4453 183.275 35.0807C183.251 35.1047 183.234 35.1353 183.224 35.1668ZM187.112 23.199C187.1 23.2359 187.098 23.2757 187.107 23.3158C187.304 24.1525 187.401 25.0106 187.397 25.8686C187.396 25.9912 187.494 26.0904 187.616 26.0911C187.739 26.0917 187.838 25.9938 187.839 25.8712C187.844 24.9788 187.742 24.0851 187.538 23.2147C187.511 23.0954 187.391 23.0223 187.272 23.0496C187.193 23.0671 187.134 23.1267 187.112 23.199ZM186.219 30.8793C186.187 30.983 186.235 31.0983 186.337 31.145C186.448 31.1974 186.58 31.1486 186.633 31.0376C187.017 30.2152 187.315 29.3647 187.517 28.5216C187.545 28.403 187.472 28.2829 187.353 28.2551C187.235 28.2272 187.115 28.2979 187.087 28.4193C186.892 29.2346 186.604 30.0555 186.231 30.8501C186.227 30.8606 186.222 30.8697 186.219 30.8793ZM179.99 54.2469C179.964 54.3316 179.99 54.4265 180.063 54.4851C180.737 55.0284 181.448 55.5618 182.174 56.0719C182.275 56.1422 182.413 56.1176 182.483 56.018C182.553 55.9184 182.528 55.7792 182.429 55.7093C181.709 55.2059 181.008 54.6782 180.342 54.1406C180.247 54.063 180.107 54.0781 180.031 54.1742C180.011 54.1963 179.999 54.221 179.99 54.2469ZM184.221 57.3574C184.194 57.4434 184.221 57.5401 184.296 57.5978C184.988 58.1375 185.654 58.7067 186.275 59.2918C186.364 59.3763 186.504 59.3721 186.588 59.2826C186.671 59.1932 186.668 59.053 186.578 58.9699C185.947 58.3755 185.272 57.7975 184.569 57.2499C184.472 57.175 184.334 57.1918 184.258 57.2879C184.24 57.3095 184.229 57.3328 184.221 57.3574ZM167.689 113.48C167.679 113.513 167.677 113.548 167.683 113.584C167.704 113.704 167.819 113.785 167.94 113.764C168.787 113.615 169.653 113.399 170.515 113.121C170.632 113.084 170.696 112.958 170.657 112.841C170.62 112.725 170.495 112.661 170.378 112.699C169.535 112.972 168.689 113.184 167.862 113.328C167.779 113.341 167.713 113.403 167.689 113.48ZM188.037 60.9559C188.015 61.0269 188.029 61.1075 188.082 61.1675C188.653 61.8241 189.192 62.514 189.683 63.2175C189.754 63.3173 189.892 63.3421 189.992 63.2713C190.091 63.2018 190.116 63.0629 190.047 62.9635C189.546 62.248 188.997 61.5461 188.416 60.8775C188.335 60.7851 188.196 60.7762 188.104 60.8554C188.07 60.8824 188.049 60.9176 188.037 60.9559ZM172.682 111.886C172.666 111.937 172.668 111.993 172.693 112.044C172.743 112.155 172.875 112.204 172.987 112.153C173.767 111.795 174.556 111.381 175.334 110.925C175.44 110.864 175.475 110.728 175.413 110.622C175.352 110.516 175.216 110.481 175.11 110.543C174.346 110.993 173.57 111.398 172.802 111.75C172.741 111.779 172.7 111.829 172.682 111.886ZM177.212 109.237C177.192 109.301 177.201 109.373 177.243 109.431C177.313 109.531 177.451 109.554 177.552 109.482C178.254 108.981 178.957 108.438 179.643 107.863C179.736 107.785 179.75 107.645 179.671 107.552C179.592 107.458 179.453 107.445 179.359 107.524C178.682 108.09 177.988 108.628 177.296 109.121C177.253 109.151 177.226 109.192 177.212 109.237ZM191.038 65.2535C191.021 65.3082 191.025 65.3709 191.055 65.425C191.469 66.1826 191.846 66.9717 192.175 67.7717C192.222 67.8851 192.351 67.9385 192.464 67.8928C192.577 67.8457 192.631 67.717 192.585 67.604C192.25 66.7888 191.866 65.984 191.444 65.2135C191.384 65.1067 191.25 65.0665 191.143 65.1261C191.09 65.1543 191.054 65.2017 191.038 65.2535ZM181.244 105.871C181.221 105.946 181.238 106.031 181.295 106.09C181.381 106.178 181.52 106.181 181.608 106.096C182.232 105.494 182.853 104.855 183.448 104.2C183.531 104.109 183.525 103.97 183.433 103.887C183.342 103.805 183.203 103.811 183.12 103.902C182.531 104.55 181.918 105.182 181.3 105.777C181.273 105.805 181.255 105.837 181.244 105.871ZM193.032 70.1025C193.02 70.1421 193.018 70.1864 193.032 70.2296C193.27 71.0536 193.469 71.906 193.624 72.7625C193.645 72.8828 193.761 72.9637 193.881 72.9413C194.002 72.9203 194.082 72.8046 194.06 72.6839C193.903 71.8116 193.701 70.9434 193.458 70.1059C193.424 69.989 193.301 69.921 193.183 69.9546C193.109 69.9765 193.054 70.0328 193.032 70.1025ZM184.781 101.988C184.755 102.073 184.78 102.168 184.854 102.226C184.95 102.303 185.089 102.287 185.165 102.193C185.712 101.512 186.246 100.804 186.755 100.085C186.827 99.9841 186.802 99.8463 186.703 99.7764C186.604 99.7052 186.465 99.7293 186.395 99.8289C185.891 100.541 185.36 101.241 184.82 101.915C184.801 101.938 184.789 101.962 184.781 101.988ZM193.966 75.2627C193.958 75.2886 193.955 75.3176 193.956 75.3465C194.024 76.1985 194.054 77.0748 194.044 77.9519C194.042 78.074 194.141 78.1751 194.263 78.1757C194.385 78.1777 194.487 78.0789 194.487 77.9563C194.497 77.0657 194.467 76.1758 194.399 75.3103C194.388 75.1889 194.282 75.0974 194.161 75.1076C194.066 75.1141 193.992 75.178 193.966 75.2627ZM187.82 97.7038C187.79 97.798 187.827 97.9036 187.914 97.9578C188.018 98.0231 188.156 97.9908 188.219 97.8878C188.684 97.1429 189.133 96.3765 189.553 95.6086C189.612 95.5011 189.573 95.3662 189.465 95.3074C189.358 95.2485 189.223 95.2875 189.164 95.395C188.748 96.1552 188.304 96.9142 187.844 97.6531C187.833 97.6692 187.825 97.6861 187.82 97.7038ZM193.912 80.5116C193.908 80.5252 193.905 80.5407 193.903 80.5565C193.821 81.4084 193.702 82.2787 193.55 83.1434C193.529 83.2641 193.609 83.3787 193.729 83.3997C193.85 83.4207 193.965 83.3397 193.986 83.2203C194.139 82.3443 194.259 81.4622 194.343 80.599C194.356 80.4771 194.265 80.3682 194.144 80.3575C194.039 80.3457 193.943 80.4133 193.912 80.5116ZM190.337 93.0929C190.305 93.1966 190.353 93.3105 190.454 93.3582C190.565 93.4106 190.696 93.3631 190.749 93.2522C191.125 92.4543 191.479 91.6389 191.801 90.8286C191.847 90.7155 191.791 90.586 191.678 90.5404C191.565 90.4948 191.435 90.5503 191.39 90.6634C191.071 91.4642 190.72 92.2714 190.348 93.0619C190.344 93.0724 190.34 93.0833 190.337 93.0929ZM193.007 85.6862C193.006 85.6903 193.005 85.6944 193.003 85.6985C192.794 86.5331 192.549 87.378 192.279 88.2089C192.243 88.3295 192.305 88.4503 192.422 88.4882C192.539 88.526 192.663 88.4628 192.701 88.3458C192.974 87.504 193.222 86.6496 193.434 85.8067C193.464 85.6872 193.391 85.5675 193.273 85.5383C193.158 85.5085 193.042 85.5742 193.007 85.6862Z" fill="#2E2E46"/>
<path d="M119.683 41.7916C119.647 41.9091 119.712 42.0325 119.829 42.069C119.947 42.1055 120.07 42.0405 120.107 41.9231C120.221 41.5531 120.388 41.1526 120.602 40.7312C120.658 40.621 120.615 40.4894 120.505 40.4329C120.396 40.3781 120.263 40.4207 120.207 40.5304C119.982 40.9742 119.805 41.3984 119.683 41.7916Z" fill="#2E2E46"/>
<path d="M120.217 179.692C120.966 179.935 142.364 179.657 143.171 179.128C143.481 178.932 143.622 175.812 143.684 172.037C143.684 171.998 143.684 171.959 143.684 171.92C143.7 171.143 143.708 170.34 143.712 169.529C143.712 169.415 143.712 169.305 143.716 169.195L142.677 158.095L128.362 158.24L129.773 169.235L129.789 169.67L129.875 171.947L129.883 172.182C129.883 172.182 121.742 175.953 120.915 176.627C120.099 177.294 119.468 179.453 120.217 179.692Z" fill="#FFA982"/>
<path d="M120.217 179.692C120.966 179.935 142.363 179.657 143.171 179.128C143.481 178.932 143.622 175.812 143.684 172.037C143.684 171.998 143.684 171.959 143.684 171.92C143.7 171.143 143.708 170.34 143.712 169.529C143.712 169.415 143.712 169.305 143.716 169.195L129.777 169.235L129.793 169.67L129.879 171.947L129.887 172.182C129.887 172.182 121.746 175.953 120.918 176.627C120.099 177.294 119.468 179.453 120.217 179.692Z" fill="#EBEBEB"/>
<path d="M120.216 179.689C120.604 179.814 126.417 179.798 132.097 179.685C133.237 179.661 134.374 179.634 135.46 179.606C139.513 179.496 142.86 179.328 143.17 179.124C143.48 178.932 143.617 175.898 143.68 172.19C143.68 172.139 143.684 172.084 143.684 172.033C143.684 171.994 143.684 171.951 143.687 171.912H143.672L129.882 171.939L129.89 172.174C129.89 172.174 121.745 175.941 120.922 176.615C120.098 177.294 119.463 179.449 120.216 179.689Z" fill="#42A9D1"/>
<path d="M120.447 178.858C124.053 178.72 138.607 178.517 142.182 178.658C142.209 178.658 142.213 178.677 142.182 178.681C138.611 178.893 124.053 178.979 120.447 178.916C120.372 178.916 120.372 178.861 120.447 178.858Z" fill="#263238"/>
<path d="M128.345 172.002C129.76 171.72 131.5 171.916 132.598 172.911C132.641 172.95 132.586 173.009 132.539 172.998C131.132 172.574 129.823 172.308 128.353 172.182C128.247 172.174 128.243 172.022 128.345 172.002Z" fill="#263238"/>
<path d="M127.326 172.633C128.741 172.351 130.482 172.547 131.579 173.542C131.622 173.582 131.567 173.64 131.52 173.629C130.113 173.205 128.804 172.939 127.334 172.813C127.232 172.805 127.224 172.653 127.326 172.633Z" fill="#263238"/>
<path d="M126.311 173.264C127.726 172.982 129.466 173.178 130.564 174.173C130.607 174.213 130.552 174.271 130.505 174.26C129.098 173.836 127.788 173.57 126.319 173.444C126.217 173.433 126.209 173.284 126.311 173.264Z" fill="#263238"/>
<path d="M132.097 179.685C133.237 179.661 134.374 179.634 135.46 179.606C139.513 179.496 142.86 179.328 143.17 179.124C143.48 178.932 143.617 175.898 143.68 172.19C143.68 172.139 143.683 172.084 143.683 172.033C143.683 171.994 143.683 171.951 143.687 171.912H143.672C141.782 173.241 135.123 177.674 132.097 179.685Z" fill="#263238"/>
<path d="M128.883 171.99H144.296C144.296 171.99 141.191 135.999 141.313 135.368C141.466 134.564 142.375 130.919 143.586 126.161C143.966 124.671 144.374 123.076 144.801 121.418C145.95 116.941 147.216 112.046 148.321 107.789C149.979 101.407 151.269 96.4528 151.269 96.4528H138.208C138.208 96.4528 136.687 101.278 134.767 107.557C131.643 117.761 127.464 131.801 127.053 135.215C126.386 140.726 128.883 171.99 128.883 171.99Z" fill="#263238"/>
<path d="M129.624 169.36C131.976 169.313 131.302 169.293 133.654 169.27C134.806 169.258 142.375 169.191 143.453 169.372C143.477 169.376 143.477 169.415 143.453 169.419C142.375 169.595 134.806 169.532 133.654 169.521C131.298 169.497 131.976 169.478 129.624 169.431C129.581 169.431 129.581 169.364 129.624 169.36Z" fill="#37474F"/>
<path d="M138.472 133.169C138.977 130.943 139.734 128.759 140.388 126.572C141.725 122.131 143.069 117.69 144.418 113.249C145.092 111.03 145.766 108.812 146.452 106.593C146.797 105.472 147.142 104.355 147.491 103.238C147.836 102.144 148.224 101.058 148.534 99.957C148.659 99.5062 148.73 99.7532 148.569 100.325C148.243 101.474 147.922 102.626 147.589 103.771C146.926 106.04 146.256 108.31 145.586 110.58C144.249 115.095 142.897 119.603 141.545 124.114C140.867 126.376 140.184 128.634 139.506 130.896C139.181 131.977 138.864 133.063 138.671 134.176C138.472 135.337 138.464 136.513 138.534 137.685C138.683 140.044 138.954 142.396 139.173 144.748C139.393 147.104 139.608 149.463 139.828 151.819C140.263 156.511 140.698 161.203 141.117 165.895C141.172 166.491 141.223 167.083 141.27 167.678C141.286 167.878 140.984 167.863 140.965 167.671C140.459 163.034 140.067 158.377 139.632 153.732C139.197 149.111 138.766 144.485 138.334 139.864C138.225 138.704 138.103 137.54 138.103 136.375C138.095 135.293 138.232 134.223 138.472 133.169Z" fill="#37474F"/>
<path d="M139.749 96.4528C140.654 103.469 142.383 116.62 143.645 126.161C146.593 114.601 151.328 96.4528 151.328 96.4528H139.749Z" fill="#37474F"/>
<path d="M136.544 179.896C137.293 180.139 158.69 179.943 159.502 179.418C159.811 179.222 159.964 176.106 160.043 172.331C160.043 172.292 160.043 172.253 160.043 172.214C160.058 171.437 160.074 170.634 160.078 169.823C160.078 169.709 160.078 169.599 160.082 169.489C160.133 164.041 159.737 158.389 159.737 158.389L145.751 158.479L146.143 169.478L146.159 169.913L146.237 172.19L146.245 172.425C146.245 172.425 138.088 176.165 137.261 176.835C136.434 177.497 135.795 179.657 136.544 179.896Z" fill="#FFA982"/>
<path d="M136.544 179.896C137.293 180.139 158.69 179.943 159.502 179.418C159.811 179.222 159.964 176.106 160.043 172.331C160.043 172.292 160.043 172.253 160.043 172.214C160.058 171.437 160.074 170.634 160.078 169.823C160.078 169.709 160.078 169.599 160.082 169.489L146.143 169.478L146.159 169.913L146.237 172.19L146.245 172.425C146.245 172.425 138.088 176.165 137.261 176.835C136.434 177.497 135.795 179.657 136.544 179.896Z" fill="#EBEBEB"/>
<path d="M136.544 179.896C137.293 180.139 158.69 179.943 159.502 179.418C159.811 179.222 159.964 176.106 160.043 172.331C160.043 172.292 160.043 172.253 160.043 172.214L146.237 172.186L146.245 172.421C146.245 172.421 138.088 176.161 137.261 176.831C136.434 177.497 135.795 179.657 136.544 179.896Z" fill="#42A9D1"/>
<path d="M136.779 179.065C140.385 178.944 154.943 178.791 158.518 178.944C158.546 178.944 158.546 178.963 158.518 178.967C154.947 179.167 140.389 179.202 136.779 179.124C136.705 179.124 136.701 179.069 136.779 179.065Z" fill="#263238"/>
<path d="M144.702 172.237C146.117 171.959 147.857 172.163 148.951 173.162C148.994 173.201 148.939 173.26 148.892 173.248C147.489 172.821 146.176 172.551 144.71 172.417C144.604 172.41 144.6 172.257 144.702 172.237Z" fill="#263238"/>
<path d="M143.682 172.864C145.097 172.586 146.838 172.786 147.931 173.789C147.974 173.829 147.919 173.887 147.872 173.876C146.469 173.448 145.156 173.178 143.69 173.045C143.584 173.037 143.58 172.884 143.682 172.864Z" fill="#263238"/>
<path d="M142.662 173.491C144.077 173.213 145.818 173.413 146.911 174.417C146.955 174.456 146.9 174.514 146.853 174.503C145.449 174.075 144.136 173.805 142.67 173.672C142.564 173.664 142.561 173.511 142.662 173.491Z" fill="#263238"/>
<path d="M138.527 96.4528C138.527 96.4528 138.829 102.701 140.26 107.651C140.373 108.059 140.499 108.463 140.632 108.851C140.632 108.851 142.121 109.392 144.395 110.787C144.395 110.787 144.544 115.816 144.697 121.422C144.865 127.689 145.038 134.682 145.003 136.164C144.873 141.71 145.696 172.218 145.696 172.218L161.105 172.28C161.105 172.28 158.318 138.214 158.337 136.179C158.369 132.914 157.593 118.474 156.993 107.945C156.625 101.458 156.327 96.4567 156.327 96.4567H138.527V96.4528Z" fill="#263238"/>
<path d="M146.386 169.478C148.738 169.438 148.063 169.415 150.419 169.403C151.572 169.395 159.141 169.364 160.215 169.544C160.238 169.548 160.238 169.587 160.215 169.591C159.137 169.764 151.568 169.666 150.415 169.65C148.06 169.619 148.738 169.603 146.386 169.54C146.343 169.544 146.343 169.478 146.386 169.478Z" fill="#37474F"/>
<path d="M155.193 98.687C155.475 107.283 155.777 115.879 156.161 124.471C156.545 133.095 157.067 141.71 157.788 150.31C158.192 155.116 158.572 161.873 159.089 166.667C159.093 166.698 159.042 166.71 159.038 166.679C157.917 158.153 157.29 147.609 156.741 139.029C156.189 130.449 155.816 121.857 155.522 113.265C155.358 108.404 155.232 103.544 155.083 98.6831C155.083 98.6126 155.189 98.6165 155.193 98.687Z" fill="#37474F"/>
<path d="M140.153 108.479C141.686 109.086 143.156 109.921 144.559 110.787C144.614 110.823 144.571 110.909 144.512 110.877C143.027 110.156 141.51 109.458 140.063 108.655C139.95 108.592 140.036 108.431 140.153 108.479Z" fill="#37474F"/>
<path d="M139.264 101.082C139.397 101.799 139.569 102.509 139.726 103.218C139.871 103.885 139.977 104.567 140.153 105.229C140.326 105.868 140.596 106.456 141.09 106.915C141.353 107.158 141.643 107.373 141.921 107.597C142.07 107.718 142.235 107.832 142.392 107.953C142.372 107.859 142.356 107.761 142.337 107.663C142.29 107.393 142.243 107.118 142.196 106.848C142.094 106.244 142 105.641 141.906 105.033C141.725 103.845 141.557 102.642 141.31 101.466C141.298 101.419 141.372 101.399 141.384 101.447C141.682 102.615 142.007 103.767 142.266 104.943C142.392 105.519 142.842 108.369 142.866 108.569C142.885 108.776 142.905 108.984 142.913 109.196C142.921 109.404 142.96 109.631 142.913 109.835C142.901 109.886 142.838 109.878 142.815 109.843C142.815 109.843 142.815 109.843 142.811 109.847C142.709 109.666 142.682 109.427 142.631 109.227C142.58 109.023 142.533 108.82 142.497 108.612C142.486 108.537 142.474 108.459 142.462 108.384C142.18 108.212 141.921 107.989 141.659 107.8C141.376 107.597 141.086 107.397 140.82 107.169C140.306 106.738 139.989 106.209 139.797 105.57C139.597 104.908 139.538 104.206 139.46 103.524C139.369 102.717 139.303 101.901 139.189 101.094C139.185 101.055 139.256 101.035 139.264 101.082Z" fill="#37474F"/>
<path d="M144.367 78.1593C143.674 80.86 140.91 87.0297 136.277 92.1175C134.486 94.0813 120.3 96.1588 118.803 95.7276C117.756 95.4258 114.683 86.3555 115.683 85.5951C117.556 84.1644 130.86 85.8303 131.389 85.4853C132.193 84.9562 137.457 80.6719 140.742 76.7639C143.141 73.9103 145.52 73.6634 144.367 78.1593Z" fill="#FFA982"/>
<path d="M141.338 86.234L132.761 83.7136C132.761 83.7136 139.594 76.6424 142.188 75.1294C145.109 73.4282 145.34 75.294 144.548 78.4063C143.752 81.5225 141.338 86.234 141.338 86.234Z" fill="#42A9D1"/>
<path d="M134.416 82.5455C134.725 82.5847 137.41 83.3295 137.99 83.502C138.57 83.6744 140.95 84.3643 141.534 84.5956C141.561 84.6073 141.549 84.6426 141.522 84.6387C140.907 84.525 138.508 83.8351 137.912 83.6705C137.316 83.5059 134.678 82.7102 134.4 82.5847C134.376 82.573 134.392 82.5416 134.416 82.5455Z" fill="#263238"/>
<path d="M138.03 85.258L141.338 86.2301C141.338 86.2301 143.752 81.5224 144.548 78.4102C145.128 76.1328 145.16 74.5218 143.995 74.4865L138.03 85.258Z" fill="#263238"/>
<path d="M157.755 102.666L135.514 102.56C135.514 102.995 140.339 77.7008 142.664 74.6669C143.161 74.0201 146.56 73.2009 148.092 74.6277C154.819 80.8875 157.755 102.948 157.755 102.666Z" fill="#42A9D1"/>
<path opacity="0.1" d="M140.483 81.5969L143.325 81.7929L143.157 85.5441L141.201 86.0615L140.083 85.1757L140.483 81.5969Z" fill="black"/>
<path d="M144.151 77.7086C145.21 77.9634 146.777 75.9565 147.538 74.4474C147.589 74.3454 147.397 73.2754 147.224 71.9701C147.122 71.1783 147.028 70.2924 147.001 69.4771C146.997 69.3086 141.933 70.8882 141.933 70.8882C141.933 70.8882 142.493 72.5776 142.532 74.0005C142.536 74.1181 142.524 74.2318 142.509 74.3376C142.509 74.3533 142.505 74.3729 142.505 74.3925C142.423 75.0275 143.018 77.4342 144.151 77.7086Z" fill="#FFA982"/>
<path d="M142.509 74.3337C142.509 74.3493 142.505 74.3689 142.505 74.3885C142.666 74.4042 142.838 74.4081 143.03 74.4003C146.037 74.2317 146.703 70.4413 146.825 69.4849C145.923 69.6456 141.937 70.8882 141.937 70.8882C141.937 70.8882 142.497 72.5815 142.536 74.0005C142.536 74.1181 142.529 74.2278 142.509 74.3337Z" fill="#263238"/>
<path d="M147.954 63.3623C148.386 65.2085 147.08 70.3669 145.716 71.4487C143.737 73.0127 140.676 72.9696 139.39 70.6334C138.143 68.3678 139.962 61.6729 141.471 60.7086C143.69 59.2897 147.316 60.6381 147.954 63.3623Z" fill="#FFA982"/>
<path d="M142.772 66.1493C142.78 66.1375 142.796 66.1728 142.792 66.1885C142.694 66.5334 142.643 66.945 142.929 67.137C142.937 67.1449 142.933 67.1606 142.921 67.1566C142.549 67.0077 142.627 66.4628 142.772 66.1493Z" fill="#263238"/>
<path d="M143.175 65.8631C143.744 65.9611 143.512 67.0939 142.983 67.0038C142.462 66.9176 142.697 65.7847 143.175 65.8631Z" fill="#263238"/>
<path d="M140.882 65.7887C140.882 65.773 140.851 65.8004 140.847 65.8122C140.784 66.1649 140.655 66.5608 140.314 66.6118C140.302 66.6118 140.302 66.6314 140.314 66.6314C140.714 66.6588 140.878 66.1336 140.882 65.7887Z" fill="#263238"/>
<path d="M140.643 65.3575C140.087 65.1968 139.808 66.3217 140.326 66.4707C140.831 66.6157 141.11 65.4907 140.643 65.3575Z" fill="#263238"/>
<path d="M143.729 65.4398C143.584 65.3692 143.458 65.2791 143.321 65.1928C143.164 65.0988 143.031 65.036 142.953 64.8636C142.909 64.7695 142.964 64.6323 143.051 64.5814C143.25 64.4677 143.47 64.5343 143.662 64.6441C143.87 64.7617 143.999 64.9028 144.085 65.1262C144.175 65.3418 143.921 65.5299 143.729 65.4398Z" fill="#263238"/>
<path d="M140.322 64.6951C140.482 64.7029 140.635 64.6794 140.796 64.6715C140.976 64.6598 141.125 64.6715 141.274 64.5539C141.356 64.4912 141.372 64.3423 141.321 64.26C141.2 64.064 140.972 64.0209 140.753 64.0248C140.514 64.0287 140.333 64.0953 140.149 64.2482C139.977 64.3972 140.11 64.6872 140.322 64.6951Z" fill="#263238"/>
<path d="M142.529 69.4772C142.427 69.5438 142.321 69.6379 142.192 69.6222C142.067 69.6065 141.937 69.5242 141.831 69.4576C141.82 69.4497 141.808 69.4615 141.812 69.4732C141.875 69.6261 142.051 69.7515 142.219 69.7555C142.384 69.7594 142.49 69.6379 142.56 69.5007C142.568 69.4811 142.545 69.4654 142.529 69.4772Z" fill="#263238"/>
<path d="M142.375 68.3483C142.117 68.6109 141.791 68.7206 141.466 68.7167C141.321 68.7167 141.172 68.6893 141.031 68.6462C141.003 68.6383 140.976 68.6305 140.952 68.6187C140.929 68.6109 140.905 68.603 140.878 68.5913C140.839 68.5756 140.823 68.5403 140.823 68.4972V68.4933C140.827 68.4815 140.827 68.4698 140.835 68.458C140.835 68.458 140.835 68.458 140.835 68.4541L140.843 68.4227C140.89 68.1523 141.003 67.7446 141.003 67.7446C140.894 67.7721 140.345 67.8975 140.38 67.7564C140.69 66.6001 141.039 65.3183 141.591 64.2325C141.607 64.1972 141.666 64.2168 141.654 64.256C141.399 65.3771 140.948 66.4472 140.674 67.5682C140.846 67.5408 141.133 67.482 141.274 67.5133C141.309 67.5329 141.046 68.2934 141.035 68.4188C141.035 68.4188 141.035 68.4227 141.035 68.4306C141.478 68.5834 141.846 68.5168 142.352 68.3012C142.379 68.2973 142.403 68.3247 142.375 68.3483Z" fill="#263238"/>
<path d="M141.223 68.5442C141.223 68.5442 141.396 68.9166 141.702 69.1008C141.815 69.1675 141.941 69.2145 142.086 69.2067C142.38 69.191 142.442 68.9362 142.435 68.7049C142.431 68.5168 142.38 68.3404 142.38 68.3404C142.38 68.3404 141.886 68.6383 141.223 68.5442Z" fill="#263238"/>
<path d="M141.698 69.1008C141.811 69.1674 141.937 69.2145 142.082 69.2066C142.376 69.191 142.438 68.9362 142.43 68.7049C142.125 68.6696 141.784 68.8147 141.698 69.1008Z" fill="#FF98B9"/>
<path d="M140.366 62.2766C140.648 61.8689 140.962 61.4652 141.252 61.4338C141.542 61.4025 141.581 62.0923 142.181 62.257C142.992 62.4804 143.549 61.8062 144.717 61.963C146.394 62.1864 146.841 63.719 146.398 66.0748C146.002 68.1797 147.229 68.6383 147.229 68.6383C147.229 68.6383 148.946 64.1698 147.954 62.3706C146.963 60.5715 144.113 59.2819 141.804 60.3324C140.965 60.7126 140.366 62.2766 140.366 62.2766Z" fill="#263238"/>
<path d="M146.343 67.5917C146.343 67.5917 147.668 66.0081 148.397 66.4942C149.126 66.9802 148.025 69.3478 147.1 69.6065C146.171 69.8612 145.92 69.0067 145.92 69.0067L146.343 67.5917Z" fill="#FFA982"/>
<path d="M148.064 67.1684C148.079 67.1684 148.079 67.188 148.068 67.1919C147.417 67.3918 147.033 67.9484 146.747 68.5325C146.954 68.3169 147.221 68.211 147.515 68.4619C147.531 68.4737 147.511 68.5011 147.495 68.4933C147.241 68.4149 147.052 68.4423 146.86 68.6344C146.723 68.7716 146.625 68.948 146.519 69.1087C146.484 69.1635 146.386 69.1243 146.413 69.0616C146.417 69.0577 146.417 69.0538 146.421 69.046C146.472 68.2424 147.197 67.1723 148.064 67.1684Z" fill="#263238"/>
<path d="M140.714 61.2614C141.224 61.2378 143.932 61.8493 145.05 62.6137C146.171 63.378 147.997 65.5574 148.091 65.6711C148.185 65.7847 149.616 61.4103 146.139 59.8855C142.349 58.2196 140.714 61.2614 140.714 61.2614Z" fill="#42A9D1"/>
<path d="M147.919 65.4437C147.919 65.4437 146.131 61.8062 144.936 60.8223C143.74 59.8385 140.828 58.8468 138.821 59.3015C137.257 59.6542 140.416 62.1981 140.416 62.1981C140.416 62.1981 140.612 61.7043 141.114 61.6102C142.086 61.4299 143.74 62.0374 144.653 62.5548C145.798 63.2016 147.919 65.4437 147.919 65.4437Z" fill="#42A9D1"/>
<path opacity="0.2" d="M147.919 65.4437C147.919 65.4437 146.131 61.8062 144.936 60.8223C143.74 59.8385 140.828 58.8468 138.821 59.3015C137.257 59.6542 140.416 62.1981 140.416 62.1981C140.416 62.1981 140.612 61.7043 141.114 61.6102C142.086 61.4299 143.74 62.0374 144.653 62.5548C145.798 63.2016 147.919 65.4437 147.919 65.4437Z" fill="black"/>
<path d="M158.604 89.0759H141.063V108.502H158.604V89.0759Z" fill="#FFC727"/>
<path opacity="0.1" d="M158.604 89.0759H141.063V108.502H158.604V89.0759Z" fill="black"/>
<path d="M132.002 108.501H141.061V89.075H132.002V108.501Z" fill="#FFC727"/>
<path opacity="0.32" d="M132.002 108.501H141.061V89.075H132.002V108.501Z" fill="black"/>
<path d="M148.342 93.2739H148.715H148.993L149.154 92.9486L149.377 93.2739L149.679 92.6076L149.969 93.2739H150.788H151.165L151.298 92.831L151.427 93.2739H151.67V89.0759H148.342V93.2739Z" fill="white"/>
<path d="M132.628 107.162C133.298 105.782 133.965 104.394 134.623 103.003L136.587 98.8243L138.527 94.6262C139.17 93.2269 139.809 91.8197 140.436 90.4086C139.766 91.7883 139.099 93.1759 138.441 94.5674L136.477 98.7459L134.537 102.944C133.894 104.347 133.259 105.754 132.628 107.162Z" fill="#FFC727"/>
<path d="M132.628 90.4126C133.259 91.8237 133.894 93.2309 134.537 94.6302L136.477 98.8283L138.441 103.007C139.099 104.398 139.766 105.782 140.436 107.166C139.805 105.754 139.17 104.347 138.527 102.948L136.587 98.7499L134.623 94.5714C133.965 93.1799 133.298 91.7963 132.628 90.4126Z" fill="#FFC727"/>
<path d="M152.137 76.2936C156.417 79.5117 164.719 86.724 165.444 90.6241C166.397 95.7433 162.038 105.813 160.176 107.757C158.922 109.07 153.395 104.245 153.062 103.034C152.733 101.823 157.217 93.6776 157.256 92.7408C157.295 91.804 151.549 83.2315 149.056 79.4293C145.916 74.6316 148.515 73.5654 152.137 76.2936Z" fill="#FFA982"/>
<path d="M150.863 103.728C151.255 103.273 151.019 103.065 149.977 103.269C148.918 103.473 144.975 105.162 144.501 103.732C144.023 102.297 149.648 99.9962 151.411 99.7924C153.175 99.5807 156.099 99.8708 156.099 99.8708C155.096 100.541 152.815 102.391 150.863 103.728Z" fill="#FFA982"/>
<path d="M160.694 107.107C158.922 110.062 153.787 111.924 149.953 111.998C149.201 112.014 148.762 111.642 148.762 111.642C147.045 111.705 146.5 110.913 146.5 110.913C144.881 110.482 144.438 109.596 144.438 109.596C144.438 109.596 142.42 109.647 142.188 108.432C141.922 107.071 144.807 107.263 146.461 106.401C150.247 104.422 155.073 100.553 156.107 99.8747L160.694 107.107Z" fill="#FFA982"/>
<path d="M151.878 107.114C150.753 107.675 149.664 108.255 148.468 108.659C147.155 109.102 145.818 109.31 144.466 109.556C144.423 109.564 144.431 109.623 144.474 109.623C146.998 109.568 149.828 108.588 151.91 107.169C151.953 107.13 151.933 107.087 151.878 107.114Z" fill="#263238"/>
<path d="M153.403 109.223C152.278 109.709 150.295 110.544 146.493 110.87C146.481 110.87 146.477 110.893 146.493 110.893C148.989 111.011 151.239 110.446 153.427 109.278C153.493 109.243 153.478 109.192 153.403 109.223Z" fill="#263238"/>
<path d="M154.203 110.376C152.259 111.124 150.938 111.352 148.77 111.634C148.758 111.634 148.758 111.657 148.77 111.657C151.267 111.599 152.168 111.293 154.238 110.442C154.309 110.407 154.277 110.344 154.203 110.376Z" fill="#263238"/>
<path d="M152.38 85.8107L160.502 82.0752C160.502 82.0752 152.717 76.0701 149.93 74.9491C146.794 73.6869 146.834 75.5684 148.072 78.5357C149.307 81.5029 152.38 85.8107 152.38 85.8107Z" fill="#42A9D1"/>
<path d="M158.695 81.158C158.393 81.2442 155.845 82.3692 155.297 82.624C154.748 82.8788 152.494 83.9057 151.949 84.2193C151.926 84.235 151.937 84.2703 151.965 84.2585C152.557 84.0547 154.83 83.0277 155.395 82.7768C155.959 82.526 158.456 81.3579 158.715 81.1933C158.738 81.1776 158.715 81.1502 158.695 81.158Z" fill="#263238"/>
<path d="M153.019 85.5089C152.768 85.6029 152.38 85.7676 152.38 85.7676C151.78 84.67 151.063 83.6274 150.416 82.5612C149.758 81.4715 149.068 80.4093 148.398 79.3274C148.386 79.3117 148.362 79.3274 148.37 79.3431C148.711 79.9781 149.052 80.6092 149.401 81.2403C149.342 81.1697 149.287 81.0991 149.229 81.0286C149.025 80.7777 148.817 80.5308 148.621 80.2682C148.605 80.2446 148.57 80.2682 148.586 80.2917C148.758 80.57 148.939 80.8444 149.146 81.0952C149.291 81.2716 149.448 81.4402 149.609 81.6048C149.813 81.9654 150.009 82.326 150.22 82.6788C150.867 83.7685 151.506 85.0267 152.235 86.0615C152.235 86.0615 152.788 85.748 153.046 85.5598C153.086 85.5402 153.058 85.4971 153.019 85.5089Z" fill="#263238"/>
<path d="M130.382 97.6601L117.023 98.7616L112.539 80.4916L125.898 79.3902L130.382 97.6601Z" fill="#37474F"/>
<path d="M122.707 80.7542L116.373 81.2717L115.879 79.253L122.213 78.7395L122.707 80.7542Z" fill="#A6A6A6"/>
<path d="M120.774 78.8571L119.994 78.9198L119.767 77.9908L117.874 78.1437L118.097 79.0766L117.321 79.1393L116.906 77.446L120.371 77.1638L120.774 78.8571Z" fill="#A6A6A6"/>
<path d="M110.584 88.7976C110.701 89.9382 111.713 90.1224 111.713 90.1224C111.713 90.1224 110.623 91.0122 110.933 92.1411C111.089 92.7212 112.16 92.9799 112.16 92.9799C112.16 92.9799 111.317 93.7325 111.654 94.7164C111.92 95.5003 112.951 95.6414 112.951 95.6414C112.951 95.6414 112.481 96.739 113.01 97.4524C114.084 98.8987 121.034 97.3269 121.528 94.5204C121.759 93.2151 120.081 93.6894 120.081 93.6894C120.081 93.6894 122.327 92.4233 122.041 90.9809C121.755 89.5384 119.611 90.291 119.611 90.291C119.611 90.291 121.775 89.0445 121.328 87.5785C120.861 86.0537 118.847 87.1709 118.847 87.1709C118.847 87.1709 120.156 85.7715 119.556 84.7328C118.564 83.012 115.581 86.1243 113.974 86.1086L113.343 83.7293C113.335 83.7293 110.451 87.5354 110.584 88.7976Z" fill="#FFA982"/>
<path d="M113.104 95.6885C113.08 95.6924 113.08 95.7238 113.104 95.7277C115.514 95.7669 118.18 95.0731 120.167 93.6816C120.234 93.6346 120.187 93.5091 120.104 93.5483C117.784 94.5832 115.64 95.324 113.104 95.6885Z" fill="#263238"/>
<path d="M112.124 92.9996C112.097 93.0035 112.105 93.0505 112.132 93.0505C114.617 93.078 117.596 92.2117 119.697 90.3381C119.768 90.2754 119.768 90.1421 119.682 90.2126C118.192 91.3494 114.41 92.686 112.124 92.9996Z" fill="#263238"/>
<path d="M118.952 86.9906C116.867 88.7074 114.441 89.5855 111.815 90.1264C111.779 90.1342 111.795 90.1813 111.822 90.1813C113.179 90.2675 114.813 89.7462 116.052 89.2327C117.24 88.7427 118.212 88.0607 119.007 87.0612C119.043 87.0259 118.996 86.9553 118.952 86.9906Z" fill="#263238"/>
<path d="M142.098 75.2549C142.172 75.6508 142.278 76.0349 142.423 76.4073C142.56 76.7796 142.721 77.1442 142.921 77.4813C143.121 77.8145 143.348 78.1398 143.638 78.3711C143.783 78.4808 143.94 78.567 144.105 78.5945C144.238 78.6141 144.434 78.5553 144.603 78.4886C145.304 78.1986 145.884 77.6263 146.402 77.0383C146.531 76.8894 146.653 76.7326 146.778 76.5758C146.892 76.4151 147.013 76.2544 147.123 76.0898C147.233 75.9251 147.35 75.7605 147.456 75.592C147.558 75.4195 147.668 75.2509 147.778 75.0824C147.476 75.8271 147.092 76.5484 146.602 77.1991C146.108 77.8419 145.52 78.4573 144.728 78.7866C144.524 78.8571 144.328 78.9394 144.058 78.9041C143.823 78.8649 143.623 78.7434 143.454 78.6062C143.121 78.324 142.894 77.9673 142.713 77.5989C142.353 76.858 142.121 76.0623 142.098 75.2549Z" fill="#263238"/>
</svg>
