<svg width="140" height="22" viewBox="0 0 140 22" fill="none" xmlns="http://www.w3.org/2000/svg">
<path d="M9.57 16.516C9.218 16.736 8.78533 16.9047 8.272 17.022C7.77333 17.1393 7.238 17.198 6.666 17.198C5.11133 17.198 3.916 16.8167 3.08 16.054C2.244 15.2913 1.826 14.1547 1.826 12.644V8.64H0.088V5.516H1.826V2.414H6.006V5.516H8.734V8.64H6.006V12.6C6.006 13.0253 6.116 13.3627 6.336 13.612C6.57067 13.8467 6.87867 13.964 7.26 13.964C7.744 13.964 8.16933 13.8393 8.536 13.59L9.57 16.516ZM15.1638 6.506C15.5892 5.96333 16.1392 5.56 16.8138 5.296C17.5032 5.01733 18.2878 4.878 19.1678 4.878V8.64C18.7865 8.596 18.4712 8.574 18.2218 8.574C17.3272 8.574 16.6232 8.816 16.1098 9.3C15.6112 9.784 15.3618 10.5247 15.3618 11.522V17H11.1818V5.076H15.1638V6.506ZM25.8888 4.878C27.8688 4.878 29.3795 5.33267 30.4208 6.242C31.4622 7.13667 31.9828 8.51533 31.9828 10.378V17H28.0888V15.46C27.4875 16.6187 26.3142 17.198 24.5688 17.198C23.6448 17.198 22.8455 17.0367 22.1708 16.714C21.4962 16.3913 20.9828 15.9587 20.6308 15.416C20.2935 14.8587 20.1248 14.228 20.1248 13.524C20.1248 12.3947 20.5575 11.522 21.4228 10.906C22.2882 10.2753 23.6228 9.96 25.4268 9.96H27.8028C27.7295 8.69867 26.8862 8.068 25.2728 8.068C24.7008 8.068 24.1215 8.16333 23.5348 8.354C22.9482 8.53 22.4495 8.77933 22.0388 9.102L20.6308 6.264C21.2908 5.824 22.0902 5.48667 23.0288 5.252C23.9822 5.00267 24.9355 4.878 25.8888 4.878ZM25.7348 14.558C26.2188 14.558 26.6442 14.4407 27.0108 14.206C27.3775 13.9713 27.6415 13.6267 27.8028 13.172V12.138H25.9988C24.7815 12.138 24.1728 12.5413 24.1728 13.348C24.1728 13.7147 24.3122 14.008 24.5908 14.228C24.8695 14.448 25.2508 14.558 25.7348 14.558ZM40.8872 17.198C39.5672 17.198 38.3865 16.934 37.3452 16.406C36.3038 15.878 35.4898 15.1447 34.9032 14.206C34.3312 13.2673 34.0452 12.204 34.0452 11.016C34.0452 9.828 34.3312 8.772 34.9032 7.848C35.4898 6.90933 36.3038 6.18333 37.3452 5.67C38.3865 5.142 39.5672 4.878 40.8872 4.878C42.2365 4.878 43.4025 5.17133 44.3852 5.758C45.3678 6.33 46.0645 7.12933 46.4752 8.156L43.2412 9.806C42.6985 8.73533 41.9065 8.2 40.8652 8.2C40.1172 8.2 39.4938 8.44933 38.9952 8.948C38.5112 9.44667 38.2692 10.136 38.2692 11.016C38.2692 11.9107 38.5112 12.6147 38.9952 13.128C39.4938 13.6267 40.1172 13.876 40.8652 13.876C41.9065 13.876 42.6985 13.3407 43.2412 12.27L46.4752 13.92C46.0645 14.9467 45.3678 15.7533 44.3852 16.34C43.4025 16.912 42.2365 17.198 40.8872 17.198ZM53.4181 12.82L52.1861 14.074V17H48.0061V0.675999H52.1861V9.234L56.4541 5.076H61.4041L56.4541 10.18L61.8221 17H56.7621L53.4181 12.82ZM65.0629 17.198C64.3589 17.198 63.7649 16.9633 63.2809 16.494C62.7969 16.0247 62.5549 15.4307 62.5549 14.712C62.5549 13.9787 62.7896 13.3847 63.2589 12.93C63.7429 12.4753 64.3443 12.248 65.0629 12.248C65.7963 12.248 66.3976 12.4753 66.8669 12.93C67.3363 13.3847 67.5709 13.9787 67.5709 14.712C67.5709 15.4307 67.3289 16.0247 66.8449 16.494C66.3756 16.9633 65.7816 17.198 65.0629 17.198Z" fill="#E24949"/>
<path d="M82.3594 5.076V14.822C82.3594 17.0367 81.7581 18.694 80.5554 19.794C79.3527 20.9087 77.6221 21.466 75.3634 21.466C74.1901 21.466 73.0901 21.334 72.0634 21.07C71.0367 20.806 70.1641 20.4173 69.4454 19.904L70.9634 16.978C71.4474 17.374 72.0561 17.682 72.7894 17.902C73.5374 18.1367 74.2707 18.254 74.9894 18.254C76.0894 18.254 76.8961 18.012 77.4094 17.528C77.9227 17.044 78.1794 16.3253 78.1794 15.372V14.976C77.3727 15.9147 76.1921 16.384 74.6374 16.384C73.5814 16.384 72.6061 16.1493 71.7114 15.68C70.8167 15.196 70.1054 14.5213 69.5774 13.656C69.0494 12.776 68.7854 11.764 68.7854 10.62C68.7854 9.49067 69.0494 8.49333 69.5774 7.628C70.1054 6.748 70.8167 6.07333 71.7114 5.604C72.6061 5.12 73.5814 4.878 74.6374 4.878C76.3387 4.878 77.5854 5.428 78.3774 6.528V5.076H82.3594ZM75.6274 13.062C76.3754 13.062 76.9914 12.8347 77.4754 12.38C77.9741 11.9253 78.2234 11.3387 78.2234 10.62C78.2234 9.90133 77.9814 9.322 77.4974 8.882C77.0134 8.42733 76.3901 8.2 75.6274 8.2C74.8647 8.2 74.2341 8.42733 73.7354 8.882C73.2514 9.322 73.0094 9.90133 73.0094 10.62C73.0094 11.3387 73.2587 11.9253 73.7574 12.38C74.2561 12.8347 74.8794 13.062 75.6274 13.062ZM85.0451 0.675999H89.2251V17H85.0451V0.675999ZM97.9256 17.198C96.6496 17.198 95.4983 16.934 94.4716 16.406C93.4449 15.878 92.6383 15.1447 92.0516 14.206C91.4796 13.2673 91.1936 12.204 91.1936 11.016C91.1936 9.84267 91.4796 8.78667 92.0516 7.848C92.6383 6.90933 93.4376 6.18333 94.4496 5.67C95.4763 5.142 96.6349 4.878 97.9256 4.878C99.2163 4.878 100.375 5.142 101.402 5.67C102.428 6.18333 103.228 6.90933 103.8 7.848C104.372 8.772 104.658 9.828 104.658 11.016C104.658 12.204 104.372 13.2673 103.8 14.206C103.228 15.1447 102.428 15.878 101.402 16.406C100.375 16.934 99.2163 17.198 97.9256 17.198ZM97.9256 13.876C98.6589 13.876 99.2603 13.6267 99.7296 13.128C100.199 12.6147 100.434 11.9107 100.434 11.016C100.434 10.136 100.199 9.44667 99.7296 8.948C99.2603 8.44933 98.6589 8.2 97.9256 8.2C97.1923 8.2 96.5909 8.44933 96.1216 8.948C95.6523 9.44667 95.4176 10.136 95.4176 11.016C95.4176 11.9107 95.6523 12.6147 96.1216 13.128C96.5909 13.6267 97.1923 13.876 97.9256 13.876ZM114.096 4.878C115.181 4.878 116.164 5.12733 117.044 5.626C117.939 6.12467 118.643 6.84333 119.156 7.782C119.684 8.706 119.948 9.784 119.948 11.016C119.948 12.248 119.684 13.3333 119.156 14.272C118.643 15.2107 117.939 15.9367 117.044 16.45C116.164 16.9487 115.181 17.198 114.096 17.198C112.527 17.198 111.353 16.736 110.576 15.812V17H106.594V0.675999H110.774V6.11C111.581 5.28867 112.688 4.878 114.096 4.878ZM113.216 13.876C113.949 13.876 114.551 13.6267 115.02 13.128C115.489 12.6147 115.724 11.9107 115.724 11.016C115.724 10.136 115.489 9.44667 115.02 8.948C114.551 8.44933 113.949 8.2 113.216 8.2C112.483 8.2 111.881 8.44933 111.412 8.948C110.943 9.44667 110.708 10.136 110.708 11.016C110.708 11.9107 110.943 12.6147 111.412 13.128C111.881 13.6267 112.483 13.876 113.216 13.876ZM126.715 4.878C128.695 4.878 130.206 5.33267 131.247 6.242C132.288 7.13667 132.809 8.51533 132.809 10.378V17H128.915V15.46C128.314 16.6187 127.14 17.198 125.395 17.198C124.471 17.198 123.672 17.0367 122.997 16.714C122.322 16.3913 121.809 15.9587 121.457 15.416C121.12 14.8587 120.951 14.228 120.951 13.524C120.951 12.3947 121.384 11.522 122.249 10.906C123.114 10.2753 124.449 9.96 126.253 9.96H128.629C128.556 8.69867 127.712 8.068 126.099 8.068C125.527 8.068 124.948 8.16333 124.361 8.354C123.774 8.53 123.276 8.77933 122.865 9.102L121.457 6.264C122.117 5.824 122.916 5.48667 123.855 5.252C124.808 5.00267 125.762 4.878 126.715 4.878ZM126.561 14.558C127.045 14.558 127.47 14.4407 127.837 14.206C128.204 13.9713 128.468 13.6267 128.629 13.172V12.138H126.825C125.608 12.138 124.999 12.5413 124.999 13.348C124.999 13.7147 125.138 14.008 125.417 14.228C125.696 14.448 126.077 14.558 126.561 14.558ZM135.447 0.675999H139.627V17H135.447V0.675999Z" fill="black"/>
</svg>
