<svg width="50" height="63" viewBox="0 0 50 63" fill="none" xmlns="http://www.w3.org/2000/svg">
<path d="M21.336 0C33.0535 0.0461287 42.5513 9.62334 42.5054 21.3466V21.5795C42.3471 29.9573 37.3194 36.9096 33.1304 41.2655C31.9382 42.5109 30.6692 43.7059 29.3607 44.8218C28.5769 45.4917 27.4001 45.3995 26.7304 44.6153C26.0608 43.8289 26.1552 42.6515 26.939 41.9816C28.1509 40.947 29.3299 39.8355 30.4387 38.6779C34.1666 34.803 38.6367 28.6767 38.7728 21.5114C38.8102 11.6684 30.9831 3.77157 21.3207 3.73204H21.2526C11.6231 3.73204 3.7697 11.552 3.73238 21.1929C3.89704 25.9551 5.50416 30.4823 8.38249 34.2803C11.7416 38.7613 16.8374 43.506 21.6807 46.6647C22.5458 47.2271 22.7895 48.3825 22.2252 49.2479C21.8695 49.7971 21.2702 50.0958 20.6598 50.0958C20.3107 50.0958 19.9594 49.9992 19.6433 49.7927C14.4575 46.4121 8.99943 41.3292 5.40097 36.5296C2.06159 32.121 0.193206 26.8601 0 21.3225C0.0461059 9.48275 9.57246 0 21.2526 0H21.336Z" fill="black"/>
<path d="M25.0479 38.7103H34.1562V47.8187H25.0479V38.7103Z" fill="white"/>
<path fill-rule="evenodd" clip-rule="evenodd" d="M10.2989 41.1174C9.29562 40.5745 9.29562 39.6942 10.2989 39.1512L18.7763 34.5635C19.7795 34.0205 21.4061 34.0205 22.4094 34.5635L30.8868 39.1512C31.89 39.6942 31.89 40.5745 30.8868 41.1174L22.4094 45.7052C21.4061 46.2481 19.7795 46.2481 18.7763 45.7052L10.2989 41.1174ZM22.834 59.0215C21.8783 59.489 21.1029 59.0282 21.1021 57.9923L21.0952 49.2386C21.0944 48.2026 21.8685 46.9838 22.8242 46.5162L30.8995 42.5655C31.8552 42.098 32.6306 42.5588 32.6314 43.5947L32.6383 52.3484C32.6391 53.3844 31.865 54.6032 30.9093 55.0708L22.834 59.0215ZM19.8856 57.9923C19.8847 59.0282 19.1093 59.489 18.1537 59.0215L10.0783 55.0708C9.12264 54.6032 8.34856 53.3844 8.34937 52.3484L8.3562 43.5947C8.35701 42.5588 9.13241 42.098 10.0881 42.5655L18.1634 46.5162C19.1191 46.9838 19.8932 48.2026 19.8924 49.2386L19.8856 57.9923Z" fill="#E24949"/>
<path fill-rule="evenodd" clip-rule="evenodd" d="M5.75127 40.1343C5.75127 37.8189 7.36057 36.4261 8.49256 35.8135L16.9699 31.2257C18.1639 30.5796 19.4821 30.3611 20.5928 30.3611C21.7035 30.3611 23.0218 30.5796 24.2157 31.2257L22.4094 34.5634C21.4061 34.0205 19.7795 34.0205 18.7762 34.5634L10.2989 39.1512C9.29559 39.6942 9.29559 40.5744 10.2989 41.1174L18.7762 45.7052C19.7795 46.2481 21.4061 46.2481 22.4094 45.7052L30.8868 41.1174C31.89 40.5744 31.89 39.6942 30.8868 39.1512L22.4094 34.5634L24.2157 31.2257L32.6931 35.8135C33.825 36.4261 35.4343 37.819 35.4343 40.1343C35.4343 40.2483 35.4304 40.3601 35.4229 40.4696C36.1562 41.4476 36.4258 42.6124 36.4265 43.5918L36.4334 52.3454C36.4345 53.7514 35.9357 55.0132 35.3361 55.9573C34.733 56.9069 33.8127 57.8753 32.5771 58.4798L24.5017 62.4305C23.4595 62.9404 21.9782 63.2579 20.4938 62.7227C19.0094 63.2579 17.5281 62.9404 16.4858 62.4305L8.4105 58.4798C7.17483 57.8753 6.25454 56.9069 5.65148 55.9573C5.05183 55.0132 4.5531 53.7514 4.5542 52.3454L4.56104 43.5918C4.56187 42.533 4.87691 41.2575 5.7523 40.2357C5.75161 40.2021 5.75127 40.1683 5.75127 40.1343ZM18.1536 59.0214C19.109 59.4888 19.8842 59.0285 19.8855 57.9932C19.8855 57.9929 19.8855 57.9925 19.8855 57.9922L19.8924 49.2386C19.8931 48.2519 19.191 47.0993 18.2985 46.5879C18.2539 46.5624 18.2089 46.5384 18.1634 46.5162L10.0881 42.5655C9.91976 42.4832 9.75704 42.4296 9.60315 42.4029C8.88329 42.2781 8.35684 42.7412 8.35618 43.5947L8.34934 52.3484C8.34853 53.3844 9.12261 54.6032 10.0783 55.0707L18.1536 59.0214ZM21.1021 57.9922C21.1021 57.9925 21.1021 57.9929 21.1021 57.9932C21.1033 59.0285 21.8785 59.4888 22.8339 59.0214L30.9093 55.0707C31.865 54.6032 32.639 53.3844 32.6382 52.3484L32.6314 43.5947C32.6308 42.8172 32.1939 42.3637 31.5719 42.3834C31.3652 42.39 31.1379 42.4489 30.8995 42.5655L22.8242 46.5162C21.8685 46.9838 21.0944 48.2026 21.0952 49.2386L21.1021 57.9922Z" fill="white"/>
<path d="M24.3651 27.8076C23.6209 27.0697 23.6157 25.8683 24.3536 25.1241C25.0915 24.3799 26.293 24.3747 27.0372 25.1126L43.2071 41.1452C43.9513 41.8831 43.9564 43.0846 43.2185 43.8288C42.4807 44.573 41.2792 44.5781 40.535 43.8402L24.3651 27.8076Z" fill="black"/>
<path fill-rule="evenodd" clip-rule="evenodd" d="M29.7092 22.4178L45.8791 38.4504C48.1117 40.6641 48.1271 44.2684 45.9134 46.501C43.6998 48.7336 40.0954 48.749 37.8628 46.5354L21.6929 30.5028C19.4603 28.2891 19.4449 24.6847 21.6585 22.4521C23.8722 20.2195 27.4766 20.2042 29.7092 22.4178ZM27.0371 25.1128L43.207 41.1454C43.9512 41.8833 43.9563 43.0847 43.2184 43.8289C42.4806 44.5731 41.2791 44.5783 40.5349 43.8404L24.365 27.8078C23.6208 27.0699 23.6156 25.8684 24.3535 25.1242C25.0914 24.38 26.2929 24.3749 27.0371 25.1128Z" fill="white"/>
<path fill-rule="evenodd" clip-rule="evenodd" d="M20.8733 25.807C24.0173 25.807 26.5661 23.2583 26.5661 20.1143C26.5661 16.9703 24.0173 14.4216 20.8733 14.4216C17.7293 14.4216 15.1806 16.9703 15.1806 20.1143C15.1806 23.2583 17.7293 25.807 20.8733 25.807ZM20.8733 29.6022C26.1133 29.6022 30.3612 25.3543 30.3612 20.1143C30.3612 14.8743 26.1133 10.6265 20.8733 10.6265C15.6334 10.6265 11.3855 14.8743 11.3855 20.1143C11.3855 25.3543 15.6334 29.6022 20.8733 29.6022Z" fill="black"/>
</svg>
