<svg width="16" height="16" viewBox="0 0 16 16" fill="none" xmlns="http://www.w3.org/2000/svg">
<rect width="16" height="16" rx="8" fill="#E24949"/>
<path d="M4.75871 7.90441C4.58515 7.72417 4.30374 7.72417 4.13017 7.90441C3.95661 8.08465 3.95661 8.37688 4.13017 8.55713L6.3524 10.8648C6.52596 11.0451 6.80737 11.0451 6.98094 10.8648L11.8698 5.7879C12.0434 5.60765 12.0434 5.31542 11.8698 5.13518C11.6963 4.95494 11.4149 4.95494 11.2413 5.13518L6.66667 9.88575L4.75871 7.90441Z" fill="white"/>
<mask id="mask0_346_21804" style="mask-type:alpha" maskUnits="userSpaceOnUse" x="4" y="5" width="8" height="6">
<path d="M4.75871 7.90441C4.58515 7.72417 4.30374 7.72417 4.13017 7.90441C3.95661 8.08465 3.95661 8.37688 4.13017 8.55713L6.3524 10.8648C6.52596 11.0451 6.80737 11.0451 6.98094 10.8648L11.8698 5.7879C12.0434 5.60765 12.0434 5.31542 11.8698 5.13518C11.6963 4.95494 11.4149 4.95494 11.2413 5.13518L6.66667 9.88575L4.75871 7.90441Z" fill="white"/>
</mask>
<g mask="url(#mask0_346_21804)">
</g>
</svg>
