<svg width="17" height="17" viewBox="0 0 17 17" fill="none" xmlns="http://www.w3.org/2000/svg">
<rect x="0.5" y="4.47827" width="11.5217" height="11.5217" rx="1.5" stroke="#E24949"/>
<path d="M4.86957 2.58696V2.58696C4.86957 2.50622 4.86957 2.46585 4.87073 2.43172C4.90664 1.38073 5.7503 0.537069 6.80129 0.501166C6.83542 0.5 6.87579 0.5 6.95652 0.5H12.8C13.9201 0.5 14.4802 0.5 14.908 0.717987C15.2843 0.909734 15.5903 1.21569 15.782 1.59202C16 2.01984 16 2.5799 16 3.7V9.54348C16 9.62422 16 9.66459 15.9988 9.69872C15.9629 10.7497 15.1193 11.5934 14.0683 11.6293C14.0342 11.6304 13.9938 11.6304 13.913 11.6304V11.6304" stroke="#E24949"/>
</svg>
