<svg width="28" height="28" viewBox="0 0 28 28" fill="none" xmlns="http://www.w3.org/2000/svg">
<path d="M21.3827 5.02072C20.4761 5.02072 19.7495 5.7543 19.7495 6.65396C19.7495 7.56054 20.4831 8.28718 21.3827 8.28718C22.2893 8.28718 23.016 7.55362 23.016 6.65396C23.016 5.74738 22.2824 5.02072 21.3827 5.02072Z" fill="url(#paint0_linear_66_2307)"/>
<path d="M14.1025 7.11761C10.3101 7.11761 7.23047 10.2041 7.23047 13.9896C7.23047 17.782 10.317 20.8616 14.1025 20.8616C17.8949 20.8616 20.9745 17.7751 20.9745 13.9896C20.9814 10.1972 17.8949 7.11761 14.1025 7.11761ZM14.1025 18.391C11.6734 18.391 9.70108 16.4187 9.70108 13.9896C9.70108 11.5605 11.6734 9.58822 14.1025 9.58822C16.5316 9.58822 18.5039 11.5605 18.5039 13.9896C18.5039 16.4187 16.5316 18.391 14.1025 18.391Z" fill="url(#paint1_linear_66_2307)"/>
<path d="M19.5627 27.9482H8.42079C3.79793 27.9482 0.0332031 24.1904 0.0332031 19.5675V8.4256C0.0332031 3.80274 3.79101 0.0379944 8.42079 0.0379944H19.5627C24.1856 0.0379944 27.9503 3.79582 27.9503 8.4256V19.5675C27.9503 24.1835 24.1856 27.9482 19.5627 27.9482ZM8.42079 2.66085C5.2443 2.66085 2.66298 5.24219 2.66298 8.41867V19.5606C2.66298 22.7371 5.2443 25.3184 8.42079 25.3184H19.5627C22.7392 25.3184 25.3205 22.7371 25.3205 19.5606V8.41867C25.3205 5.24219 22.7392 2.66085 19.5627 2.66085H8.42079Z" fill="url(#paint2_linear_66_2307)"/>
<defs>
<linearGradient id="paint0_linear_66_2307" x1="7.59633" y1="-7.13001" x2="33.8418" y2="19.1154" gradientUnits="userSpaceOnUse">
<stop offset="0.0011048" stop-color="#FFE185"/>
<stop offset="0.2094" stop-color="#FFBB36"/>
<stop offset="0.3765" stop-color="#FF5176"/>
<stop offset="0.5238" stop-color="#F63395"/>
<stop offset="0.7394" stop-color="#A436D2"/>
<stop offset="1" stop-color="#5F4EED"/>
</linearGradient>
<linearGradient id="paint1_linear_66_2307" x1="0.290569" y1="0.175574" x2="26.5364" y2="26.4214" gradientUnits="userSpaceOnUse">
<stop offset="0.0011048" stop-color="#FFE185"/>
<stop offset="0.2094" stop-color="#FFBB36"/>
<stop offset="0.3765" stop-color="#FF5176"/>
<stop offset="0.5238" stop-color="#F63395"/>
<stop offset="0.7394" stop-color="#A436D2"/>
<stop offset="1" stop-color="#5F4EED"/>
</linearGradient>
<linearGradient id="paint2_linear_66_2307" x1="0.233205" y1="0.232874" x2="26.4792" y2="26.4788" gradientUnits="userSpaceOnUse">
<stop offset="0.0011048" stop-color="#FFE185"/>
<stop offset="0.2094" stop-color="#FFBB36"/>
<stop offset="0.3765" stop-color="#FF5176"/>
<stop offset="0.5238" stop-color="#F63395"/>
<stop offset="0.7394" stop-color="#A436D2"/>
<stop offset="1" stop-color="#5F4EED"/>
</linearGradient>
</defs>
</svg>
