<svg width="21" height="23" viewBox="0 0 21 23" fill="none" xmlns="http://www.w3.org/2000/svg">
<path d="M11.0158 5.15362C12.4389 5.15362 13.5927 3.99994 13.5927 2.57681C13.5927 1.15368 12.4389 0 11.0158 0C9.59256 0 8.43884 1.15368 8.43884 2.57681C8.43884 3.99994 9.59256 5.15362 11.0158 5.15362Z" fill="white"/>
<path d="M11.0157 22.0308C11.8695 22.0308 12.5617 21.3387 12.5617 20.4849C12.5617 19.6311 11.8695 18.939 11.0157 18.939C10.1619 18.939 9.46973 19.6311 9.46973 20.4849C9.46973 21.3387 10.1619 22.0308 11.0157 22.0308Z" fill="white"/>
<path d="M4.68389 7.51811C5.96485 7.51811 7.00327 6.47973 7.00327 5.19881C7.00327 3.9179 5.96485 2.87952 4.68389 2.87952C3.40293 2.87952 2.3645 3.9179 2.3645 5.19881C2.3645 6.47973 3.40293 7.51811 4.68389 7.51811Z" fill="white"/>
<path d="M17.3479 19.1497C18.0595 19.1497 18.6364 18.5728 18.6364 17.8613C18.6364 17.1497 18.0595 16.5729 17.3479 16.5729C16.6363 16.5729 16.0594 17.1497 16.0594 17.8613C16.0594 18.5728 16.6363 19.1497 17.3479 19.1497Z" fill="white"/>
<path d="M2.06103 13.5922C3.1993 13.5922 4.12205 12.6695 4.12205 11.5313C4.12205 10.3931 3.1993 9.47034 2.06103 9.47034C0.922753 9.47034 0 10.3931 0 11.5313C0 12.6695 0.922753 13.5922 2.06103 13.5922Z" fill="white"/>
<path d="M19.9698 12.5605C20.5387 12.5605 20.9999 12.0993 20.9999 11.5304C20.9999 10.9615 20.5387 10.5004 19.9698 10.5004C19.4009 10.5004 18.9397 10.9615 18.9397 11.5304C18.9397 12.0993 19.4009 12.5605 19.9698 12.5605Z" fill="white"/>
<path d="M3.40864 16.5879C2.70379 17.2927 2.70379 18.4331 3.40864 19.138C4.11265 19.8428 5.25478 19.8428 5.95879 19.138C6.66364 18.4331 6.66364 17.2927 5.95879 16.5879C5.25478 15.8822 4.11348 15.8756 3.40864 16.5879Z" fill="white"/>
<path d="M17.3469 5.97135C17.7736 5.97135 18.1195 5.62547 18.1195 5.19881C18.1195 4.77215 17.7736 4.42627 17.3469 4.42627C16.9202 4.42627 16.5743 4.77215 16.5743 5.19881C16.5743 5.62547 16.9202 5.97135 17.3469 5.97135Z" fill="white"/>
</svg>
