<svg width="82" height="18" viewBox="0 0 82 18" fill="none" xmlns="http://www.w3.org/2000/svg">
<g clip-path="url(#clip0_1611_3876)">
<path d="M3.27602 11.8667V13.1667C3.01129 12.6667 2.68038 12.2667 2.18401 12.2667C1.88619 12.2667 1.58837 12.4334 1.32364 12.7667C0.95964 13.2 1.02582 13.5334 1.1251 13.7667C1.29055 14.1 1.65456 14.3334 2.08474 14.4667C1.4891 14.6334 0.893458 14.9334 0.694911 15.3667C0.595637 15.6 0.529455 16 0.926549 16.5C1.25746 16.9 1.58837 17.1 1.91929 17.1C2.51493 17.1 2.94511 16.5334 3.24293 15.8667V17.4667H10.5892V11.8667H3.27602ZM1.72074 13.5C1.68765 13.4334 1.72074 13.3 1.8531 13.1667C1.98547 13 2.11783 12.9 2.21711 12.9C2.41565 12.9 2.74657 13.3 2.9782 14.0667C2.44874 13.9334 1.82001 13.7334 1.72074 13.5ZM1.95238 16.4667C1.75383 16.4667 1.55528 16.2667 1.42292 16.1C1.19128 15.8 1.25746 15.6667 1.25746 15.6334C1.42292 15.3 2.2502 15 2.9782 14.9C2.64729 15.9667 2.2502 16.4667 1.95238 16.4667Z" fill="#E7262E"/>
<path d="M21.1455 8.19997C20.6491 7.56663 20.1197 7.26663 19.5571 7.26663C18.6637 7.26663 18.0018 8.09997 17.5055 9.06663V2.6333H11.6152V17.4333H17.4724V13.7666C17.8695 14.4333 18.3989 15 19.0608 15C19.524 15 19.9873 14.7333 20.4175 14.2C20.98 13.5333 20.8808 12.9666 20.7484 12.6333C20.5168 12.1 19.9211 11.7333 19.2593 11.5333C20.2189 11.2666 21.1455 10.8 21.4764 10.0666C21.7081 9.6333 21.7742 8.99997 21.1455 8.19997ZM19.8549 13.0333C19.9211 13.1666 19.8549 13.3333 19.6564 13.5333C19.4248 13.8 19.2262 13.9666 19.0608 13.9666C18.7298 13.9666 18.2666 13.3666 17.8695 12.1666C18.7298 12.3 19.6895 12.6333 19.8549 13.0333ZM20.616 9.59997C20.3513 10.1666 19.0277 10.6 17.8695 10.7666C18.432 9.0333 19.0938 8.26663 19.524 8.26663C19.8219 8.26663 20.1197 8.56663 20.3513 8.8333C20.7484 9.3333 20.6491 9.5333 20.616 9.59997Z" fill="#23315D"/>
<path d="M9.26576 2.6667C9.19958 1.40003 8.17375 0.366699 6.91629 0.366699C5.65882 0.366699 4.5999 1.40003 4.56681 2.6667H3.24316V10.9H10.5894V2.6667H9.26576ZM6.91629 1.00003C7.84284 1.00003 8.57085 1.73337 8.63703 2.63337H5.19555C5.26173 1.73337 5.98973 1.00003 6.91629 1.00003Z" fill="#8AC8E8"/>
<path d="M32.6278 16.1336C32.6278 16.5003 32.1976 16.7003 31.8336 16.8336C31.0725 17.1336 30.0136 17.3003 29.1202 17.3003C26.87 17.3003 25.811 16.4336 25.1492 15.5669C23.991 14.0336 23.7925 12.1669 23.7925 10.2669C23.7925 8.63359 23.9579 6.50026 25.1492 4.80026C26.2081 3.33359 27.7965 2.93359 29.1202 2.93359C30.4438 2.93359 32.4624 3.50026 32.4624 4.26693V6.93359C32.4624 7.33359 32.2307 7.26693 32.1315 7.26693H30.6754C30.2784 7.26693 30.3445 7.10026 30.3445 6.93359V5.26693C29.8482 5.10026 29.5173 5.10026 29.2856 5.10026C28.6569 5.10026 28.0282 5.23359 27.5649 5.73359C26.7376 6.60026 26.6383 8.26693 26.6383 9.80026C26.6383 11.9336 26.8369 13.6003 27.6311 14.4336C28.0612 14.9003 28.6569 15.1336 29.4511 15.1336C29.7489 15.1336 30.0467 15.1003 30.51 15.0003V13.2336C30.51 13.1336 30.4438 12.9003 30.8409 12.9003H32.2969C32.694 12.9003 32.6278 13.1336 32.6278 13.2336V16.1336Z" fill="#23315D"/>
<path d="M43.118 16.6667C43.118 16.8001 43.151 16.9334 42.8532 16.9334H40.3714C40.0074 16.9334 39.875 16.6001 39.8088 16.2001C39.8088 16.1667 39.7757 16.1334 39.7757 16.0667C38.9816 16.9001 38.2866 17.2667 37.2277 17.2667C35.7717 17.2667 34.2495 16.4001 34.2495 14.2001C34.2495 11.6667 36.1688 10.8334 39.147 10.8334H39.4117V10.2001C39.4117 9.66673 39.4448 8.7334 38.1543 8.7334C37.327 8.7334 36.5328 9.00006 36.1357 9.1334C35.8048 9.26673 35.6724 9.3334 35.507 9.3334C35.3746 9.3334 35.3415 9.20006 35.3084 9.1334L34.9113 7.90007C34.8452 7.7334 34.6797 7.46673 35.3084 7.26673C35.7386 7.10006 36.8968 6.7334 38.5514 6.7334C41.3972 6.7334 41.7281 8.70006 41.7281 9.9334V13.4001C41.7281 14.4334 41.7943 14.6001 41.8936 15.0001L41.9267 15.0667H42.787C43.0849 15.0667 43.0518 15.2334 43.0518 15.3334V16.6667H43.118ZM39.4117 12.4667H39.2794C38.7168 12.4667 37.9226 12.4667 37.327 12.8001C36.9299 13.0334 36.599 13.4334 36.599 14.0667C36.599 14.8667 37.1284 15.4334 37.9226 15.4334C38.5183 15.4334 38.9485 15.1001 39.4117 14.6667V12.4667Z" fill="#23315D"/>
<path d="M48.4452 8.73327C48.2135 8.69994 47.9819 8.6666 47.651 8.6666C46.4597 8.6666 46.3935 9.43327 46.3935 9.6666C46.3935 10.1999 46.7244 10.3999 47.0885 10.5666C47.4525 10.7333 47.7503 10.8333 48.4121 11.0666C48.8754 11.2333 49.7357 11.5666 50.3314 12.2999C50.6623 12.6999 50.9601 13.2999 50.9601 14.0999C50.9601 14.7999 50.7616 15.6666 50.0667 16.3666C49.6034 16.8333 48.8423 17.2999 47.5517 17.2999C46.6583 17.2999 44.0771 16.8666 44.0771 16.1333V13.9666C44.0771 13.6666 44.2426 13.6999 44.3419 13.6999H45.6986C46.0295 13.6999 45.9633 13.8666 45.9633 14.0666V15.0333C46.5259 15.1999 46.923 15.2999 47.3863 15.2999C48.4121 15.2999 48.6106 14.6666 48.6106 14.2999C48.6106 13.7333 48.2466 13.4999 47.8495 13.3333C47.3863 13.0999 46.7906 12.9333 46.4266 12.7999C45.7648 12.5333 45.2684 12.2666 44.8713 11.8333C44.375 11.2999 44.2095 10.6666 44.2095 10.0333C44.2095 8.8666 44.739 8.1666 45.1361 7.73327C45.7648 7.09994 46.5921 6.7666 47.9157 6.7666C48.6106 6.7666 50.4638 7.03327 50.4638 7.69994V9.7666C50.4638 10.0999 50.3314 10.0333 50.199 10.0333H48.8423C48.743 10.0333 48.5776 10.0666 48.5776 9.7666V8.73327H48.4452Z" fill="#23315D"/>
<path d="M62.1785 16.6668C62.1785 16.8001 62.2116 16.9334 61.9137 16.9334H58.6708C58.5715 16.9334 58.4061 16.9668 58.4061 16.6668V10.5334C58.4061 10.1334 58.4061 9.70009 58.2075 9.36676C58.0752 9.13343 57.8104 8.83343 57.281 8.83343C56.7184 8.83343 56.0235 9.26676 55.5933 9.66676V15.0668H56.6191C56.9501 15.0668 56.8839 15.2001 56.8839 15.3334V16.6668C56.8839 16.8001 56.917 16.9334 56.6191 16.9334H52.0856C51.9864 16.9334 51.8209 16.9668 51.8209 16.6668V15.3668C51.8209 15.2668 51.7878 15.1001 52.0856 15.1001H53.1115V4.50009H52.1187C52.0195 4.50009 51.854 4.53343 51.854 4.23343V2.90009C51.854 2.60009 52.0195 2.63343 52.1187 2.63343H55.3617C55.6926 2.63343 55.6264 2.76676 55.6264 2.90009V7.86676C56.6191 6.96676 57.5457 6.73343 58.373 6.73343C60.8217 6.73343 60.9541 8.73343 60.9541 9.90009V15.1001H61.9799C62.3108 15.1001 62.2446 15.2334 62.2446 15.3668V16.6668H62.1785Z" fill="#23315D"/>
<path d="M66.2816 7.63343L66.5463 7.46676C66.8772 7.23343 67.6714 6.76676 68.6972 6.76676C70.4511 6.76676 72.1718 7.76676 72.1718 11.8334C72.1718 16.2334 69.7561 17.3334 68.1016 17.3334C67.0427 17.3334 66.3808 16.9001 66.0499 16.5668L65.9507 16.4668L65.8845 16.6334C65.5536 17.4668 65.4212 17.4001 65.0903 17.3001L63.5019 16.9001C63.3364 16.8668 63.3034 16.7668 63.3034 16.7334C63.3034 16.7001 63.3034 16.7001 63.3034 16.7001C63.3695 16.3334 63.7335 16.4334 63.7335 14.4668V4.50009H62.7408C62.6415 4.50009 62.4761 4.53343 62.4761 4.23343V2.90009C62.4761 2.60009 62.6415 2.63343 62.7408 2.63343H65.9837C66.3147 2.63343 66.2485 2.76676 66.2485 2.90009V7.63343H66.2816ZM66.2816 14.8668C66.7779 15.2334 67.3405 15.3001 67.539 15.3001C69.3921 15.3001 69.69 13.3334 69.69 11.9001C69.69 10.5668 69.5576 8.73343 67.8699 8.73343C67.2081 8.73343 66.6125 9.16676 66.3808 9.33343L66.2816 9.40009V14.8668Z" fill="#23315D"/>
<path d="M75.8778 12.7001C75.8778 14.1667 76.4073 15.2001 78.0619 15.2001C78.9884 15.2001 79.6833 14.9334 80.0473 14.7334C80.1135 14.7001 80.1797 14.6667 80.279 14.6334C80.4113 14.5667 80.5106 14.5334 80.6099 14.5334C80.7422 14.5334 80.7753 14.6001 80.8415 14.7001L81.3379 15.8667C81.371 15.9334 81.4041 16.0001 81.4041 16.1001C81.4041 16.2334 81.3379 16.3334 81.0732 16.5001C80.3451 16.9667 79.0215 17.3001 77.8964 17.3001C76.6058 17.3001 75.4807 16.9667 74.6866 16.1334C74.0247 15.4334 73.396 14.2334 73.396 12.2667C73.396 10.5001 73.76 9.20006 74.7196 8.10006C75.3484 7.36673 76.2418 6.7334 77.764 6.7334C79.3193 6.7334 81.735 7.40006 81.735 12.0334C81.735 12.5667 81.6688 12.6667 81.2717 12.6667H75.8778V12.7001ZM78.9884 10.8334C78.9884 10.7667 78.9884 10.7001 78.9884 10.6334C78.9884 10.3667 78.9553 10.0667 78.9222 9.80006C78.856 9.5334 78.7568 9.20006 78.492 8.9334C78.2604 8.70006 77.9295 8.56673 77.5324 8.56673C77.1022 8.56673 76.7051 8.70006 76.4073 9.10006C76.0433 9.56673 75.944 10.1334 75.8778 10.8001H78.9884V10.8334Z" fill="#23315D"/>
</g>
<defs>
<clipPath id="clip0_1611_3876">
<rect width="82" height="18" fill="white"/>
</clipPath>
</defs>
</svg>
