<svg width="40" height="40" viewBox="0 0 40 40" fill="none" xmlns="http://www.w3.org/2000/svg">
<rect width="40" height="40" rx="3" fill="#0055A5"/>
<path d="M7.5 21.5476V27.9278H8.5519V26.0753C8.75752 26.2539 8.984 26.3611 9.22657 26.3611C9.57416 26.3611 9.85991 26.1781 10.0842 25.8123C10.3359 25.4051 10.4614 24.8039 10.4614 24.0173C10.4614 23.4685 10.3608 22.9745 10.1643 22.5538L10.1299 22.485L10.0955 22.4279L10.0725 22.3708L10.0381 22.3251L10.0037 22.268L9.95796 22.2109L9.92357 22.1652L9.88918 22.1195L9.84344 22.0737L9.80905 22.028L9.76332 21.9823L9.71758 21.9479L9.67185 21.9021L9.62611 21.8677L9.58038 21.8334L9.53464 21.7989L9.47757 21.7763L9.43183 21.7419L9.3861 21.7192L9.32902 21.6965L9.27194 21.6735L9.21487 21.6504L9.15779 21.6277L9.10071 21.6164L9.04364 21.605L8.98656 21.5937L8.91814 21.571H8.86106L8.79264 21.5597H8.73557L8.66678 21.5483H8.59836H7.5V21.5476ZM8.49482 22.451H8.59763C8.86289 22.451 9.06888 22.6043 9.21487 22.897C9.36122 23.1897 9.4322 23.6422 9.4322 24.269C9.4322 24.6074 9.39085 24.8749 9.29499 25.0578C9.20352 25.2408 9.08461 25.3322 8.95217 25.3322C8.82411 25.3322 8.71874 25.2455 8.63202 25.0805C8.54531 24.9206 8.49482 24.6898 8.49482 24.3832V22.451Z" fill="white"/>
<path d="M32.2484 21.2373L32.1617 21.324C32.1617 21.324 29.962 23.6199 29.7974 23.7937V21.5435H28.7686V27.9372H29.7974V25.3121C29.8248 25.2803 31.1464 23.8804 31.2975 23.7205C31.3066 23.9536 31.4482 27.9372 31.4482 27.9372H32.5001L32.2484 21.2373Z" fill="white"/>
<path d="M27.2309 21.3244L27.2262 21.3335L27.217 21.3379L27.2079 21.3518L27.194 21.3654L27.1757 21.3837L27.1574 21.402L27.1343 21.425L27.1116 21.448L27.0842 21.4755L27.0568 21.5077L27.0246 21.5395L26.9927 21.5714L26.9605 21.6079L26.9239 21.6445L26.883 21.6855L26.8006 21.7726L26.7139 21.8641L26.6225 21.9603L26.5266 22.0609L26.426 22.1659L26.3206 22.2709L26.2156 22.3807L26.1102 22.4952L25.8955 22.7191L25.7905 22.8289L25.6854 22.9342L25.5848 23.0392L25.489 23.1446L25.3931 23.2409L25.306 23.3323L25.2237 23.419L25.1827 23.46L25.1461 23.5013L25.1096 23.5379L25.0774 23.5745L25.0455 23.6067L25.0181 23.6389L24.9906 23.6664L24.9632 23.6938L24.9405 23.7168L24.9222 23.7352L24.9039 23.7534L24.89 23.7717L24.8761 23.7809L24.867 23.7948V21.5447H23.833V27.9383H24.8666V25.3132C24.8941 25.2813 26.216 23.8815 26.3667 23.7216C26.3759 23.9547 26.5178 27.9383 26.5178 27.9383H27.565L27.3132 21.2373L27.2309 21.3244Z" fill="white"/>
<path d="M21.2489 26.3504L21.1849 26.2729L21.13 26.1953L21.0751 26.1082L21.0294 26.0215L20.9836 25.9301L20.9423 25.8386L20.9009 25.7427L20.8691 25.6465L20.8417 25.5415L20.8142 25.4409L20.7912 25.3311L20.7729 25.2213L20.759 25.1068L20.7498 24.9923L20.7451 24.8734L20.7403 24.7545C20.7403 24.0824 20.905 23.5471 21.2251 23.1538C21.5774 22.7239 22.0897 22.5091 22.7574 22.5091H22.8075V21.3932H22.7574C21.7146 21.3932 20.9141 21.7133 20.37 22.358C19.8761 22.939 19.6248 23.7483 19.6248 24.7636C19.6248 25.7424 19.8992 26.5517 20.4341 27.1601C21.0012 27.8004 21.7834 28.1297 22.7713 28.1297H22.8214V27.0094H22.7713C22.1226 27.009 21.6104 26.7895 21.2489 26.3504Z" fill="white"/>
<path d="M12.9768 21.3877C12.4236 21.3877 11.9819 21.7009 11.6618 22.3137C11.3508 22.9174 11.1931 23.7202 11.1931 24.7033C11.1931 25.7186 11.3417 26.5396 11.6391 27.1386C11.941 27.7514 12.3914 28.0646 12.9768 28.0646C13.5761 28.0646 14.0492 27.7331 14.3832 27.0928C14.6942 26.4935 14.8519 25.6842 14.8519 24.6916C14.8519 23.7128 14.6916 22.9123 14.3715 22.3134L14.3371 22.2563L14.3027 22.1992L14.2797 22.1422L14.2339 22.0964L14.2109 22.0507L14.1651 22.0049L14.1307 21.9592L14.0963 21.9135L14.062 21.8677L14.0162 21.822L13.9818 21.7876L13.9361 21.7532L13.9017 21.7188L13.856 21.6844L13.8216 21.65L13.7758 21.6156L13.7301 21.5926L13.6844 21.5699L13.6386 21.5472L13.5929 21.5245L13.5472 21.5015L13.5014 21.4784L13.4557 21.4671L13.3986 21.4441L13.3529 21.4327L13.2958 21.4214L13.2501 21.41H13.2043L13.1473 21.3987L13.0902 21.3873H13.0331H12.9768V21.3877ZM12.9768 22.4166C13.2695 22.4166 13.4846 22.6247 13.6171 23.0455C13.7451 23.4249 13.8 23.9785 13.8 24.6919C13.8 25.3824 13.736 25.9564 13.5944 26.3955L13.5713 26.4412L13.56 26.4756L13.5486 26.51L13.5373 26.5444L13.5259 26.5788L13.5033 26.6132L13.4919 26.6475L13.4689 26.6706L13.4575 26.705L13.4345 26.7281L13.4231 26.7624L13.4118 26.7855L13.3891 26.8082L13.3661 26.8309L13.3547 26.8535L13.332 26.8649L13.3207 26.8876L13.2976 26.9103L13.275 26.9216L13.2519 26.9443L13.2289 26.9556L13.2058 26.967L13.1945 26.9783L13.1714 26.9896H13.1484L13.1253 27.001L13.1026 27.0123H13.0796L13.0565 27.0237H13.0335H13.0104H12.976C12.7247 27.0237 12.5348 26.8089 12.3928 26.3834C12.2465 25.9396 12.1755 25.3703 12.1755 24.7026C12.1755 24.0213 12.2465 23.4586 12.3928 23.0334C12.5264 22.6269 12.7207 22.4166 12.9768 22.4166Z" fill="white"/>
<path d="M17.2839 26.3504L17.2565 26.3139L17.2243 26.2729L17.1646 26.1953L17.1145 26.1082L17.064 26.0215L17.0183 25.9301L16.9773 25.8386L16.9407 25.7427L16.9041 25.6465L16.8767 25.5415L16.8493 25.4409L16.831 25.3311L16.8127 25.2213L16.7991 25.1068L16.79 24.9923L16.7808 24.8734V24.7545C16.7808 24.0824 16.9407 23.5471 17.2656 23.1538C17.6132 22.7239 18.1254 22.5091 18.7932 22.5091H18.848V21.3932H18.7932C17.7548 21.3932 16.9499 21.7133 16.4106 22.358C15.9119 22.939 15.6653 23.7483 15.6653 24.7636C15.6653 25.7424 15.9349 26.5517 16.4746 27.1601C17.037 27.8004 17.8236 28.1297 18.8118 28.1297H18.862V27.0094H18.8118C18.1573 27.009 17.645 26.7895 17.2839 26.3504Z" fill="white"/>
<path d="M7.51025 12.1683V18.5939H8.69496V13.2338H10.1585V18.5939H11.3384V12.1683H7.51025Z" fill="white"/>
<path d="M14.9659 12.0004C14.3392 12.0004 13.8361 12.3158 13.4797 12.9381C13.1274 13.5466 12.9536 14.3515 12.9536 15.339C12.9536 16.3587 13.1183 17.1936 13.4567 17.7973C13.7995 18.4149 14.3074 18.7234 14.9659 18.7234C15.6381 18.7234 16.1686 18.401 16.5436 17.7516C16.8959 17.1479 17.0811 16.3316 17.0811 15.339C17.0811 14.3511 16.889 13.5414 16.5323 12.9381L16.4979 12.881L16.4635 12.824L16.4291 12.7669L16.3833 12.7211L16.349 12.6641L16.3032 12.6183L16.2688 12.5726L16.2231 12.5269L16.1774 12.4811L16.143 12.4467L16.0972 12.401L16.0515 12.3666L16.0058 12.3322L15.96 12.2978L15.9029 12.2634L15.8572 12.2404L15.8115 12.206L15.7657 12.1829L15.7087 12.1599L15.6629 12.1372L15.6059 12.1142L15.5488 12.0911L15.503 12.0798L15.446 12.0567L15.3889 12.0454L15.3318 12.034L15.2747 12.0227L15.2177 12.0113H15.1489H15.0918L15.0347 12H14.9659V12.0004ZM14.9776 13.0867C15.2978 13.0867 15.5243 13.2927 15.675 13.7043C15.8122 14.0793 15.8806 14.6259 15.8806 15.3394C15.8806 16.0206 15.8005 16.5903 15.6406 17.0202C15.4851 17.441 15.2703 17.6374 14.9776 17.6374H14.9433H14.9202H14.8972H14.8745L14.8514 17.6261L14.8284 17.6148H14.8053L14.7823 17.6034L14.7596 17.5921L14.7365 17.5807L14.7135 17.5694L14.6904 17.5581L14.6674 17.535L14.6447 17.5236L14.6216 17.501L14.5986 17.4896L14.5873 17.4666L14.5642 17.4439L14.5412 17.4208L14.5298 17.3978L14.5068 17.3747L14.4837 17.3403L14.4724 17.3173L14.4493 17.2943L14.438 17.2599L14.4153 17.2254L14.4039 17.2024L14.3926 17.1567L14.3696 17.1223L14.3582 17.0879L14.3469 17.0535L14.3238 17.0191C14.1639 16.5753 14.0838 16.0129 14.0838 15.3496C14.0838 14.6684 14.1639 14.1126 14.3238 13.6918C14.4768 13.2857 14.6893 13.0867 14.9776 13.0867Z" fill="white"/>
<path d="M23.522 12.1683V13.2338H24.5051V18.5939H25.6898V13.2338H26.6868V12.1683H23.522Z" fill="white"/>
<path d="M20.9289 14.4046H20.2843C20.019 14.4046 19.8178 14.3453 19.6941 14.2264C19.6026 14.1441 19.5613 14.0296 19.5613 13.8832V12.168H18.377V14.0021C18.377 14.4229 18.546 14.784 18.8753 15.0676C19.1998 15.3467 19.6026 15.4883 20.0644 15.4883H20.9286V18.5935H22.1133V12.168H20.9286V14.4046H20.9289Z" fill="white"/>
<path d="M28.229 12.1719L28.0117 18.5978H29.1895C29.1895 18.5978 29.2992 15.5954 29.3036 15.4534H30.7785C30.7924 15.5862 31.1213 18.5978 31.1213 18.5978H32.3104L31.7616 13.8985V13.8414V13.7843V13.7272L31.7502 13.6701V13.6131L31.7389 13.5673V13.5102L31.7276 13.4645L31.7162 13.4074L31.7049 13.3617L31.6935 13.316L31.6822 13.2702L31.6709 13.2245L31.6478 13.1788L31.6365 13.133L31.6251 13.0873L31.6021 13.0416L31.579 13.0072L31.556 12.9614L31.5446 12.927L31.5216 12.8813L31.4985 12.8469L31.4641 12.8125L31.4411 12.7668L31.418 12.7437L31.3836 12.698L31.3606 12.675L31.3262 12.6406L31.2918 12.6062L31.2574 12.5831L31.2344 12.5487L31.1886 12.5143C30.8915 12.2809 30.4887 12.1711 29.9768 12.1711H28.229V12.1719ZM29.3611 13.2351H29.784C30.0903 13.2351 30.2963 13.3335 30.4243 13.5208C30.5297 13.6763 30.6003 13.9734 30.6416 14.3898H29.3267V14.3785V14.3671V14.3558V14.3445V14.3331V14.3218V14.3104V14.276V14.2416V14.2072L29.338 14.1729V14.1271V14.0927V14.047V14.0013V13.9555V13.9098V13.807V13.7155L29.3494 13.6698V13.624V13.5783V13.5326V13.4868V13.4524V13.4067V13.3723V13.3379L29.3607 13.3149V13.3035V13.2922V13.2809V13.2695V13.2582V13.2468V13.2351H29.3611Z" fill="white"/>
</svg>
