<svg width="32" height="26" viewBox="0 0 32 26" fill="none" xmlns="http://www.w3.org/2000/svg">
<path d="M30.9236 3.57084C29.9686 3.99991 28.9098 4.26288 27.8786 4.43589C28.37 4.35285 29.0897 3.46704 29.3734 3.10718C29.8163 2.56046 30.1762 1.93762 30.3838 1.26634C30.4115 1.21097 30.4322 1.14868 30.3769 1.10716C30.3077 1.07948 30.2661 1.09333 30.2177 1.12101C29.0689 1.73693 27.8717 2.18676 26.6052 2.5051C26.5014 2.53279 26.4253 2.5051 26.3561 2.43589C26.2523 2.31825 26.1554 2.20752 26.0378 2.11063C25.5049 1.65388 24.9305 1.30095 24.2869 1.03797C23.4426 0.691948 22.5153 0.546601 21.6018 0.608885C20.7159 0.664249 19.844 0.913391 19.055 1.32862C18.2661 1.74385 17.5602 2.31133 16.9997 3.00338C16.4183 3.71618 15.9893 4.56047 15.7747 5.46013C15.5602 6.32519 15.5809 7.1764 15.7124 8.0553C15.7332 8.20063 15.7194 8.22141 15.5879 8.20064C10.6328 7.46016 6.52209 5.6885 3.17951 1.88917C3.03418 1.72308 2.95804 1.7231 2.84039 1.90303C1.38018 4.08989 2.08607 7.60545 3.91307 9.33557C4.15529 9.56394 4.40443 9.79926 4.67433 10.0069C4.57744 10.0276 3.35943 9.89612 2.27984 9.33557C2.13451 9.2456 2.06531 9.29408 2.05147 9.46017C2.03763 9.69547 2.05839 9.9169 2.09299 10.173C2.36981 12.3944 3.90614 14.4429 6.01688 15.2457C6.26601 15.3495 6.54285 15.4463 6.81275 15.4879C6.33523 15.5917 5.83695 15.6678 4.4667 15.564C4.29369 15.5294 4.23141 15.6193 4.29369 15.7785C5.32484 18.5951 7.55323 19.4325 9.22798 19.91C9.44943 19.9516 9.67781 19.9516 9.89926 20C9.88542 20.0208 9.87158 20.0208 9.85774 20.0415C9.3041 20.8858 7.38022 21.5156 6.48748 21.827C4.86118 22.3945 3.08953 22.6505 1.37326 22.4844C1.09644 22.4429 1.04108 22.4498 0.964954 22.4844C0.888829 22.5329 0.958045 22.5952 1.04109 22.6713C1.38711 22.8997 1.74696 23.1073 2.10682 23.3011C3.20026 23.8824 4.33521 24.3391 5.52553 24.6713C11.6709 26.3668 18.5983 25.1212 23.2073 20.5329C26.8336 16.9343 28.1 11.9654 28.1 6.99649C28.1 6.80272 28.3284 6.69198 28.4668 6.59509C29.408 5.88921 30.1693 5.03797 30.8752 4.08987C31.0343 3.87534 31.0343 3.68851 31.0343 3.61238C31.0343 3.59854 31.0343 3.58469 31.0343 3.58469C31.0482 3.48781 31.0413 3.51547 30.9236 3.57084Z" fill="url(#paint0_linear_66_2278)"/>
<defs>
<linearGradient id="paint0_linear_66_2278" x1="26.2445" y1="22.4176" x2="8.27191" y2="4.44511" gradientUnits="userSpaceOnUse">
<stop stop-color="#00CCFF"/>
<stop offset="1" stop-color="#0080FF"/>
</linearGradient>
</defs>
</svg>
