<svg width="15" height="18" viewBox="0 0 15 18" fill="none" xmlns="http://www.w3.org/2000/svg">
<path fill-rule="evenodd" clip-rule="evenodd" d="M7.89361 5.49291C9.89666 5.49291 11.8991 5.49225 13.9009 5.49094C13.9226 5.48596 13.9452 5.48647 13.9666 5.49241C13.988 5.49836 14.0075 5.50955 14.0232 5.52492C14.039 5.54029 14.0505 5.55934 14.0566 5.58026C14.0627 5.60118 14.0633 5.62329 14.0582 5.64448C14.0564 6.34452 14.0564 7.04439 14.0619 7.74425C14.0637 7.88473 13.9869 7.88616 13.8845 7.88598C12.3808 7.88455 10.8771 7.88937 9.37349 7.88329C8.98849 7.8719 8.60531 7.93953 8.24866 8.08183C7.89201 8.22413 7.5698 8.43794 7.30276 8.70949C6.98228 9.02009 6.75728 9.41242 6.65336 9.84187C6.64593 9.88077 6.63365 9.91863 6.61679 9.95461C6.42654 10.3236 6.48507 10.7123 6.518 11.0999C6.5265 11.1607 6.53138 11.2219 6.53263 11.2833C6.51855 11.8123 6.63859 12.3366 6.88202 12.8092C6.96747 13.0259 7.10339 13.2202 7.27898 13.3766C7.63749 13.6639 8.03917 13.8953 8.46984 14.0627C8.80455 14.1737 9.15768 14.2219 9.51068 14.2048C10.0375 14.1994 10.5625 14.1774 11.0875 14.1749C11.4149 14.1733 11.7442 14.2053 12.0735 14.2037C12.6698 14.2005 13.2662 14.1824 13.8625 14.1724C14.0564 14.169 14.0637 14.1747 14.0582 14.3605C14.0509 14.7558 14.029 15.1509 14.0308 15.546C14.0308 15.9765 14.0454 16.4069 14.0601 16.8375C14.0666 16.8594 14.0671 16.8826 14.0615 16.9047C14.056 16.9269 14.0445 16.9472 14.0284 16.9637C14.0123 16.9801 13.992 16.9922 13.9697 16.9986C13.9473 17.005 13.9236 17.0055 13.9009 17.0001C12.5125 16.9948 11.1253 16.9924 9.73934 16.993C8.61434 16.993 7.49118 16.9946 6.36618 16.993C5.17533 16.9913 3.98447 16.9878 2.79361 16.9824C2.4962 16.995 2.19823 16.9835 1.90276 16.9481C1.58176 16.8967 1.27623 16.7769 1.00784 16.5971C0.739455 16.4173 0.514773 16.182 0.349713 15.9078C0.102764 15.4966 -0.0179012 15.0244 0.00214766 14.5478C0.00763547 11.4796 -0.00333478 8.41118 0.00764083 5.34313C0.00858782 4.99864 0.0925663 4.65922 0.252757 4.35243C0.412947 4.04564 0.644818 3.78013 0.929577 3.57746C1.46372 3.16588 2.0802 3.09341 2.72776 3.13224C2.74345 3.13067 2.75929 3.13261 2.7741 3.13793C2.7889 3.14325 2.80229 3.1518 2.81322 3.16292C2.82415 3.17404 2.83233 3.18745 2.83718 3.20213C2.84202 3.21681 2.8434 3.23238 2.84118 3.24765C2.83935 3.59099 2.83935 3.93434 2.84118 4.27768C2.84357 4.29615 2.84131 4.31491 2.83461 4.33233C2.82791 4.34975 2.81696 4.3653 2.80272 4.37764C2.78848 4.38998 2.77139 4.39875 2.75291 4.40316C2.73442 4.40756 2.71511 4.40749 2.69666 4.40295C2.4369 4.40295 2.17898 4.40061 1.92105 4.40652C1.81718 4.40481 1.71503 4.43266 1.62703 4.48667C1.53903 4.54067 1.46896 4.61851 1.42532 4.71073C1.37728 4.79883 1.3567 4.89879 1.36613 4.99821C1.37556 5.09764 1.41456 5.19217 1.47836 5.27012C1.51797 5.33113 1.57176 5.38212 1.63534 5.41894C1.69891 5.45576 1.77048 5.47736 1.84421 5.48199C1.97409 5.48736 2.10397 5.49112 2.23202 5.4913C4.11982 5.4913 6.00703 5.4913 7.89361 5.4913V5.49291ZM11.3198 9.00028C12.0259 9.00028 12.7302 9.00887 13.4345 8.99795C13.6416 9.00015 13.8463 9.04224 14.0368 9.12182C14.2274 9.2014 14.4 9.31691 14.5449 9.46176C14.6898 9.60661 14.8041 9.77796 14.8813 9.96602C14.9585 10.1541 14.9971 10.3552 14.9948 10.5578C14.9893 10.857 15.0058 11.157 14.9912 11.4556C14.9896 11.6528 14.9588 11.8488 14.8997 12.0374C14.8327 12.1992 14.7318 12.3456 14.6034 12.4669C14.4311 12.6484 14.2356 12.8074 14.0217 12.94C13.8578 13.0203 13.6762 13.0595 13.493 13.0542C12.8784 13.0595 12.2637 13.0354 11.6491 13.0354C11.0711 13.0354 10.4912 13.0679 9.91313 13.0565C9.51854 13.0449 9.12506 13.0091 8.73507 12.9491C8.6266 12.9371 8.52179 12.9034 8.4271 12.8503C8.33241 12.7971 8.24984 12.7256 8.18446 12.6401C7.99752 12.4117 7.84704 12.157 7.73813 11.8846C7.68143 11.7244 7.65538 11.5554 7.66129 11.386C7.66129 11.0426 7.63933 10.6965 7.67409 10.3565C7.6986 10.0998 7.79114 9.85382 7.94256 9.64281C8.09398 9.43179 8.29906 9.26306 8.53752 9.15328C8.77838 9.03785 9.04524 8.9841 9.31313 8.99706C9.98264 9.00064 10.6521 8.99813 11.3198 8.99813V9.00028ZM10.4729 11.0369C10.4717 10.8383 10.3927 10.6478 10.2521 10.5046C10.1115 10.3614 9.92013 10.2765 9.71739 10.2674C9.31312 10.2472 8.85032 10.6779 8.87044 11.0235C8.87134 11.2347 8.9552 11.4375 9.10468 11.5899C9.25415 11.7423 9.4578 11.8327 9.67349 11.8423C9.88399 11.8256 10.0811 11.7346 10.2282 11.5863C10.3752 11.438 10.4622 11.2425 10.4729 11.0362V11.0369ZM13.4143 3.13188C13.5845 3.13188 13.7528 3.1342 13.9229 3.13062C13.9414 3.12632 13.9607 3.1267 13.979 3.1317C13.9973 3.13671 14.014 3.1462 14.0276 3.15926C14.0411 3.17232 14.051 3.18854 14.0564 3.20638C14.0618 3.22422 14.0624 3.24311 14.0582 3.26126C14.0564 3.59965 14.0564 3.93786 14.0601 4.27625C14.064 4.29439 14.0633 4.31322 14.0578 4.33099C14.0524 4.34877 14.0425 4.36492 14.029 4.37797C14.0155 4.39101 13.9989 4.40053 13.9807 4.40565C13.9625 4.41076 13.9432 4.41131 13.9247 4.40724C13.5771 4.40348 13.2314 4.40276 12.8839 4.40562C12.8662 4.40893 12.848 4.40781 12.831 4.40237C12.8139 4.39693 12.7985 4.38734 12.7863 4.37451C12.774 4.36167 12.7653 4.34601 12.761 4.32898C12.7566 4.31196 12.7567 4.29412 12.7613 4.27715C12.7631 3.93894 12.7631 3.60066 12.7613 3.26233C12.7564 3.24437 12.7564 3.22548 12.7612 3.20751C12.7661 3.18955 12.7756 3.17311 12.7889 3.15982C12.8022 3.14653 12.8187 3.13684 12.837 3.13169C12.8552 3.12654 12.8745 3.12611 12.893 3.13045C13.0668 3.13492 13.2406 3.13188 13.4143 3.13188Z" fill="#202E5C"/>
<path fill-rule="evenodd" clip-rule="evenodd" d="M7.60825 0.00694487C8.60703 0.00694487 9.60764 0.0198348 10.6064 0.00158213C10.719 -0.00351982 10.8315 0.0145049 10.9365 0.0544996C11.0415 0.0944943 11.1369 0.155564 11.2163 0.233786C11.2957 0.312007 11.3576 0.405648 11.3978 0.508662C11.438 0.611675 11.4557 0.721778 11.4497 0.83189C11.4406 1.97178 11.4479 3.11169 11.4515 4.25158C11.4562 4.27291 11.4553 4.29504 11.4489 4.31593C11.4426 4.33683 11.4309 4.35581 11.4151 4.37115C11.3992 4.38648 11.3796 4.39766 11.3582 4.40366C11.3368 4.40966 11.3141 4.41028 11.2924 4.40547C10.8778 4.40142 10.4631 4.40142 10.0485 4.40547C10.0242 4.41011 9.99908 4.40869 9.97547 4.40136C9.95186 4.39402 9.93051 4.381 9.91339 4.36349C9.89627 4.34598 9.88392 4.32452 9.87749 4.30112C9.87105 4.27772 9.87072 4.25312 9.87655 4.22956C9.88021 3.68843 9.87472 3.14694 9.88204 2.6058C9.88744 2.58052 9.88751 2.55442 9.88224 2.52912C9.87698 2.50381 9.86649 2.47982 9.85143 2.45861C9.83636 2.43741 9.81701 2.41943 9.7946 2.40578C9.77218 2.39214 9.74717 2.38311 9.72106 2.37925C9.59209 2.34926 9.4711 2.29281 9.36609 2.21365C9.26107 2.1345 9.17445 2.03444 9.11193 1.92008C9.06254 1.82828 9.04241 1.7209 8.99119 1.62964C8.97761 1.60557 8.95876 1.58473 8.93599 1.56862C8.91322 1.5525 8.8871 1.5415 8.85949 1.53641C8.03449 1.53068 7.20948 1.53283 6.38448 1.52996C6.34192 1.52454 6.29888 1.53572 6.26466 1.56106C6.23044 1.5864 6.20777 1.62388 6.20155 1.66543C6.16477 1.84511 6.07444 2.01012 5.94195 2.13967C5.80946 2.26921 5.64072 2.35749 5.45703 2.39339C5.43447 2.39605 5.41275 2.40331 5.39323 2.41471C5.37372 2.4261 5.35685 2.44137 5.34375 2.45953C5.33065 2.47769 5.32159 2.49834 5.31715 2.52015C5.31272 2.54195 5.31303 2.56443 5.31803 2.58612C5.32168 3.13191 5.31983 3.67769 5.31983 4.22348C5.31983 4.4035 5.31985 4.40368 5.13144 4.40386C4.72534 4.40386 4.31924 4.40172 3.91497 4.40583C3.89238 4.41174 3.8686 4.41181 3.84597 4.40604C3.82334 4.40027 3.80263 4.38886 3.78586 4.37293C3.76908 4.35699 3.75683 4.33706 3.75029 4.3151C3.74374 4.29315 3.74312 4.2699 3.7485 4.24764C3.75216 3.11222 3.75582 1.97662 3.7485 0.841381C3.73757 0.674199 3.78083 0.507897 3.87214 0.366172C3.96345 0.224447 4.09815 0.114522 4.25704 0.0520421C4.37214 0.0182832 4.49175 0.00163397 4.61191 0.0026525C5.61069 -0.00128434 6.60947 0.000326094 7.60825 0.000326094V0.00694487Z" fill="#FF4F2F"/>
</svg>
