<svg width="28" height="29" viewBox="0 0 28 29" fill="none" xmlns="http://www.w3.org/2000/svg">
<path d="M0.181152 28.1384L2.16732 20.7336C1.04621 18.7059 0.451018 16.436 0.451018 14.1245C0.451018 6.58816 6.58255 0.449707 14.1258 0.449707C21.6691 0.449707 27.8007 6.58124 27.8007 14.1245C27.8007 21.6678 21.6691 27.7994 14.1258 27.7994C11.8629 27.7994 9.62758 27.2249 7.62757 26.1454L0.181152 28.1384ZM7.99433 23.3702L8.46491 23.6471C10.1881 24.6713 12.1466 25.218 14.1258 25.218C20.2435 25.218 25.2124 20.2422 25.2124 14.1315C25.2124 8.01378 20.2366 3.04488 14.1258 3.04488C8.00816 3.04488 3.0393 8.0207 3.0393 14.1315C3.0393 16.1522 3.59984 18.1384 4.65867 19.8824L4.94931 20.3529L3.84206 24.4844L7.99433 23.3702Z" fill="url(#paint0_linear_66_2287)"/>
<path fill-rule="evenodd" clip-rule="evenodd" d="M19.2124 16.0346C18.6518 15.6955 17.9182 15.3217 17.2539 15.5916C16.7487 15.7993 16.4234 16.5951 16.0912 17.0034C15.9251 17.211 15.7175 17.2456 15.4615 17.1418C13.5514 16.3806 12.0912 15.1072 11.0324 13.3494C10.8525 13.0795 10.887 12.8581 11.1016 12.6089C11.4199 12.2352 11.8213 11.8061 11.9044 11.3009C11.9874 10.7958 11.7521 10.2075 11.5445 9.7577C11.2746 9.1833 10.977 8.3667 10.4026 8.04144C9.86973 7.74386 9.17771 7.90994 8.70712 8.29057C7.89051 8.95493 7.50294 9.99301 7.50986 11.0242C7.50986 11.3148 7.5514 11.6055 7.62061 11.8892C7.7867 12.5674 8.09809 13.2041 8.45103 13.8061C8.71401 14.2629 9.00466 14.6989 9.31608 15.128C10.3403 16.5121 11.6068 17.7231 13.0808 18.6228C13.8144 19.0726 14.6102 19.4671 15.4269 19.737C16.3473 20.0415 17.1639 20.3598 18.1604 20.166C19.1985 19.9654 20.2228 19.3287 20.638 18.3252C20.7625 18.0276 20.8179 17.6955 20.7556 17.3841C20.6103 16.7266 19.7383 16.346 19.2124 16.0346Z" fill="url(#paint1_linear_66_2287)"/>
<defs>
<linearGradient id="paint0_linear_66_2287" x1="22.9804" y1="27.2975" x2="3.08323" y2="7.40028" gradientUnits="userSpaceOnUse">
<stop stop-color="#00FB73"/>
<stop offset="1" stop-color="#00B25B"/>
</linearGradient>
<linearGradient id="paint1_linear_66_2287" x1="24.5322" y1="25.7457" x2="4.63488" y2="5.84843" gradientUnits="userSpaceOnUse">
<stop stop-color="#00FB73"/>
<stop offset="1" stop-color="#00B25B"/>
</linearGradient>
</defs>
</svg>
