<svg width="32" height="22" viewBox="0 0 32 22" fill="none" xmlns="http://www.w3.org/2000/svg">
<path d="M31.0435 7.05878C31.0435 3.4117 28.0884 0.449738 24.4345 0.449738H7.54164C3.89456 0.449738 0.932617 3.40478 0.932617 7.05878V14.9204C0.932617 18.5675 3.88764 21.5294 7.54164 21.5294H24.4345C28.0815 21.5294 31.0435 18.5744 31.0435 14.9204V7.05878ZM21.1126 11.5778L13.5347 15.3287C13.2372 15.4879 12.2268 15.2734 12.2268 14.9343V7.23872C12.2268 6.89962 13.2441 6.68509 13.5417 6.85118L20.7943 10.7958C21.0988 10.9757 21.4171 11.4117 21.1126 11.5778Z" fill="url(#paint0_linear_66_2298)"/>
<defs>
<linearGradient id="paint0_linear_66_2298" x1="29.0703" y1="20.9947" x2="1.18464" y2="-0.334742" gradientUnits="userSpaceOnUse">
<stop stop-color="#FF0000"/>
<stop offset="1" stop-color="#9B0000"/>
</linearGradient>
</defs>
</svg>
