<svg width="36" height="36" viewBox="0 0 36 36" fill="none" xmlns="http://www.w3.org/2000/svg">
<rect width="36" height="36" rx="18" fill="#E24949"/>
<path d="M9.16992 13.44L17.9999 18.55L26.7699 13.47M17.9999 27.61V18.54" stroke="white" stroke-width="1.5" stroke-linecap="round" stroke-linejoin="round"/>
<path d="M27.6101 18.83V15.17C27.6101 13.79 26.6201 12.11 25.4101 11.44L20.0701 8.48C18.9301 7.84 17.0701 7.84 15.9301 8.48L10.5901 11.44C9.38014 12.11 8.39014 13.79 8.39014 15.17V20.83C8.39014 22.21 9.38014 23.89 10.5901 24.56L15.9301 27.52C16.5001 27.84 17.2501 28 18.0001 28C18.7501 28 19.5001 27.84 20.0701 27.52" stroke="white" stroke-width="1.5" stroke-linecap="round" stroke-linejoin="round"/>
<path d="M29 28L28 27M25.2 27.4C26.0487 27.4 26.8626 27.0629 27.4627 26.4627C28.0629 25.8626 28.4 25.0487 28.4 24.2C28.4 23.3513 28.0629 22.5374 27.4627 21.9373C26.8626 21.3371 26.0487 21 25.2 21C24.3513 21 23.5374 21.3371 22.9373 21.9373C22.3371 22.5374 22 23.3513 22 24.2C22 25.0487 22.3371 25.8626 22.9373 26.4627C23.5374 27.0629 24.3513 27.4 25.2 27.4Z" stroke="white" stroke-width="1.5" stroke-linecap="round" stroke-linejoin="round"/>
</svg>
