<svg width="24" height="24" viewBox="0 0 24 24" fill="none" xmlns="http://www.w3.org/2000/svg">
<path d="M9.00003 15L15 8.99999M3.98903 14.66L2.46903 13.14C1.84903 12.52 1.84903 11.5 2.46903 10.88L3.98903 9.35999C4.24903 9.09999 4.45903 8.58999 4.45903 8.22999V6.07999C4.45903 5.19999 5.17903 4.47999 6.05903 4.47999H8.20903C8.56903 4.47999 9.07903 4.26999 9.33903 4.00999L10.859 2.48999C11.479 1.86999 12.499 1.86999 13.119 2.48999L14.639 4.00999C14.899 4.26999 15.409 4.47999 15.769 4.47999H17.919C18.799 4.47999 19.519 5.19999 19.519 6.07999V8.22999C19.519 8.58999 19.729 9.09999 19.989 9.35999L21.509 10.88C22.129 11.5 22.129 12.52 21.509 13.14L19.989 14.66C19.729 14.92 19.519 15.43 19.519 15.79V17.94C19.519 18.82 18.799 19.54 17.919 19.54H15.769C15.409 19.54 14.899 19.75 14.639 20.01L13.119 21.53C12.499 22.15 11.479 22.15 10.859 21.53L9.33903 20.01C9.07903 19.75 8.56903 19.54 8.20903 19.54H6.05903C5.17903 19.54 4.45903 18.82 4.45903 17.94V15.79C4.45903 15.42 4.24903 14.91 3.98903 14.66Z" stroke="black" stroke-opacity="0.5" stroke-width="1.5" stroke-linecap="round" stroke-linejoin="round"/>
<path d="M14.495 14.5H14.504M9.495 9.5H9.503" stroke="black" stroke-opacity="0.5" stroke-width="2" stroke-linecap="round" stroke-linejoin="round"/>
</svg>
