<svg width="24" height="20" viewBox="0 0 24 20" fill="none" xmlns="http://www.w3.org/2000/svg">
<path d="M8 15L12 19L16 15" stroke="black" stroke-width="1.5" stroke-linecap="round" stroke-linejoin="round"/>
<path d="M12 10V19" stroke="black" stroke-width="1.5" stroke-linecap="round" stroke-linejoin="round"/>
<path d="M20.8799 16.09C21.7493 15.4786 22.4013 14.6061 22.7412 13.5991C23.0811 12.5921 23.0913 11.503 22.7703 10.4898C22.4493 9.47663 21.8138 8.59208 20.956 7.96456C20.0982 7.33703 19.0628 6.99916 17.9999 6.99999H16.7399C16.4392 5.82787 15.8764 4.73924 15.0941 3.81607C14.3117 2.89291 13.3301 2.15925 12.2231 1.67035C11.1162 1.18144 9.91278 0.950022 8.70346 0.993511C7.49414 1.037 6.31045 1.35426 5.24149 1.92142C4.17253 2.48858 3.24616 3.29084 2.53212 4.26782C1.81808 5.2448 1.33498 6.37104 1.11919 7.56174C0.903403 8.75245 0.960543 9.97659 1.28631 11.142C1.61208 12.3074 2.19799 13.3838 2.99993 14.29" stroke="black" stroke-width="1.5" stroke-linecap="round" stroke-linejoin="round"/>
</svg>
