<svg width="24" height="25" viewBox="0 0 24 25" fill="none" xmlns="http://www.w3.org/2000/svg">
<path d="M17.4533 19.1667C17.4533 16.5867 14.8867 14.5 11.7267 14.5C8.56667 14.5 6 16.5867 6 19.1667M11.7267 12.5C12.6107 12.5 13.4586 12.1488 14.0837 11.5237C14.7088 10.8986 15.06 10.0507 15.06 9.16668C15.06 8.28262 14.7088 7.43478 14.0837 6.80965C13.4586 6.18453 12.6107 5.83334 11.7267 5.83334C10.8426 5.83334 9.99477 6.18453 9.36964 6.80965C8.74452 7.43478 8.39333 8.28262 8.39333 9.16668C8.39333 10.0507 8.74452 10.8986 9.36964 11.5237C9.99477 12.1488 10.8426 12.5 11.7267 12.5Z" stroke="black" stroke-linecap="round" stroke-linejoin="round"/>
<rect x="0.5" y="1" width="23" height="23" rx="11.5" stroke="black"/>
</svg>
