<svg width="270" height="184" viewBox="0 0 270 184" fill="none" xmlns="http://www.w3.org/2000/svg">
<path d="M241.459 88.8904C241.459 107.915 234.513 125.505 222.729 139.799C222.729 139.799 222.729 139.809 222.718 139.809C204.887 161.428 176.009 175.488 143.411 175.488C89.2618 175.488 45.3755 136.716 45.3755 88.9005C45.3755 60.262 61.1101 34.879 85.3685 19.11C101.621 8.54985 121.698 2.30328 143.423 2.30328C146.107 2.30328 148.779 2.39484 151.417 2.58814C167.036 3.69706 181.619 8.04117 194.312 14.8676C204.38 20.2698 213.249 27.2285 220.495 35.3673C222.683 37.8293 224.733 40.3931 226.611 43.0483C236.01 56.3452 241.459 72.0633 241.459 88.8904Z" fill="#EBEBEB"/>
<path d="M164.583 129.768C163.35 132.677 165.412 132.799 165.539 134.01C165.677 135.221 165.539 137.53 161.553 141.04C157.568 144.56 150.979 143.828 149.608 145.282C148.237 146.737 145.899 152.923 142.605 154.988C139.31 157.053 138.758 155.832 134.092 156.687C129.427 157.531 125.857 162.872 124.486 165.416C123.115 167.959 124.762 172.212 121.468 172.324C118.174 172.446 116.665 166.138 113.647 162.74C110.629 159.342 109.661 156.31 108.705 152.312C107.749 148.314 109.258 139.941 108.705 136.665C108.152 133.389 98.2693 127.57 94.6985 123.572C91.1276 119.574 86.1861 111.567 86.4626 108.902C86.739 106.236 88.9391 103.327 90.5863 102.228C92.2334 101.139 91.5423 100.529 91.8188 99.5624C92.0952 98.5959 93.466 98.3517 93.7424 97.1411C94.0189 95.9304 92.9131 92.2883 91.5423 91.6881C90.1716 91.0777 89.204 93.1429 88.3862 92.7766C87.5568 92.4104 85.0919 89.867 84.1243 89.6228C83.1682 89.3787 83.4331 91.1997 82.0624 88.8903C80.6917 86.5911 80.0006 80.7617 78.9063 79.7952C77.812 78.8287 76.9827 81.4942 74.3795 79.7952C71.7762 78.0962 70.6704 74.8203 69.5761 74.3422C68.4819 73.8539 66.9729 74.4643 65.8441 72.5211C64.7153 70.578 66.8347 67.0681 65.8441 67.4242C64.8535 67.7904 62.711 70.578 62.1696 67.9125C61.6167 65.247 64.9111 56.274 64.3697 51.4212C63.8168 46.5684 65.7404 41.4816 69.5877 37.3512C69.5877 37.3512 70.1405 34.6857 70.6819 32.9867C71.2348 31.2877 83.0415 24.502 84.4122 22.5588C84.9882 21.7449 85.1725 20.4732 85.3798 19.11C101.633 8.54985 121.71 2.30328 143.434 2.30328C146.118 2.30328 148.79 2.39484 151.428 2.58814C151.52 2.70005 151.612 2.80179 151.705 2.9137C152.891 4.24644 154.181 5.10101 157.66 6.23027C161.138 7.35954 161.956 8.81437 161.231 10.025C160.493 11.2357 159.307 11.4798 157.936 11.5612C156.565 11.6426 155.275 10.9915 153.812 11.8054C152.35 12.6091 150.887 16.9837 148.963 17.2177C147.04 17.4619 143.653 13.3416 142.916 12.1208C142.179 10.9101 144.563 8.31585 143.446 7.1052C142.317 5.89455 140.359 6.13871 137.249 5.89454C134.139 5.65038 126.905 6.70843 127.181 7.75631C127.458 8.80418 137.801 7.59353 138.078 9.69946C138.354 11.8054 130.487 15.3559 129.105 15.0406C127.734 14.715 125.903 12.6193 123.887 12.3751C121.871 12.1309 120.224 13.5857 118.957 13.7485C117.69 13.9113 116.192 12.5379 114.269 12.8634C112.345 13.189 111.884 14.6438 110.882 15.2135C109.88 15.7832 107.496 15.7832 107.219 17.0753C106.943 18.3673 110.237 19.0998 111.067 19.9035C111.896 20.7072 110.053 23.4643 110.882 24.0238C111.712 24.5935 116.837 20.6259 118.116 19.6594C119.395 18.6929 120.489 14.481 123.242 14.5624C125.983 14.6438 126.905 18.7641 127.815 19.171C128.725 19.578 130.741 18.2045 133.77 18.7641C136.788 19.3338 138.896 25.1531 139.449 26.9334C140.002 28.7138 141.28 30.4942 140.186 31.2165C139.092 31.949 134.139 30.7282 133.505 29.5989C132.86 28.4696 136.799 26.7707 136.523 26.3637C136.246 25.9568 133.954 25.3972 132.768 26.028C131.581 26.6588 131.028 27.9813 129.75 28.3069C128.471 28.6324 125.085 25.2345 124.163 26.201C123.242 27.1674 125.073 30.2399 125.995 30.9723C126.916 31.7048 130.303 32.1016 130.568 32.9155C130.844 33.7192 128.276 35.4996 125.165 35.3368C122.055 35.174 119.487 33.0681 118.3 33.9634C117.114 34.8485 117.747 37.1986 116.93 38.0023C116.1 38.806 111.619 38.2464 109.419 40.3422C107.219 42.4481 106.217 45.6019 104.017 47.3721C101.817 49.1525 100.815 46.8838 97.8891 49.3966C94.9634 51.8993 94.5026 57.4846 94.4105 59.4176C94.3183 61.3607 94.4105 62.8969 93.6848 62.6528C92.9476 62.4086 91.9455 60.7096 91.669 59.6617C91.3926 58.6139 92.3141 56.8335 92.3141 56.1824C92.3141 55.5313 88.0982 52.2147 85.6332 51.8993C83.1567 51.5738 80.9681 53.3542 79.1367 54.6462C77.3052 55.9382 74.0109 55.6941 72.8244 56.7521C71.638 57.8 70.7165 67.0986 71.638 69.2859C72.5595 71.4732 73.7459 71.4732 76.6717 70.3338C79.5974 69.2045 77.9502 67.0172 79.6896 67.5056C81.4289 67.9939 82.3389 69.6115 82.3389 70.9035C82.3389 72.1956 78.8602 75.268 79.321 76.1632C79.7817 77.0585 82.7996 76.0005 84.2625 76.4074C85.7254 76.8144 86.4626 77.6181 86.0018 80.9346C85.5411 84.2512 85.8175 86.8353 88.0176 87.9239C90.2177 89.0124 91.4502 86.347 92.4062 86.7132C93.3623 87.0795 94.7445 89.0226 96.1153 88.9005C97.486 88.7784 96.8064 87.6899 99.4096 86.9574C102.013 86.2249 101.057 85.7467 101.61 84.2919C102.163 82.8371 103.81 81.6264 105.595 82.3488C107.381 83.0813 106.148 84.1698 106.286 85.3805C106.424 86.5911 109.581 86.7132 112.057 87.4457C114.534 88.1782 115.904 87.4457 120.846 88.9005C125.787 90.3553 126.064 94.7198 128.126 95.4523C130.188 96.1848 137.053 94.964 141.994 98.1178C146.936 101.272 145.565 107.091 148.042 108.79C150.518 110.489 159.71 112.788 163.281 113.398C166.852 114.009 167.405 111.822 170.284 112.432C173.164 113.042 174.811 113.765 175.779 117.285C176.55 120.367 165.815 126.858 164.583 129.768Z" fill="#DBDBDB"/>
<path d="M90.8052 67.7498C90.8973 68.4314 93.1896 68.7163 95.931 70.0897C98.6725 71.4631 99.6861 75.502 101.149 75.4308C102.612 75.3494 102.151 73.4876 102.704 73.0095C103.257 72.5212 104.167 71.4733 102.704 70.4254C101.241 69.3775 99.8128 67.1088 97.1405 66.7833C94.4681 66.4577 94.0074 65.4912 92.8209 65.5726C91.623 65.654 90.6209 66.3763 90.8052 67.7498Z" fill="#DBDBDB"/>
<path d="M105.906 74.5457C105.503 75.5325 105.906 76.2447 108.832 76.8856C111.758 77.5367 114.51 76.2345 113.589 75.7156C112.679 75.1866 111.297 75.4308 111.85 74.5457C112.403 73.6606 112.207 72.3584 109.834 72.6025C107.461 72.8467 106.275 73.6504 105.906 74.5457Z" fill="#DBDBDB"/>
<path d="M116.158 74.8203C115.156 74.9526 114.603 76.4888 115.605 77.4553C116.607 78.4217 116.607 78.259 117.805 77.4553C118.991 76.6516 120.823 76.2446 120.374 75.4307C119.913 74.627 117.171 74.688 116.158 74.8203Z" fill="#DBDBDB"/>
<path d="M124.128 78.1267C124.578 76.916 126.87 78.1063 127.883 79.3983C128.886 80.6904 128.436 82.5522 127.883 83.9256C127.331 85.299 126.973 86.9166 125.683 86.2655C124.405 85.6144 125.775 83.6814 125.591 82.542C125.407 81.4127 123.76 79.1135 124.128 78.1267Z" fill="#DBDBDB"/>
<path d="M163.58 10.6761C163.097 11.6934 165.32 12.0495 166.598 12.7006C167.877 13.3517 168.89 13.7485 169.616 12.7006C170.353 11.6527 169.34 10.4319 168.338 10.1979C167.335 9.94359 164.03 9.69942 163.58 10.6761Z" fill="#DBDBDB"/>
<path d="M180.881 20.1274C181.722 20.9108 183.173 20.7785 184.176 21.9078C185.178 23.037 184.821 24.9802 186.099 25.5499C187.378 26.1196 188.299 25.5499 188.391 24.7462C188.484 23.9425 186.56 21.9179 186.744 21.511C186.929 21.1041 189.394 22.0807 189.946 23.2914C190.499 24.502 189.394 26.201 190.684 26.5266C191.962 26.8521 191.686 25.3973 192.239 25.0717C192.792 24.7462 193.978 24.909 193.886 23.9425C193.794 22.976 192.331 20.8701 191.144 20.1376C189.958 19.4051 189.037 18.6014 187.021 18.1944C185.005 17.7875 183.081 18.113 182.079 18.8455C181.066 19.5679 180.363 19.6492 180.881 20.1274Z" fill="#DBDBDB"/>
<path d="M220.483 35.3673C220.368 35.7742 220.206 36.0693 219.965 36.2219C218.041 37.4325 215.749 33.2308 213.099 32.4271C210.439 31.6132 209.252 28.6222 208.711 29.2733C208.158 29.9143 208.342 30.8095 207.524 31.8574C206.695 32.9053 205.509 32.6713 204.967 34.6857C204.414 36.7102 207.524 40.4235 206.799 41.6444C206.061 42.855 205.151 42.4481 203.689 42.3769C202.226 42.2955 202.502 43.4247 200.579 42.9466C198.655 42.4583 200.302 40.3625 197.284 37.8496C194.266 35.3469 193.253 34.8586 193.898 33.7293C194.543 32.6001 193.621 30.9825 194.992 30.8197C196.363 30.6569 197.469 32.4373 198.379 32.9256C199.288 33.414 200.486 31.9592 200.579 30.6569C200.671 29.3649 197.376 27.5845 196.19 26.5773C195.004 25.5702 194.911 21.9179 195.361 21.1955C195.81 20.4732 197.192 20.7072 197.561 18.937C197.78 17.8891 195.902 16.1495 194.324 14.8879C204.357 20.2697 213.226 27.2284 220.483 35.3673Z" fill="#DBDBDB"/>
<path d="M234.155 107.854C234.432 105.27 232.969 105.107 234.432 100.336C235.894 95.5642 232.877 90.4672 231.782 89.4194C230.688 88.3715 228.304 88.6869 226.38 89.7449C224.456 90.7928 225.827 91.6067 224.548 92.0035C223.27 92.4104 221.991 91.7593 220.793 91.8407C219.607 91.9221 218.501 94.5875 215.944 94.5061C213.387 94.4247 211.74 91.1896 209.816 88.8903C207.892 86.5911 203.953 85.1261 202.674 82.2979C201.396 79.4696 203.861 75.1052 203.319 71.7886C202.767 68.472 200.302 69.2045 199.841 67.3428C199.38 65.481 200.209 66.3763 200.854 64.5959C201.5 62.8155 200.117 61.8491 201.407 58.7766C202.686 55.7042 204.978 54.168 204.425 52.7946C203.872 51.4212 202.133 49.1525 202.041 47.545C201.949 45.9376 203.78 46.0088 207.259 43.7401C210.738 41.4816 211.648 41.6444 214.308 42.4481C216.969 43.2518 218.616 43.6587 220.171 43.9029C221.726 44.1471 223.834 47.7078 224.479 47.545C225.124 47.3823 225.217 46.3344 225.493 44.7982C225.608 44.1471 226.104 43.5367 226.633 43.0585C236.044 56.3553 241.481 72.0633 241.481 88.9005C241.481 107.925 234.535 125.515 222.752 139.809C232.07 127.214 233.879 110.438 234.155 107.854Z" fill="#DBDBDB"/>
<path d="M84.4701 39.5079C84.4701 39.5079 84.8502 39.4062 85.5644 39.2231" stroke="#C7C7C7" stroke-width="0.75" stroke-miterlimit="10"/>
<path d="M87.8104 38.6737C103.626 35.0011 171.909 21.9281 214.424 58.6139" stroke="#C7C7C7" stroke-width="0.75" stroke-miterlimit="10" stroke-dasharray="2.03 2.03"/>
<path d="M215.254 59.3463C215.53 59.5905 215.795 59.8245 216.06 60.0687" stroke="#C7C7C7" stroke-width="0.75" stroke-miterlimit="10"/>
<path d="M106.817 91.8306C106.759 91.6373 106.748 91.2914 106.759 90.8234" stroke="#C7C7C7" stroke-width="0.75" stroke-miterlimit="10"/>
<path d="M106.886 88.8598C107.531 80.1411 109.569 55.4703 86.3362 40.6474" stroke="#C7C7C7" stroke-width="0.75" stroke-miterlimit="10" stroke-dasharray="1.93 1.93"/>
<path d="M85.4262 40.0777C85.1152 39.8844 84.7926 39.6911 84.4701 39.5079" stroke="#C7C7C7" stroke-width="0.75" stroke-miterlimit="10"/>
<path d="M107.888 88.8903C107.888 88.8903 108.153 88.6258 108.682 88.1578" stroke="#C7C7C7" stroke-width="0.75" stroke-miterlimit="10"/>
<path d="M110.353 86.7234C119.787 78.8897 155.967 52.8963 213.756 59.7838" stroke="#C7C7C7" stroke-width="0.75" stroke-miterlimit="10" stroke-dasharray="2.03 2.03"/>
<path d="M214.931 59.9161C215.311 59.967 215.691 60.0178 216.071 60.0687" stroke="#C7C7C7" stroke-width="0.75" stroke-miterlimit="10"/>
<path d="M140.221 103.194C140.221 103.194 140.29 102.838 140.371 102.187" stroke="#C7C7C7" stroke-width="0.75" stroke-miterlimit="10"/>
<path d="M140.566 100.203C141.28 89.7143 139.541 54.5341 86.67 40.0877" stroke="#C7C7C7" stroke-width="0.75" stroke-miterlimit="10" stroke-dasharray="1.97 1.97"/>
<path d="M85.5759 39.7928C85.2073 39.6911 84.8387 39.5995 84.4701 39.5079" stroke="#C7C7C7" stroke-width="0.75" stroke-miterlimit="10"/>
<path d="M216.071 60.0687C216.071 60.0687 215.679 60.1297 214.954 60.2823" stroke="#C7C7C7" stroke-width="0.75" stroke-miterlimit="10"/>
<path d="M212.696 60.7809C197.883 64.2603 138.734 82.1352 127.031 147.531" stroke="#C7C7C7" stroke-width="0.75" stroke-miterlimit="10" stroke-dasharray="2.01 2.01"/>
<path d="M126.859 148.548C126.801 148.884 126.743 149.219 126.686 149.555" stroke="#C7C7C7" stroke-width="0.75" stroke-miterlimit="10"/>
<path d="M106.816 91.8304C106.816 91.8304 136.73 117.722 126.686 149.555" stroke="#C7C7C7" stroke-width="0.75" stroke-miterlimit="10" stroke-dasharray="2 2"/>
<path d="M87.5608 24.1431C87.1548 20.5803 84.4026 17.0441 79.5299 17.0441C74.6722 17.0441 71.905 20.5936 71.5139 24.1431C70.8973 29.6409 75.0783 34.6183 79.5299 39.1552C83.9965 34.6183 88.1774 29.6409 87.5608 24.1431ZM79.5449 28.093C77.1236 28.093 75.1535 26.3449 75.1535 24.1965C75.1535 22.0481 77.1236 20.3 79.5449 20.3C81.9813 20.3 83.9514 22.0481 83.9514 24.1965C83.9514 26.3449 81.9662 28.093 79.5449 28.093Z" fill="#E24949"/>
<path d="M155.34 84.5344C154.777 79.5612 150.959 74.6253 144.2 74.6253C137.462 74.6253 133.624 79.5798 133.081 84.5344C132.226 92.2084 138.025 99.1559 144.2 105.489C150.396 99.1559 156.195 92.2084 155.34 84.5344ZM144.2 90.0477C140.841 90.0477 138.109 87.6077 138.109 84.6089C138.109 81.6101 140.841 79.1701 144.2 79.1701C147.58 79.1701 150.312 81.6101 150.312 84.6089C150.312 87.6077 147.58 90.0477 144.2 90.0477Z" fill="#E24949"/>
<path d="M111.919 82.0639C111.608 79.3476 109.5 76.6516 105.768 76.6516C102.047 76.6516 99.9278 79.3578 99.6283 82.0639C99.156 86.2554 102.358 90.0502 105.768 93.5092C109.189 90.0502 112.391 86.2554 111.919 82.0639ZM105.768 85.0753C103.913 85.0753 102.404 83.7425 102.404 82.1046C102.404 80.4667 103.913 79.1339 105.768 79.1339C107.634 79.1339 109.143 80.4667 109.143 82.1046C109.143 83.7425 107.634 85.0753 105.768 85.0753Z" fill="#A6A6A6"/>
<path d="M226.175 59.769C225.864 57.0527 223.756 54.3567 220.024 54.3567C216.304 54.3567 214.184 57.0628 213.885 59.769C213.413 63.9605 216.615 67.7552 220.024 71.2143C223.445 67.7552 226.648 63.9605 226.175 59.769ZM220.036 62.7804C218.181 62.7804 216.672 61.4477 216.672 59.8097C216.672 58.1718 218.181 56.839 220.036 56.839C221.902 56.839 223.411 58.1718 223.411 59.8097C223.411 61.4477 221.89 62.7804 220.036 62.7804Z" fill="#E24949"/>
<path d="M132.837 142.515C132.526 139.799 130.418 137.103 126.686 137.103C122.965 137.103 120.846 139.809 120.546 142.515C120.074 146.707 123.276 150.501 126.686 153.96C130.107 150.501 133.309 146.697 132.837 142.515ZM126.686 145.527C124.831 145.527 123.323 144.194 123.323 142.556C123.323 140.918 124.831 139.585 126.686 139.585C128.552 139.585 130.061 140.918 130.061 142.556C130.061 144.194 128.552 145.527 126.686 145.527Z" fill="#A6A6A6"/>
<path d="M225.59 153.666C225.662 153.673 225.738 153.663 225.805 153.63C227.049 153.032 228.286 152.392 229.487 151.729C229.653 151.637 229.701 151.444 229.594 151.301C229.486 151.157 229.263 151.115 229.097 151.207C227.909 151.864 226.684 152.497 225.452 153.089C225.281 153.172 225.219 153.361 225.316 153.51C225.375 153.6 225.48 153.655 225.59 153.666ZM232.774 149.693C232.861 149.702 232.95 149.683 233.026 149.636C233.321 149.451 233.616 149.261 233.909 149.071C234.765 148.513 235.607 147.938 236.411 147.363C236.563 147.254 236.583 147.059 236.456 146.927C236.328 146.796 236.102 146.777 235.95 146.886C235.153 147.456 234.319 148.026 233.473 148.579C233.182 148.769 232.892 148.955 232.6 149.139C232.44 149.239 232.406 149.433 232.524 149.572C232.585 149.64 232.677 149.684 232.774 149.693ZM239.337 144.99C239.439 145 239.545 144.973 239.626 144.908C240.674 144.052 241.689 143.165 242.64 142.27C242.773 142.145 242.763 141.949 242.617 141.834C242.471 141.718 242.243 141.726 242.11 141.851C241.171 142.734 240.168 143.611 239.133 144.459C238.99 144.575 238.983 144.771 239.121 144.896C239.177 144.95 239.257 144.982 239.337 144.99ZM245.094 139.562C245.213 139.574 245.337 139.534 245.417 139.446C246.306 138.467 247.152 137.455 247.928 136.437C248.037 136.295 247.99 136.101 247.824 136.008C247.657 135.913 247.435 135.953 247.328 136.095C246.561 137.098 245.728 138.097 244.85 139.063C244.728 139.197 244.756 139.391 244.913 139.498C244.967 139.533 245.031 139.556 245.094 139.562ZM249.78 133.415C249.921 133.429 250.064 133.369 250.137 133.255C250.819 132.163 251.449 131.04 252.007 129.913C252.086 129.756 252 129.574 251.817 129.506C251.635 129.437 251.425 129.51 251.346 129.668C250.797 130.777 250.176 131.883 249.505 132.959C249.412 133.108 249.476 133.298 249.652 133.38C249.692 133.398 249.737 133.41 249.78 133.415ZM253.129 126.644C253.295 126.661 253.457 126.575 253.511 126.433C253.947 125.256 254.322 124.048 254.627 122.844C254.669 122.677 254.546 122.512 254.352 122.474C254.156 122.437 253.968 122.542 253.925 122.709C253.626 123.894 253.255 125.082 252.826 126.242C252.765 126.404 252.869 126.58 253.058 126.633C253.083 126.638 253.106 126.642 253.129 126.644ZM254.945 119.448C255.141 119.468 255.318 119.347 255.342 119.178C255.356 119.069 255.372 118.96 255.386 118.853C255.53 117.737 255.618 116.599 255.652 115.47C255.657 115.299 255.501 115.155 255.301 115.151C255.103 115.145 254.939 115.279 254.933 115.452C254.902 116.563 254.813 117.683 254.672 118.781C254.658 118.888 254.644 118.995 254.628 119.102C254.604 119.273 254.745 119.428 254.943 119.448L254.945 119.448ZM255.16 112.077C255.181 112.079 255.202 112.079 255.225 112.077C255.423 112.067 255.572 111.919 255.559 111.749C255.463 110.52 255.299 109.277 255.075 108.051C255.043 107.881 254.859 107.766 254.662 107.792C254.465 107.819 254.333 107.976 254.364 108.147C254.587 109.354 254.749 110.579 254.842 111.789C254.855 111.942 254.992 112.06 255.16 112.077ZM225.003 109.027C225.977 109.125 226.973 109.171 227.965 109.164C228.164 109.162 228.322 109.023 228.321 108.852C228.317 108.68 228.155 108.543 227.957 108.543C226.544 108.552 225.126 108.452 223.76 108.242C223.561 108.212 223.378 108.325 223.345 108.494C223.312 108.662 223.442 108.824 223.637 108.854C224.088 108.923 224.547 108.981 225.003 109.027ZM219.536 107.862C219.695 107.878 219.85 107.801 219.911 107.668C219.983 107.509 219.892 107.328 219.706 107.268C218.372 106.815 217.119 106.249 215.987 105.582C215.822 105.485 215.601 105.521 215.489 105.663C215.377 105.804 215.42 105.996 215.585 106.093C216.761 106.784 218.062 107.374 219.448 107.843C219.477 107.852 219.507 107.859 219.536 107.862ZM232.176 108.813C232.21 108.816 232.245 108.816 232.281 108.809C233.689 108.587 235.094 108.257 236.458 107.831C236.645 107.773 236.741 107.596 236.67 107.434C236.602 107.274 236.396 107.189 236.209 107.249C234.881 107.664 233.515 107.984 232.145 108.2C231.95 108.231 231.822 108.393 231.858 108.562C231.892 108.698 232.021 108.797 232.176 108.813ZM212.546 103.695C212.642 103.705 212.741 103.681 212.821 103.622C212.971 103.511 212.987 103.315 212.859 103.185C211.93 102.257 211.18 101.236 210.629 100.151C210.549 99.9941 210.337 99.9225 210.155 99.9907C209.974 100.059 209.892 100.242 209.972 100.399C210.553 101.539 211.341 102.614 212.317 103.59C212.374 103.65 212.458 103.686 212.546 103.695ZM240.177 106.32C240.248 106.327 240.324 106.317 240.391 106.283C241.632 105.688 242.844 104.997 243.995 104.232C244.151 104.126 244.181 103.932 244.058 103.797C243.935 103.662 243.71 103.636 243.554 103.741C242.433 104.489 241.25 105.161 240.041 105.743C239.867 105.826 239.807 106.015 239.903 106.164C239.961 106.254 240.064 106.309 240.177 106.32ZM253.82 104.787C253.861 104.791 253.903 104.789 253.947 104.779C254.139 104.738 254.256 104.571 254.207 104.405C253.86 103.208 253.445 102.007 252.976 100.835C252.91 100.674 252.707 100.587 252.517 100.643C252.331 100.698 252.231 100.873 252.296 101.037C252.759 102.192 253.166 103.375 253.511 104.555C253.549 104.681 253.675 104.772 253.82 104.787ZM246.916 101.846C247.022 101.856 247.133 101.825 247.212 101.755C248.195 100.886 249.14 99.9389 250.021 98.9351C250.142 98.7984 250.108 98.6039 249.951 98.5016C249.794 98.3973 249.567 98.4248 249.449 98.5598C248.587 99.5414 247.663 100.47 246.699 101.321C246.559 101.444 246.565 101.639 246.706 101.758C246.764 101.808 246.838 101.838 246.916 101.846ZM209.168 97.0229C209.193 97.0254 209.219 97.026 209.245 97.0226C209.443 97.0063 209.586 96.8537 209.564 96.6845C209.456 95.8006 209.462 94.8839 209.581 93.9624C209.618 93.6745 209.667 93.3837 209.725 93.0958C209.759 92.9282 209.628 92.7662 209.433 92.7366C209.236 92.7067 209.052 92.8189 209.018 92.9865C208.956 93.2881 208.908 93.591 208.869 93.8928C208.744 94.86 208.737 95.8208 208.851 96.7476C208.869 96.8943 209.004 97.0064 209.168 97.0229ZM251.024 97.8008C251.086 97.807 251.15 97.7994 251.209 97.7771C251.39 97.7089 251.472 97.526 251.39 97.3689C250.803 96.2337 250.155 95.1104 249.461 94.0327C249.363 93.8821 249.146 93.8281 248.972 93.9112C248.798 93.9943 248.737 94.1812 248.834 94.3318C249.518 95.3944 250.158 96.5007 250.735 97.6188C250.789 97.7228 250.902 97.7885 251.024 97.8008ZM252.068 95.9987C252.204 96.0124 252.344 95.9581 252.416 95.8507C253.131 94.8121 253.805 93.7091 254.422 92.5661C254.505 92.4115 254.428 92.2267 254.248 92.1544C254.069 92.082 253.855 92.147 253.772 92.3016C253.165 93.4235 252.502 94.5115 251.799 95.5311C251.699 95.6779 251.756 95.8688 251.927 95.9563C251.97 95.9788 252.02 95.9939 252.068 95.9987ZM210.549 89.8192C210.703 89.8347 210.857 89.7617 210.921 89.6313C210.978 89.5103 211.038 89.3896 211.1 89.2691C211.628 88.2359 212.206 87.266 212.821 86.3864C212.924 86.2398 212.867 86.049 212.698 85.9617C212.528 85.8721 212.307 85.9203 212.206 86.0651C211.577 86.9674 210.984 87.9619 210.444 89.0181C210.379 89.1423 210.319 89.267 210.259 89.3917C210.182 89.549 210.269 89.7307 210.454 89.7975C210.483 89.8085 210.517 89.8159 210.549 89.8192ZM246.858 91.337C246.941 91.3454 247.027 91.3299 247.101 91.2869C247.265 91.1908 247.306 90.9978 247.196 90.856C246.375 89.8159 245.499 88.8145 244.591 87.8743C244.463 87.7428 244.237 87.7241 244.085 87.8335C243.933 87.943 243.913 88.1381 244.041 88.2696C244.934 89.1923 245.794 90.18 246.603 91.2027C246.663 91.2811 246.757 91.3268 246.858 91.337ZM255.687 89.3379C255.848 89.3541 256.006 89.2733 256.063 89.1383C256.54 88.0074 256.982 86.8207 257.374 85.6069C257.428 85.4433 257.317 85.2712 257.125 85.2237C256.935 85.1765 256.736 85.2712 256.682 85.4367C256.295 86.6329 255.859 87.8061 255.386 88.9214C255.319 89.0816 255.415 89.2602 255.601 89.3191C255.632 89.3303 255.659 89.3351 255.687 89.3379ZM214.99 83.5688C215.101 83.58 215.217 83.5454 215.297 83.469C216.271 82.5369 217.33 81.7461 218.445 81.1159C218.611 81.022 218.656 80.8314 218.546 80.6876C218.437 80.5438 218.213 80.5033 218.049 80.5974C216.884 81.2548 215.779 82.0811 214.762 83.0531C214.629 83.1806 214.642 83.3749 214.79 83.4904C214.847 83.5344 214.919 83.5617 214.99 83.5688ZM241.354 85.668C241.462 85.6789 241.574 85.6479 241.653 85.5754C241.79 85.4524 241.785 85.2567 241.642 85.1377C240.575 84.25 239.465 83.4343 238.342 82.7099C238.183 82.6074 237.958 82.635 237.84 82.772C237.722 82.909 237.755 83.1035 237.914 83.206C239.011 83.9137 240.098 84.713 241.143 85.5825C241.205 85.6309 241.28 85.6606 241.354 85.668ZM234.476 81.2791C234.619 81.2935 234.762 81.2335 234.833 81.1159C234.925 80.9642 234.858 80.7764 234.681 80.6963C233.346 80.0853 231.994 79.6014 230.662 79.2563C230.472 79.207 230.272 79.2995 230.215 79.4628C230.159 79.6262 230.268 79.8 230.457 79.8492C231.742 80.1816 233.052 80.6512 234.345 81.2439C234.389 81.2624 234.432 81.2747 234.476 81.2791ZM222.08 79.6488C222.124 79.6532 222.171 79.6499 222.217 79.6404C223.533 79.3282 224.92 79.194 226.34 79.2402C226.538 79.246 226.704 79.1139 226.71 78.9415C226.716 78.771 226.559 78.6266 226.362 78.6208C224.868 78.5712 223.407 78.714 222.021 79.0434C221.83 79.0886 221.718 79.2583 221.771 79.4246C221.816 79.5478 221.94 79.6347 222.08 79.6488ZM258.003 82.2503C258.185 82.2686 258.355 82.1649 258.393 82.0079C258.679 80.8276 258.932 79.6018 259.146 78.36C259.175 78.1899 259.039 78.0334 258.844 78.0077C258.646 77.9819 258.466 78.0985 258.437 78.2666C258.225 79.4945 257.975 80.7106 257.694 81.8792C257.653 82.0462 257.777 82.2115 257.973 82.2473C257.98 82.246 257.991 82.2491 258.003 82.2503ZM259.262 74.9579C259.265 74.9581 259.267 74.9584 259.269 74.9586C259.468 74.9765 259.642 74.8513 259.66 74.682C259.791 73.4822 259.895 72.2394 259.966 70.9852C259.976 70.8152 259.822 70.667 259.625 70.6593C259.428 70.6495 259.259 70.7814 259.249 70.9514C259.18 72.1957 259.077 73.4285 258.947 74.6184C258.927 74.7874 259.069 74.9385 259.262 74.9579ZM259.681 67.583C259.695 67.5844 259.706 67.5856 259.72 67.585C259.918 67.5868 260.081 67.4482 260.082 67.2773C260.088 66.0348 260.057 64.7885 259.99 63.5707C259.982 63.3989 259.812 63.2672 259.615 63.2735C259.416 63.2797 259.264 63.4253 259.273 63.5952C259.339 64.8028 259.371 66.0391 259.364 67.2696C259.362 67.4323 259.501 67.565 259.681 67.583ZM259.27 60.2133C259.295 60.2158 259.321 60.2164 259.347 60.213C259.545 60.1967 259.689 60.0441 259.668 59.8751C259.522 58.6413 259.333 57.4034 259.111 56.1961C259.079 56.028 258.896 55.911 258.699 55.9374C258.504 55.9641 258.369 56.1216 258.401 56.2917C258.623 57.4868 258.81 58.7126 258.954 59.9341C258.972 60.0827 259.106 60.1969 259.27 60.2133ZM257.913 52.9235C257.952 52.9274 257.99 52.9252 258.031 52.9192C258.224 52.8823 258.346 52.7175 258.304 52.5504C257.993 51.3423 257.639 50.1298 257.247 48.9519C257.191 48.7873 256.993 48.691 256.803 48.7383C256.612 48.7855 256.502 48.9554 256.558 49.12C256.944 50.2873 257.298 51.4857 257.604 52.6831C257.638 52.8133 257.766 52.9087 257.913 52.9235ZM255.557 45.8228C255.61 45.8282 255.664 45.8236 255.718 45.8068C255.904 45.7512 256.002 45.5739 255.936 45.4124C255.456 44.2477 254.928 43.0821 254.366 41.9514C254.288 41.7947 254.076 41.7211 253.895 41.7874C253.714 41.8536 253.63 42.0363 253.707 42.193C254.263 43.311 254.787 44.464 255.261 45.6161C255.305 45.7331 255.423 45.8094 255.557 45.8228ZM252.178 39.0318C252.245 39.0385 252.316 39.0296 252.38 39.0018C252.558 38.9252 252.626 38.7389 252.537 38.585C251.89 37.484 251.191 36.3878 250.462 35.3248C250.36 35.1778 250.14 35.1275 249.97 35.215C249.8 35.3025 249.743 35.4919 249.845 35.639C250.566 36.6892 251.257 37.7745 251.896 38.8627C251.954 38.959 252.063 39.0202 252.178 39.0318ZM247.813 32.6687C247.896 32.677 247.982 32.6615 248.055 32.6166C248.22 32.5204 248.261 32.3274 248.148 32.1854C247.342 31.1668 246.487 30.1576 245.605 29.1817C245.482 29.0467 245.256 29.022 245.101 29.1271C244.945 29.2321 244.917 29.4265 245.04 29.5615C245.912 30.5263 246.761 31.5249 247.558 32.5324C247.617 32.6128 247.712 32.6585 247.813 32.6687ZM242.535 26.8393C242.634 26.8493 242.735 26.8253 242.813 26.7647C242.96 26.6508 242.974 26.455 242.841 26.327C241.895 25.4091 240.899 24.5003 239.882 23.6276C239.741 23.5069 239.513 23.506 239.374 23.6268C239.234 23.7476 239.235 23.9448 239.375 24.0655C240.382 24.9291 241.367 25.8288 242.303 26.7376C242.367 26.7964 242.449 26.8308 242.535 26.8393ZM145.261 15.081C145.351 15.09 145.445 15.0693 145.521 15.0186C146.627 14.2828 147.792 13.5731 148.983 12.9104C149.149 12.8184 149.197 12.6261 149.09 12.4825C148.982 12.339 148.759 12.2964 148.593 12.3884C147.384 13.0594 146.204 13.7796 145.083 14.526C144.927 14.631 144.898 14.8252 145.02 14.9602C145.079 15.0305 145.169 15.0717 145.261 15.081ZM236.46 21.626C236.573 21.6374 236.69 21.6028 236.77 21.5244C236.901 21.3967 236.886 21.2001 236.735 21.0864C235.666 20.2748 234.549 19.4745 233.417 18.713C233.26 18.6067 233.033 18.6302 232.913 18.765C232.791 18.8995 232.82 19.0935 232.976 19.1998C234.097 19.9542 235.202 20.7451 236.26 21.5496C236.322 21.594 236.391 21.6191 236.46 21.626ZM152.426 11.092C152.495 11.0989 152.569 11.0882 152.636 11.0567C153.866 10.4885 155.149 9.94955 156.45 9.45666C156.631 9.3884 156.713 9.20553 156.631 9.04838C156.55 8.89147 156.338 8.81982 156.156 8.89006C154.839 9.39127 153.539 9.93649 152.293 10.5113C152.119 10.5924 152.053 10.7789 152.148 10.9313C152.208 11.0238 152.313 11.0806 152.426 11.092ZM229.706 17.0746C229.832 17.0873 229.964 17.0402 230.042 16.9434C230.154 16.8038 230.113 16.6106 229.949 16.5116C228.779 15.8126 227.562 15.1311 226.336 14.4828C226.166 14.3933 225.945 14.4395 225.843 14.584C225.74 14.7306 225.795 14.9212 225.963 15.0105C227.178 15.6516 228.381 16.3278 229.54 17.0197C229.592 17.0511 229.648 17.0688 229.706 17.0746ZM160.232 8.12093C160.285 8.12625 160.339 8.12165 160.392 8.1049C161.709 7.70018 163.069 7.32591 164.439 6.99497C164.63 6.94971 164.74 6.77779 164.685 6.61326C164.629 6.44873 164.431 6.35242 164.241 6.39966C162.856 6.73517 161.479 7.11378 160.148 7.52307C159.961 7.58071 159.865 7.75822 159.933 7.91994C159.982 8.03144 160.1 8.10772 160.232 8.12093ZM222.391 13.2131C222.534 13.2274 222.677 13.1674 222.748 13.0518C222.842 12.9004 222.775 12.7126 222.599 12.6325C221.344 12.0497 220.049 11.487 218.751 10.9603C218.572 10.8859 218.358 10.9529 218.275 11.1076C218.192 11.2622 218.269 11.4469 218.448 11.5193C219.735 12.0408 221.016 12.5981 222.26 13.1758C222.304 13.1983 222.347 13.2087 222.391 13.2131ZM168.451 6.12287C168.488 6.12657 168.528 6.12455 168.566 6.11832C169.935 5.86774 171.343 5.64913 172.75 5.46871C172.946 5.44424 173.081 5.28679 173.049 5.11664C173.02 4.94671 172.837 4.82971 172.64 4.85616C171.218 5.03916 169.797 5.26036 168.413 5.51352C168.219 5.54838 168.096 5.71296 168.139 5.88031C168.173 6.01449 168.301 6.10781 168.451 6.12287ZM214.637 10.0618C214.793 10.0776 214.948 10.0026 215.009 9.87193C215.083 9.71441 214.994 9.53251 214.809 9.46761C213.49 9.00307 212.135 8.5611 210.78 8.15534C210.594 8.09838 210.389 8.18441 210.324 8.34683C210.258 8.50925 210.36 8.68436 210.548 8.74155C211.889 9.14393 213.233 9.58277 214.541 10.0422C214.573 10.0514 214.604 10.0586 214.637 10.0618ZM176.901 5.03709C176.924 5.03941 176.949 5.03996 176.975 5.03854C178.375 4.93183 179.803 4.85618 181.225 4.81802C181.424 4.81188 181.577 4.67041 181.569 4.4986C181.561 4.32679 181.396 4.19354 181.197 4.19967C179.764 4.23866 178.322 4.31293 176.907 4.42222C176.71 4.43653 176.564 4.58687 176.584 4.75786C176.6 4.90432 176.737 5.02065 176.901 5.03709ZM206.545 7.63099C206.715 7.64812 206.881 7.55616 206.93 7.41022C206.984 7.24665 206.873 7.07458 206.683 7.02534C205.314 6.68045 203.913 6.36257 202.523 6.08007C202.332 6.04075 202.137 6.14383 202.092 6.31032C202.047 6.4768 202.168 6.64385 202.361 6.6834C203.739 6.96474 205.127 7.27924 206.485 7.62099C206.503 7.62681 206.524 7.6289 206.545 7.63099ZM185.451 4.80028C185.462 4.80144 185.474 4.8026 185.485 4.80177C186.894 4.83067 188.325 4.89214 189.741 4.98621C189.938 4.99993 190.111 4.87246 190.126 4.70097C190.141 4.52949 189.992 4.38373 189.793 4.36779C188.366 4.27256 186.92 4.2117 185.5 4.18363C185.302 4.17983 185.138 4.31419 185.134 4.48683C185.128 4.64511 185.266 4.78175 185.451 4.80028ZM198.211 5.93224C198.398 5.951 198.571 5.84163 198.605 5.68018C198.641 5.51276 198.51 5.35076 198.314 5.31893C196.91 5.0973 195.48 4.90535 194.066 4.74704C194.063 4.7468 194.063 4.7468 194.061 4.74657C193.865 4.72689 193.689 4.84596 193.665 5.01453C193.641 5.18509 193.779 5.33985 193.977 5.36175C195.378 5.51867 196.796 5.70945 198.188 5.92993C198.195 5.93062 198.204 5.93155 198.211 5.93224Z" fill="#2E2E46"/>
<path d="M47.2967 56.9622C47.3 56.944 47.3017 56.9238 47.2994 56.9048C47.2889 56.7603 47.1486 56.6521 46.9869 56.6616C46.3973 56.6942 45.7972 56.7525 45.2027 56.8337C45.0427 56.8554 44.9317 56.9895 44.9563 57.1308C44.9809 57.2721 45.1327 57.3701 45.2927 57.3484C45.8694 57.2698 46.452 57.2124 47.0241 57.1807C47.1642 57.1733 47.2754 57.08 47.2967 56.9622Z" fill="#2E2E46"/>
<path d="M117.02 137.581C117.039 137.477 116.985 137.37 116.875 137.314C116.734 137.243 116.553 137.286 116.473 137.41C115.918 138.265 115.27 139.118 114.547 139.945C114.447 140.058 114.471 140.222 114.6 140.31C114.729 140.398 114.914 140.376 115.013 140.262C115.752 139.417 116.414 138.544 116.983 137.67C117.003 137.642 117.014 137.611 117.02 137.581ZM112.769 142.468C112.783 142.388 112.756 142.303 112.685 142.241C112.568 142.14 112.383 142.141 112.268 142.244C111.457 142.969 110.588 143.653 109.688 144.28C109.561 144.369 109.539 144.532 109.64 144.645C109.741 144.758 109.926 144.778 110.054 144.688C110.973 144.049 111.858 143.348 112.687 142.611C112.731 142.57 112.76 142.519 112.769 142.468ZM107.289 146.279C107.299 146.221 107.288 146.158 107.251 146.104C107.167 145.981 106.986 145.94 106.847 146.014C105.856 146.54 104.825 147.012 103.778 147.414C103.629 147.472 103.56 147.625 103.625 147.757C103.69 147.889 103.864 147.949 104.013 147.892C105.084 147.479 106.14 146.999 107.152 146.461C107.227 146.42 107.275 146.354 107.289 146.279ZM100.896 148.735C100.902 148.699 100.899 148.661 100.889 148.623C100.845 148.485 100.682 148.405 100.524 148.444C99.4246 148.72 98.2878 148.934 97.1463 149.078C96.9848 149.097 96.872 149.231 96.8965 149.373C96.9189 149.515 97.0685 149.615 97.2304 149.593C98.3975 149.446 99.5583 149.227 100.684 148.945C100.8 148.915 100.878 148.831 100.896 148.735ZM93.9977 149.614C94.0004 149.599 94.0012 149.584 94.0021 149.569C93.9991 149.425 93.8659 149.309 93.7036 149.312C92.5721 149.326 91.4097 149.276 90.2507 149.166C90.0898 149.15 89.9461 149.252 89.9256 149.397C89.9077 149.539 90.025 149.668 90.1878 149.684C91.3697 149.796 92.5549 149.848 93.7114 149.834C93.8565 149.83 93.9755 149.737 93.9977 149.614ZM87.0641 148.963C87.0884 148.829 86.9889 148.697 86.8363 148.667C85.7365 148.453 84.6103 148.181 83.4931 147.861C83.3373 147.817 83.1718 147.89 83.1219 148.028C83.0723 148.164 83.1554 148.312 83.3112 148.356C84.4484 148.683 85.5912 148.958 86.7098 149.175C86.868 149.206 87.0266 149.118 87.0617 148.976C87.0623 148.973 87.0632 148.968 87.0641 148.963ZM80.419 147.068C80.4399 146.952 80.3705 146.835 80.2423 146.788C79.2043 146.402 78.145 145.963 77.096 145.489C76.9519 145.422 76.7731 145.474 76.7 145.601C76.6265 145.73 76.6831 145.886 76.8275 145.951C77.8906 146.433 78.9627 146.875 80.013 147.268C80.1629 147.323 80.3357 147.262 80.4003 147.128C80.4077 147.109 80.4151 147.09 80.419 147.068ZM74.1751 144.296C74.1946 144.188 74.1359 144.076 74.0182 144.023C72.9642 143.545 71.8821 143.115 70.8024 142.746C70.6499 142.694 70.48 142.761 70.421 142.895C70.362 143.03 70.437 143.18 70.5894 143.232C71.6509 143.594 72.7132 144.016 73.7475 144.487C73.8916 144.554 74.0704 144.502 74.1435 144.375C74.1599 144.348 74.1703 144.322 74.1751 144.296ZM67.6638 142.076C67.6875 141.945 67.5949 141.818 67.447 141.783C66.4671 141.555 65.4683 141.368 64.4763 141.228C64.3147 141.206 64.151 141.184 63.9891 141.163C63.8291 141.142 63.6804 141.24 63.6552 141.38C63.6549 141.381 63.6546 141.383 63.6543 141.385C63.6304 141.528 63.7434 141.659 63.9037 141.679C64.0618 141.699 64.2218 141.72 64.3815 141.743C65.3546 141.88 66.335 142.062 67.2945 142.286C67.4518 142.322 67.6131 142.239 67.6555 142.1C67.6608 142.093 67.6623 142.084 67.6638 142.076ZM60.7601 141.206C60.7622 141.195 60.7643 141.183 60.7645 141.171C60.7693 141.027 60.6386 140.909 60.4775 140.905C59.3047 140.88 58.119 140.917 56.9509 141.017C56.7887 141.029 56.6693 141.157 56.6857 141.301C56.7003 141.444 56.8449 141.549 57.0075 141.535C58.1521 141.438 59.3147 141.401 60.4643 141.425C60.612 141.429 60.737 141.334 60.7601 141.206ZM56.4624 162.459C56.4876 162.32 56.3806 162.187 56.2234 162.162C56.0621 162.137 55.9102 162.231 55.8809 162.372C55.6746 163.396 55.4015 164.396 55.0673 165.339C55.0193 165.477 55.1048 165.621 55.2606 165.666C55.4167 165.708 55.5806 165.632 55.6306 165.495C55.9727 164.529 56.2513 163.51 56.4618 162.462C56.4618 162.462 56.4621 162.461 56.4624 162.459ZM56.8718 159.394C56.8733 159.386 56.8748 159.378 56.8744 159.369C56.9456 158.346 56.9578 157.298 56.9056 156.255C56.8989 156.111 56.761 155.999 56.5981 156.005C56.4352 156.011 56.3095 156.131 56.3159 156.277C56.3655 157.303 56.355 158.331 56.2849 159.337C56.2745 159.48 56.3984 159.605 56.5607 159.613C56.7153 159.621 56.8481 159.525 56.8718 159.394ZM54.352 168.326C54.3718 168.217 54.3093 168.104 54.1916 168.052C54.0451 167.989 53.8678 168.042 53.7963 168.171C53.2654 169.126 52.6597 169.993 51.9966 170.752C51.8971 170.866 51.9215 171.029 52.0501 171.117C52.1787 171.205 52.3637 171.184 52.4632 171.07C53.1503 170.286 53.7769 169.387 54.3251 168.401C54.339 168.377 54.3472 168.353 54.352 168.326ZM56.5769 153.234C56.5814 153.209 56.5825 153.182 56.5776 153.156C56.4095 152.135 56.1829 151.108 55.9023 150.101C55.864 149.962 55.7042 149.876 55.5456 149.912C55.3872 149.945 55.2904 150.087 55.3306 150.227C55.6064 151.217 55.8303 152.227 55.9955 153.232C56.0178 153.375 56.1678 153.472 56.3293 153.452C56.4599 153.433 56.5571 153.343 56.5769 153.234ZM54.9059 147.247C54.9134 147.205 54.9096 147.162 54.8924 147.119C54.5039 146.146 54.0569 145.176 53.5636 144.238C53.4947 144.108 53.32 144.051 53.1722 144.112C53.0245 144.172 52.96 144.327 53.0289 144.457C53.5152 145.38 53.9555 146.334 54.337 147.293C54.3915 147.428 54.5597 147.499 54.7129 147.451C54.819 147.418 54.8894 147.338 54.9059 147.247ZM50.0439 173.115C50.0559 173.048 50.0394 172.98 49.9923 172.92C49.8957 172.804 49.7116 172.779 49.5809 172.862C48.6176 173.48 47.5944 173.897 46.5429 174.108C46.3849 174.14 46.2846 174.279 46.3192 174.419C46.3556 174.558 46.513 174.647 46.671 174.615C47.8021 174.39 48.8983 173.942 49.9266 173.284C49.992 173.242 50.0319 173.181 50.0439 173.115ZM53.817 141.791C53.8227 141.76 53.8228 141.727 53.8131 141.695C53.7789 141.555 53.6215 141.466 53.4619 141.496C52.3185 141.714 51.1732 141.997 50.0623 142.334C49.9075 142.38 49.8267 142.529 49.8791 142.665C49.9314 142.802 50.0996 142.874 50.2544 142.827C51.3447 142.498 52.4657 142.222 53.5872 142.007C53.7112 141.982 53.7984 141.894 53.817 141.791ZM51.9653 141.654C51.9757 141.596 51.9634 141.537 51.9289 141.483C51.3399 140.595 50.6951 139.718 50.0092 138.876C49.9148 138.759 49.7306 138.733 49.5981 138.816C49.4655 138.899 49.4361 139.062 49.5305 139.179C50.2053 140.008 50.841 140.871 51.4208 141.746C51.5025 141.87 51.6836 141.913 51.8241 141.839C51.9029 141.797 51.9518 141.729 51.9653 141.654ZM43.4342 174.381C43.4585 174.247 43.3605 174.117 43.2098 174.088C42.1807 173.876 41.1373 173.477 40.1091 172.898C39.9709 172.821 39.7892 172.857 39.7016 172.979C39.614 173.101 39.6544 173.261 39.7926 173.339C40.8767 173.949 41.9813 174.372 43.0755 174.596C43.2334 174.629 43.3919 174.54 43.4287 174.401C43.4321 174.393 43.4333 174.386 43.4342 174.381ZM47.2177 143.789C47.2267 143.74 47.2191 143.686 47.1915 143.636C47.1204 143.507 46.9454 143.451 46.7974 143.514C45.7374 143.963 44.698 144.47 43.7082 145.022C43.5709 145.099 43.5287 145.258 43.6163 145.381C43.7041 145.503 43.8843 145.54 44.0235 145.463C44.9939 144.922 46.0125 144.424 47.0515 143.984C47.1432 143.946 47.203 143.871 47.2177 143.789ZM47.8963 136.645C47.9095 136.572 47.887 136.494 47.8286 136.433C47.0688 135.659 46.2566 134.898 45.4106 134.174C45.2938 134.074 45.1064 134.077 44.9934 134.18C44.8803 134.283 44.8832 134.449 45 134.548C45.8322 135.263 46.6353 136.011 47.3815 136.775C47.4872 136.883 47.6737 136.896 47.7968 136.801C47.8524 136.759 47.8858 136.703 47.8963 136.645ZM37.5376 171.212C37.5519 171.132 37.525 171.047 37.4551 170.986C36.6171 170.25 35.8782 169.467 35.2539 168.657C35.1616 168.539 34.9784 168.508 34.8445 168.588C34.7104 168.669 34.6753 168.831 34.7657 168.949C35.41 169.787 36.175 170.596 37.0379 171.354C37.1525 171.455 37.3396 171.455 37.4542 171.353C37.4999 171.314 37.5283 171.263 37.5376 171.212ZM41.3203 147.084C41.3332 147.013 41.3138 146.939 41.2574 146.878C41.1542 146.766 40.9686 146.749 40.8423 146.84C39.921 147.503 39.0489 148.214 38.2481 148.957C38.135 149.06 38.1397 149.226 38.2584 149.326C38.3752 149.426 38.5629 149.421 38.6762 149.317C39.4606 148.59 40.3147 147.894 41.2161 147.245C41.274 147.202 41.3095 147.144 41.3203 147.084ZM42.8873 132.348C42.9032 132.26 42.8662 132.167 42.7829 132.106C41.8902 131.459 40.9467 130.827 39.9793 130.232C39.8458 130.15 39.6614 130.178 39.5688 130.296C39.4762 130.414 39.5085 130.577 39.642 130.659C40.5971 131.248 41.529 131.869 42.4094 132.509C42.5355 132.6 42.7215 132.584 42.8245 132.472C42.8599 132.436 42.8792 132.393 42.8873 132.348ZM36.5192 151.551C36.5363 151.457 36.4942 151.359 36.4012 151.298C36.2698 151.215 36.0842 151.24 35.9897 151.357C35.2867 152.22 34.6663 153.116 34.1441 154.022C34.0709 154.15 34.1272 154.307 34.2735 154.372C34.4178 154.437 34.5964 154.387 34.6698 154.258C35.1781 153.375 35.785 152.501 36.4687 151.66C36.4957 151.628 36.5123 151.589 36.5192 151.551ZM33.666 166.123C33.6741 166.078 33.669 166.031 33.6502 165.986C33.2325 165.046 32.9419 164.064 32.7852 163.065C32.7628 162.922 32.6151 162.823 32.4535 162.843C32.292 162.863 32.1798 162.993 32.2021 163.136C32.365 164.175 32.6676 165.198 33.1015 166.176C33.1601 166.31 33.3314 166.375 33.4833 166.323C33.5837 166.29 33.6501 166.211 33.666 166.123ZM33.3868 157.04C33.4096 156.913 33.3245 156.787 33.181 156.75C33.0249 156.708 32.8603 156.787 32.8123 156.925C32.4621 157.945 32.23 158.985 32.1237 159.999C32.1095 160.142 32.229 160.269 32.3905 160.282C32.552 160.294 32.6957 160.192 32.7105 160.046C32.8126 159.065 33.0363 158.062 33.3765 157.076C33.3807 157.063 33.3847 157.051 33.3868 157.04ZM37.1643 128.815C37.1829 128.713 37.1308 128.607 37.0234 128.551C36.0326 128.031 34.9962 127.53 33.9429 127.058C33.7966 126.993 33.6197 127.045 33.5465 127.172C33.4734 127.3 33.5315 127.458 33.6759 127.522C34.7189 127.987 35.7427 128.484 36.721 128.998C36.8617 129.072 37.0424 129.031 37.1247 128.907C37.1473 128.878 37.1586 128.847 37.1643 128.815ZM31.0032 125.905C31.0221 125.8 30.9684 125.692 30.8589 125.638C29.8456 125.126 28.8604 124.575 27.932 123.998C27.7988 123.915 27.6144 123.943 27.5218 124.061C27.4292 124.179 27.4596 124.342 27.5931 124.424C28.5373 125.009 29.5362 125.569 30.5655 126.088C30.7068 126.159 30.886 126.116 30.9683 125.992C30.9868 125.964 30.9978 125.935 31.0032 125.905ZM42.1461 57.8558C42.1533 57.816 42.1492 57.7746 42.1354 57.7335C42.0849 57.5971 41.9174 57.5224 41.7629 57.567C40.6753 57.8816 39.5749 58.2778 38.4923 58.7462C38.3461 58.809 38.2851 58.9654 38.358 59.0948C38.4291 59.224 38.6062 59.2779 38.7527 59.2134C39.8123 58.7554 40.8861 58.3673 41.9472 58.0609C42.0545 58.0318 42.1293 57.9488 42.1461 57.8558ZM25.2964 122.357C25.312 122.271 25.2784 122.18 25.1969 122.119C24.3197 121.451 23.4794 120.738 22.6993 120.002C22.5871 119.898 22.4013 119.892 22.2832 119.991C22.1654 120.088 22.1586 120.254 22.2688 120.358C23.0641 121.107 23.9195 121.831 24.8118 122.512C24.9355 122.606 25.1209 122.593 25.227 122.485C25.2664 122.448 25.288 122.404 25.2964 122.357ZM35.8727 60.5447C35.8838 60.4833 35.8705 60.4185 35.8285 60.3632C35.7406 60.2419 35.5579 60.2077 35.4206 60.2853C34.4606 60.8323 33.5001 61.4456 32.5619 62.1062C32.4341 62.1954 32.4141 62.3593 32.515 62.4722C32.616 62.5852 32.8016 62.6028 32.9295 62.5137C33.8505 61.8625 34.7954 61.2606 35.7402 60.7234C35.8156 60.6796 35.8601 60.6144 35.8727 60.5447ZM30.4087 64.3839C30.4227 64.3059 30.3971 64.224 30.3309 64.1637C30.2188 64.0594 30.0327 64.0553 29.9143 64.156C29.0846 64.8558 28.2613 65.6058 27.4666 66.3888C27.3586 66.4961 27.3674 66.6607 27.4889 66.756C27.6104 66.8514 27.7967 66.8437 27.9047 66.7364C28.6897 65.964 29.5019 65.2226 30.3201 64.5331C30.3701 64.4908 30.3988 64.4387 30.4087 64.3839ZM20.5298 117.86C20.5418 117.794 20.5241 117.722 20.4748 117.664C19.7854 116.852 19.1404 115.997 18.555 115.121C18.4714 114.997 18.2919 114.957 18.1517 115.029C18.0112 115.103 17.9652 115.261 18.0469 115.385C18.6428 116.277 19.3001 117.149 20.0024 117.975C20.1012 118.089 20.2856 118.113 20.4151 118.026C20.4804 117.984 20.5184 117.923 20.5298 117.86ZM25.7355 68.9745C25.752 68.8832 25.7134 68.7875 25.626 68.7276C25.4974 68.6397 25.3127 68.6596 25.2132 68.7732C24.505 69.5786 23.8088 70.4248 23.1484 71.2863C23.0573 71.4062 23.0917 71.5676 23.2275 71.648C23.3632 71.7283 23.546 71.698 23.637 71.5781C24.29 70.7258 24.9788 69.8887 25.6795 69.0925C25.7092 69.0558 25.728 69.0159 25.7355 68.9745ZM16.9846 112.553C16.9933 112.505 16.9873 112.453 16.9613 112.406C16.4916 111.487 16.0675 110.529 15.7015 109.558C15.6511 109.422 15.4835 109.347 15.3287 109.393C15.1742 109.438 15.0896 109.586 15.142 109.723C15.5144 110.711 15.9448 111.687 16.4234 112.621C16.4904 112.751 16.6648 112.81 16.8141 112.751C16.9077 112.713 16.9693 112.638 16.9846 112.553ZM21.8126 74.0825C21.8312 73.9796 21.7791 73.8736 21.6717 73.8176C21.5307 73.745 21.3499 73.7859 21.268 73.9088C20.6768 74.7919 20.1072 75.7053 19.5726 76.6271C19.4973 76.756 19.5557 76.9122 19.7001 76.9768C19.8442 77.0431 20.023 76.9917 20.0962 76.8642C20.6252 75.9519 21.1911 75.0482 21.7749 74.1742C21.7956 74.1448 21.8069 74.114 21.8126 74.0825ZM14.7777 106.707C14.7834 106.676 14.7819 106.641 14.7744 106.608C14.5238 105.628 14.3179 104.614 14.1655 103.592C14.145 103.45 13.9956 103.349 13.8341 103.368C13.6728 103.386 13.5584 103.518 13.5808 103.661C13.7362 104.699 13.945 105.729 14.1985 106.724C14.235 106.864 14.3924 106.952 14.5504 106.92C14.6741 106.897 14.7591 106.81 14.7777 106.707ZM18.6218 79.5746C18.6425 79.4601 18.575 79.3434 18.4489 79.295C18.2995 79.2365 18.1249 79.2969 18.0608 79.4274C17.5896 80.3717 17.1433 81.3382 16.736 82.3018C16.6789 82.4367 16.7557 82.587 16.9085 82.6375C17.0612 82.6879 17.2314 82.6201 17.2886 82.4852C17.6921 81.5313 18.1329 80.5742 18.5989 79.6377C18.6103 79.6172 18.6179 79.5961 18.6218 79.5746ZM13.8541 100.592C13.8571 100.576 13.8585 100.557 13.8581 100.539C13.8046 99.5339 13.7966 98.5016 13.8327 97.4704C13.8375 97.3265 13.7109 97.2065 13.5479 97.2022C13.3849 97.198 13.2488 97.3115 13.2442 97.4538C13.2076 98.4985 13.217 99.5446 13.2699 100.563C13.2767 100.707 13.4164 100.818 13.5778 100.81C13.7191 100.806 13.8325 100.712 13.8541 100.592ZM16.1796 85.3593C16.2024 85.2332 16.1169 85.1089 15.9756 85.0702C15.8195 85.0278 15.6553 85.1051 15.6072 85.2429C15.2624 86.234 14.9512 87.2417 14.6806 88.2381C14.6419 88.3773 14.7397 88.5187 14.8973 88.5528C15.0549 88.5869 15.215 88.5006 15.2536 88.3614C15.5221 87.3766 15.8315 86.3789 16.1708 85.3972C16.1751 85.3842 16.1775 85.371 16.1796 85.3593ZM14.0658 94.4217C14.0667 94.4167 14.0676 94.4117 14.0685 94.4068C14.1868 93.4008 14.3486 92.3772 14.5469 91.3654C14.5714 91.2192 14.4678 91.0888 14.3066 91.0644C14.1453 91.04 13.9934 91.1343 13.9657 91.2767C13.7651 92.3017 13.6011 93.3369 13.481 94.3529C13.4646 94.4969 13.5823 94.6241 13.7435 94.6383C13.9006 94.6536 14.0412 94.5578 14.0658 94.4217Z" fill="#2E2E46"/>
<path d="M118.951 133.215C118.977 133.072 118.868 132.94 118.706 132.917C118.545 132.894 118.395 132.99 118.369 133.133C118.288 133.583 118.144 134.076 117.941 134.602C117.89 134.74 117.971 134.886 118.126 134.933C118.28 134.979 118.447 134.907 118.501 134.77C118.712 134.216 118.865 133.693 118.951 133.215Z" fill="#2E2E46"/>
</svg>
