<svg width="104" height="138" viewBox="0 0 104 138" fill="none" xmlns="http://www.w3.org/2000/svg">
<path d="M61.1071 130.241C61.2443 130.251 61.3765 130.177 61.4382 130.045C61.5158 129.876 61.4424 129.674 61.2727 129.596C60.1107 129.059 58.9408 128.417 57.7969 127.685C57.6398 127.584 57.4308 127.63 57.33 127.788C57.2292 127.945 57.2759 128.154 57.433 128.254C58.6021 129.002 59.7994 129.659 60.989 130.209C61.0269 130.229 61.0679 130.238 61.1071 130.241ZM54.3509 125.942C54.4555 125.949 54.5634 125.908 54.6353 125.819C54.7549 125.674 54.7347 125.463 54.5899 125.343C53.5698 124.499 52.5963 123.584 51.6936 122.627C51.5652 122.491 51.3511 122.485 51.2152 122.614C51.0792 122.742 51.073 122.956 51.2014 123.092C52.1223 124.069 53.1187 125.002 54.1571 125.865C54.2152 125.91 54.2834 125.937 54.3509 125.942ZM48.862 120.113C48.9382 120.118 49.0185 120.098 49.0853 120.05C49.2353 119.94 49.2699 119.728 49.16 119.578C48.3792 118.505 47.6634 117.38 47.037 116.229C46.9478 116.065 46.7419 116.005 46.578 116.094C46.4142 116.183 46.3538 116.389 46.443 116.553C47.0851 117.73 47.8144 118.882 48.6132 119.977C48.6732 120.058 48.764 120.106 48.862 120.113ZM45.0353 113.085C45.0833 113.089 45.132 113.081 45.1791 113.065C45.3545 112.998 45.4404 112.803 45.3739 112.628C44.9059 111.402 44.5136 110.127 44.2121 108.838C44.1701 108.656 43.9855 108.542 43.805 108.586C43.6226 108.628 43.5091 108.811 43.5533 108.993C43.8616 110.311 44.2629 111.613 44.7419 112.868C44.7921 112.996 44.909 113.077 45.0353 113.085ZM43.199 105.3C43.2186 105.301 43.2384 105.3 43.2581 105.3C43.4434 105.28 43.5798 105.114 43.5599 104.929C43.4271 103.637 43.374 102.302 43.3998 100.964C43.404 100.779 43.2571 100.626 43.0672 100.619C42.8814 100.615 42.7265 100.764 42.7221 100.952C42.6966 102.316 42.7501 103.677 42.8853 104.998C42.9043 105.163 43.0378 105.288 43.199 105.3ZM43.3392 97.2979C43.5156 97.3102 43.6757 97.1813 43.6991 97.0035C43.8655 95.7214 44.1023 94.4028 44.4045 93.0886C44.4458 92.9055 44.3337 92.7247 44.1505 92.6834C43.9695 92.6423 43.7866 92.7542 43.7453 92.9374C43.4371 94.2752 43.1967 95.6133 43.0288 96.9171C43.0049 97.1015 43.1352 97.2726 43.3218 97.2967C43.3261 97.297 43.3327 97.2974 43.3392 97.2979ZM45.1189 89.4831C45.2714 89.4937 45.4158 89.401 45.4637 89.2489C45.8586 88.0179 46.319 86.7564 46.8271 85.5027C46.8983 85.3304 46.8137 85.1318 46.6412 85.0628C46.4666 84.9937 46.2704 85.0763 46.2014 85.2487C45.6855 86.5194 45.2218 87.796 44.8193 89.0418C44.7631 89.2195 44.8592 89.4101 45.039 89.4687C45.0648 89.4749 45.0906 89.4811 45.1189 89.4831ZM48.0754 82.0265C48.2169 82.0364 48.3561 81.9564 48.4119 81.8158C48.9248 80.5558 49.3717 79.2694 49.7391 77.9927C49.7912 77.8124 49.6882 77.6257 49.508 77.5737C49.3278 77.5217 49.141 77.6246 49.089 77.8048C48.7275 79.0601 48.2888 80.3231 47.7841 81.5595C47.7129 81.7318 47.7975 81.9304 47.97 81.9994C48.0061 82.0151 48.0405 82.024 48.0754 82.0265ZM50.2892 74.3274C50.4612 74.3395 50.6163 74.219 50.646 74.046C50.8423 72.8995 50.9829 71.7361 51.0634 70.5859C51.0766 70.3986 51.0877 70.2089 51.0986 70.0214C51.1094 69.8361 50.9673 69.6773 50.7843 69.6645C50.7821 69.6644 50.78 69.6642 50.7778 69.6641C50.5903 69.6531 50.4313 69.7974 50.4227 69.9829C50.4121 70.166 50.4013 70.3513 50.3883 70.5365C50.3093 71.6648 50.1724 72.8066 49.98 73.9293C49.9496 74.1132 50.073 74.2882 50.2568 74.3208C50.2674 74.3259 50.2783 74.3266 50.2892 74.3274ZM50.7154 66.3346C50.7307 66.3357 50.746 66.3368 50.7614 66.3356C50.9482 66.3247 51.0887 66.1616 51.0776 65.9769C50.99 64.6333 50.822 63.2819 50.5755 61.9578C50.5424 61.7738 50.3648 61.6519 50.1807 61.6872C49.9967 61.7202 49.8748 61.8978 49.9101 62.0819C50.1519 63.3794 50.3174 64.7044 50.4025 66.0216C50.4125 66.1908 50.5477 66.3229 50.7154 66.3346ZM22.7691 63.8585C22.9521 63.8713 23.1128 63.7337 23.1299 63.551C23.1452 63.3638 23.0078 63.201 22.8229 63.1837C21.4762 63.0653 20.1548 62.8676 18.9 62.5937C18.7167 62.5546 18.5379 62.669 18.4966 62.8522C18.4575 63.0355 18.572 63.2143 18.7551 63.2556C20.0401 63.536 21.3876 63.7376 22.7647 63.8582C22.7647 63.8582 22.7669 63.8583 22.7691 63.8585ZM26.7778 63.9751C26.7887 63.9758 26.7995 63.9766 26.8106 63.9752C28.1418 63.9393 29.4999 63.833 30.8455 63.6536C31.0311 63.6294 31.1612 63.459 31.137 63.2735C31.1128 63.0879 30.9446 62.9579 30.7568 62.982C29.4334 63.1563 28.1016 63.2622 26.7923 63.2975C26.606 63.302 26.4572 63.4579 26.4638 63.6444C26.4689 63.8221 26.6057 63.963 26.7778 63.9751ZM14.9603 62.1186C15.104 62.1286 15.2435 62.0443 15.2993 61.9037C15.3662 61.7289 15.2793 61.5324 15.1045 61.4654C13.815 60.9679 12.6307 60.3749 11.581 59.7038C11.4239 59.6031 11.2149 59.6497 11.1141 59.8068C11.0134 59.964 11.06 60.173 11.2172 60.2738C12.3023 60.9692 13.529 61.5827 14.8611 62.0963C14.893 62.1095 14.9254 62.1161 14.9603 62.1186ZM34.7225 62.9314C34.7551 62.9337 34.7903 62.9317 34.8237 62.9231C36.1281 62.6139 37.4351 62.237 38.709 61.8009C38.8861 61.741 38.9806 61.5485 38.9186 61.3712C38.8587 61.1941 38.6661 61.0996 38.4889 61.1616C37.2352 61.5904 35.9505 61.9623 34.6662 62.2663C34.4837 62.3083 34.3724 62.4909 34.4144 62.6734C34.4522 62.8205 34.5787 62.9213 34.7225 62.9314ZM42.3031 60.3342C42.3576 60.3381 42.413 60.3288 42.4672 60.3041C43.6882 59.7483 44.8985 59.126 46.062 58.4545C46.2239 58.3608 46.28 58.1545 46.1862 57.9926C46.0925 57.8306 45.8863 57.7745 45.7243 57.8683C44.5791 58.5301 43.3891 59.1429 42.1863 59.6891C42.0167 59.7669 41.9414 59.9674 42.0192 60.137C42.0723 60.2546 42.1833 60.3258 42.3031 60.3342ZM8.3255 57.7421C8.41263 57.7482 8.49984 57.7215 8.57195 57.6609C8.71195 57.5372 8.7269 57.3237 8.60537 57.1838C7.7078 56.1534 7.06406 55.0314 6.68468 53.8534C6.62704 53.6764 6.43693 53.5777 6.26013 53.6332C6.08315 53.6909 5.98444 53.881 6.0421 54.0579C6.44804 55.3253 7.13876 56.5273 8.09491 57.6275C8.15568 57.6974 8.23837 57.736 8.3255 57.7421ZM49.2551 58.4636C49.2964 58.4665 49.3383 58.4629 49.3787 58.4482C49.5577 58.3929 49.6564 58.2028 49.6011 58.0238C49.2027 56.7416 48.7208 55.4645 48.1723 54.2331C48.0967 54.0614 47.8963 53.9861 47.7246 54.0616C47.553 54.1371 47.4776 54.3376 47.5532 54.5093C48.0902 55.718 48.5608 56.9681 48.9521 58.2257C48.9971 58.3645 49.12 58.4542 49.2551 58.4636ZM49.2446 56.3308C49.3209 56.3361 49.3968 56.3152 49.4634 56.2695C50.5531 55.4943 51.6231 54.6564 52.6436 53.7757C52.7856 53.6543 52.8006 53.4408 52.6792 53.2988C52.5578 53.1568 52.3443 53.1418 52.2023 53.2632C51.1981 54.1298 50.1443 54.9556 49.0708 55.7188C48.9188 55.8264 48.882 56.0383 48.9918 56.1905C49.0537 56.2758 49.1466 56.3239 49.2446 56.3308ZM6.0164 50.3305C6.19284 50.3428 6.35059 50.216 6.37383 50.0403C6.54331 48.8395 6.95406 47.6008 7.59925 46.3589C7.68536 46.192 7.62082 45.9882 7.45391 45.9021C7.28702 45.816 7.0833 45.8805 6.99718 46.0474C6.31662 47.357 5.88111 48.6683 5.70195 49.9451C5.6759 50.1293 5.80619 50.3004 5.99044 50.3265C6.00117 50.3294 6.00987 50.33 6.0164 50.3305ZM46.0002 51.1477C46.0656 51.1523 46.1344 51.1374 46.1961 51.1001C46.3561 51.0041 46.41 50.7977 46.3141 50.6356C45.6248 49.4753 44.8634 48.345 44.0495 47.2766C43.9351 47.1285 43.7249 47.0985 43.5746 47.2127C43.4265 47.3271 43.3964 47.5374 43.5107 47.6876C44.3085 48.7351 45.0562 49.8426 45.7318 50.98C45.7904 51.0805 45.8935 51.1402 46.0002 51.1477ZM55.3174 51.1042C55.4132 51.1109 55.512 51.0762 55.585 51.0025C56.5102 50.045 57.4131 49.0291 58.2638 47.9789C58.3812 47.8339 58.3589 47.62 58.2139 47.5026C58.0689 47.3851 57.8551 47.4074 57.7377 47.5524C56.8969 48.5858 56.0101 49.5897 55.0971 50.5305C54.9674 50.6637 54.9698 50.8784 55.1052 51.0083C55.1646 51.0672 55.2412 51.0988 55.3174 51.1042ZM9.5217 43.2253C9.62626 43.2327 9.73419 43.1921 9.80594 43.1052C10.6736 42.0627 11.6124 41.1281 12.5971 40.3214C12.7411 40.2024 12.7626 39.9894 12.6458 39.8454C12.5267 39.7014 12.3136 39.6799 12.1697 39.7968C11.1504 40.6294 10.1808 41.5969 9.28695 42.6704C9.1675 42.8131 9.18758 43.0268 9.33026 43.1463C9.38602 43.194 9.45418 43.2206 9.5217 43.2253ZM41.1377 44.783C41.2314 44.7896 41.3254 44.7589 41.3983 44.6874C41.5322 44.5567 41.5363 44.3425 41.4056 44.2086C40.4539 43.2313 39.4455 42.3157 38.4026 41.4853C38.2576 41.3679 38.0435 41.3923 37.9259 41.5395C37.8085 41.6845 37.8329 41.8985 37.9801 42.0161C39.0001 42.8296 39.9881 43.7262 40.9193 44.6823C40.9807 44.7436 41.0593 44.7775 41.1377 44.783ZM60.3718 44.8846C60.4872 44.8927 60.6048 44.8396 60.6754 44.7373C61.4219 43.6426 62.1439 42.4914 62.8172 41.3171C62.9096 41.155 62.854 40.9475 62.692 40.8552C62.5299 40.7629 62.3224 40.8184 62.23 40.9805C61.5644 42.14 60.8543 43.2767 60.1154 44.3566C60.0105 44.5113 60.0505 44.722 60.2051 44.827C60.2551 44.8633 60.313 44.8805 60.3718 44.8846ZM34.8689 39.8062C34.9931 39.8149 35.1154 39.7556 35.1847 39.6422C35.279 39.4825 35.2281 39.2731 35.0661 39.1786C33.8787 38.4738 32.656 37.8672 31.4296 37.3741C31.2572 37.3051 31.0587 37.3875 30.9896 37.5622C30.9206 37.7347 31.003 37.9331 31.1777 38.0022C32.3721 38.4821 33.5651 39.0757 34.7232 39.7609C34.7673 39.7881 34.8188 39.8027 34.8689 39.8062ZM15.7173 38.2153C15.7761 38.2194 15.836 38.2082 15.8926 38.1816C17.0674 37.5962 18.3091 37.1513 19.5862 36.8576C19.7686 36.8157 19.8819 36.6354 19.84 36.4529C19.798 36.2705 19.6177 36.1572 19.4352 36.1991C18.107 36.5045 16.8138 36.9677 15.5913 37.576C15.4235 37.6584 15.3567 37.8617 15.4391 38.0294C15.4926 38.1404 15.6018 38.2072 15.7173 38.2153ZM27.447 36.8544C27.6126 36.866 27.7671 36.7542 27.8008 36.5858C27.8399 36.4025 27.7211 36.2234 27.5377 36.1843C26.1807 35.901 24.8119 35.7548 23.4879 35.7496C23.3019 35.7498 23.149 35.901 23.1491 36.0871C23.1492 36.2732 23.2961 36.4257 23.4865 36.4259C24.7668 36.4302 26.0878 36.5709 27.3994 36.8467C27.4167 36.8501 27.4318 36.8533 27.447 36.8544ZM64.3652 37.9363C64.5003 37.9457 64.6323 37.874 64.6938 37.7448C65.2655 36.5524 65.81 35.31 66.3141 34.0516C66.3832 33.8769 66.2985 33.6806 66.126 33.6116C65.9535 33.5426 65.7549 33.6272 65.6859 33.7996C65.1893 35.0454 64.6503 36.2729 64.084 37.4503C64.0021 37.6197 64.0733 37.8217 64.2429 37.9014C64.2829 37.9239 64.3238 37.9334 64.3652 37.9363ZM67.5087 30.5585C67.646 30.5681 67.7803 30.4943 67.8399 30.3627C68.4001 29.1455 69.0132 27.956 69.6657 26.8284C69.7602 26.6665 69.7047 26.459 69.5426 26.3667C69.3805 26.2743 69.1732 26.3277 69.0808 26.4898C68.4182 27.6364 67.7953 28.8426 67.2271 30.079C67.1495 30.2487 67.2231 30.4487 67.3926 30.5284C67.4308 30.5464 67.4695 30.5557 67.5087 30.5585ZM156.726 35.4938C156.778 35.4974 156.831 35.488 156.883 35.4676C157.054 35.3942 157.134 35.194 157.061 35.0225C156.543 33.8152 155.919 32.6025 155.203 31.4185C155.107 31.2585 154.898 31.2067 154.738 31.3049C154.578 31.401 154.526 31.6097 154.625 31.7698C155.325 32.9287 155.936 34.1119 156.44 35.2899C156.489 35.4093 156.604 35.4852 156.726 35.4938ZM71.5229 23.6269C71.6361 23.6348 71.7512 23.586 71.8217 23.4858C72.5978 22.4063 73.4348 21.3638 74.3087 20.3875C74.4323 20.2473 74.421 20.0342 74.2808 19.9105C74.1428 19.787 73.9275 19.7982 73.804 19.9362C72.9156 20.9313 72.0642 21.9924 71.2737 23.0906C71.1645 23.2428 71.2001 23.4532 71.3501 23.5622C71.402 23.6031 71.4619 23.6226 71.5229 23.6269ZM152.61 28.6297C152.69 28.6354 152.773 28.6127 152.84 28.5583C152.988 28.4439 153.014 28.2312 152.9 28.0831C152.094 27.0482 151.203 26.0205 150.253 25.0236C150.124 24.8876 149.91 24.8836 149.774 25.0119C149.638 25.1403 149.634 25.3546 149.763 25.4905C150.699 26.4689 151.574 27.4802 152.365 28.4988C152.429 28.5799 152.518 28.6233 152.61 28.6297ZM147.086 22.8229C147.189 22.8301 147.292 22.7914 147.363 22.7088C147.487 22.5686 147.474 22.3554 147.331 22.2316C146.341 21.3633 145.287 20.5079 144.193 19.6893C144.043 19.5781 143.831 19.607 143.72 19.7568C143.609 19.9066 143.638 20.1188 143.787 20.23C144.867 21.0389 145.909 21.8824 146.884 22.7388C146.944 22.7911 147.014 22.8179 147.086 22.8229ZM76.8615 17.6615C76.9487 17.6676 77.0404 17.639 77.1105 17.576C78.0916 16.6947 79.133 15.8592 80.207 15.0895C80.3591 14.9798 80.3935 14.7698 80.286 14.6178C80.1762 14.4657 79.9663 14.4313 79.8143 14.5388C78.7196 15.3224 77.6574 16.174 76.6599 17.0716C76.5219 17.1977 76.5091 17.4113 76.6352 17.5493C76.6959 17.6192 76.7787 17.6557 76.8615 17.6615ZM140.671 18.0066C140.79 18.015 140.91 17.9599 140.979 17.853C141.08 17.6959 141.035 17.487 140.878 17.3863C139.764 16.6691 138.598 15.9701 137.416 15.3138C137.251 15.2235 137.046 15.2813 136.956 15.4457C136.865 15.6102 136.923 15.8156 137.088 15.9059C138.257 16.5548 139.41 17.2463 140.512 17.9561C140.563 17.9859 140.616 18.0027 140.671 18.0066ZM83.3719 12.9996C83.4351 13.004 83.5017 12.9912 83.5611 12.9559C84.7028 12.3135 85.9002 11.7188 87.1193 11.1891C87.2908 11.1157 87.3705 10.9155 87.295 10.7439C87.2217 10.5724 87.0214 10.4927 86.8498 10.5682C85.6081 11.1073 84.3881 11.7114 83.2281 12.3657C83.0663 12.4572 83.0081 12.6633 83.0995 12.8273C83.1579 12.9299 83.2608 12.9918 83.3719 12.9996ZM133.661 14.1074C133.796 14.1168 133.928 14.0451 133.989 13.9158C134.069 13.7463 133.998 13.5443 133.831 13.4647C132.628 12.8901 131.387 12.3436 130.14 11.8381C129.966 11.7668 129.769 11.8516 129.7 12.024C129.629 12.1964 129.714 12.3949 129.886 12.4639C131.121 12.9641 132.348 13.5075 133.538 14.0747C133.579 14.095 133.619 14.1045 133.661 14.1074ZM90.7164 9.80584C90.7578 9.80874 90.802 9.80308 90.8444 9.79073C92.0873 9.39183 93.3793 9.04015 94.6869 8.74865C94.8692 8.70889 94.9848 8.52654 94.9429 8.34411C94.9031 8.16183 94.7208 8.04617 94.5383 8.08812C93.2107 8.38477 91.8986 8.74161 90.6357 9.14568C90.4587 9.20334 90.3601 9.39344 90.4177 9.57041C90.4605 9.70912 90.5814 9.79639 90.7164 9.80584ZM126.228 11.0891C126.379 11.0997 126.523 11.0091 126.573 10.8593C126.633 10.6819 126.537 10.4891 126.362 10.4309C125.092 10.0004 123.795 9.60097 122.507 9.24586C122.327 9.19601 122.14 9.30112 122.09 9.48151C122.04 9.66189 122.145 9.84876 122.326 9.8986C123.601 10.2506 124.885 10.6448 126.144 11.0701C126.172 11.0808 126.2 11.0871 126.228 11.0891ZM98.5382 8.04868C98.56 8.0502 98.5841 8.0497 98.6083 8.04702C99.9034 7.87067 101.239 7.74312 102.577 7.66612C102.764 7.65513 102.907 7.49655 102.896 7.30972C102.885 7.12288 102.724 6.98029 102.539 6.99143C101.183 7.06938 99.83 7.20008 98.5173 7.37738C98.3318 7.4016 98.2015 7.57416 98.228 7.7577C98.2474 7.91886 98.3813 8.03769 98.5382 8.04868ZM118.493 8.96032C118.658 8.97191 118.811 8.85999 118.846 8.69394C118.885 8.51062 118.769 8.33171 118.585 8.2926C117.268 8.01205 115.932 7.77181 114.614 7.57667C114.43 7.54846 114.257 7.67643 114.229 7.86052C114.201 8.04461 114.329 8.21774 114.513 8.24595C115.815 8.44003 117.138 8.67935 118.443 8.95463C118.46 8.95803 118.477 8.95925 118.493 8.96032ZM106.547 7.583C106.554 7.58346 106.561 7.58392 106.567 7.58438C107.881 7.60419 109.223 7.67188 110.552 7.78252C110.744 7.79377 110.903 7.66038 110.918 7.4732C110.933 7.28601 110.796 7.12316 110.608 7.10786C109.261 6.99599 107.905 6.92723 106.577 6.90651C106.389 6.90428 106.237 7.05338 106.234 7.2393C106.231 7.42071 106.369 7.57049 106.547 7.583Z" fill="#2E2E46"/>
<path d="M66.9546 131.948C67.1419 131.961 67.3027 131.822 67.3159 131.634C67.329 131.447 67.1892 131.286 67.0019 131.273C66.4116 131.232 65.758 131.125 65.0564 130.953C64.8734 130.909 64.6928 131.019 64.6471 131.202C64.6038 131.383 64.7136 131.566 64.8965 131.612C65.6348 131.79 66.3272 131.904 66.9546 131.948Z" fill="#2E2E46"/>
<path d="M80.6618 37.3697L78.3291 40.1667L70.7952 49.2465L74.5392 59.5389L75.1478 61.2461L75.2363 61.4363L75.802 63.0015L79.8959 74.1957L86.7961 65.9428L87.4767 65.1173L87.6215 64.9806L88.7389 63.6511L89.8563 62.3216L97.2912 53.4268L93.1946 42.3263L92.5833 40.713L92.4949 40.5227L91.8849 38.8625L88.0953 28.5218L80.6618 37.3697Z" fill="#FFDDA8"/>
<path d="M97.2944 53.3328L120.322 57.3206L112.934 66.2168L112.886 66.2623L111.574 67.821L111.136 68.3718L110.6 69.0606L109.873 69.8849L103.066 78.1404L79.8978 74.1486L87.5269 65.0246L88.0629 64.3357L88.4997 63.8318L89.8596 62.2276L97.2944 53.3328Z" fill="#BC7C46"/>
<path d="M91.9345 38.7701L92.2844 39.6719L92.5002 40.3352L92.5431 40.4772L92.5847 40.6662L93.149 42.2782L97.2456 53.3786L120.274 57.3664L116.224 46.2673L115.527 44.3699L115.264 43.7052L114.961 42.8048L111.218 32.4654L88.1436 28.4763L91.9345 38.7701Z" fill="#DDA866"/>
<path d="M71.1226 49.3024L80.0088 73.5415L96.8266 53.2725L88.0328 29.083L71.1226 49.3024Z" fill="#F9C98A"/>
<path d="M88.3778 28.4831L88.5654 28.4884L97.7144 53.3921L97.5281 53.3399L88.3778 28.4831Z" fill="#BC7C46"/>
<path d="M92.5453 40.3835L92.5869 40.5725L75.2372 61.3896L75.1956 61.2007L92.5453 40.3835Z" fill="#BC7C46"/>
<path d="M92.5443 40.4299L92.9187 40.4876L92.9134 40.6755L92.6329 40.6205L92.5443 40.4299Z" fill="#BC7C46"/>
<path d="M91.9343 38.7705L115.009 42.7597L116.272 46.2222L93.1984 42.1862L91.9343 38.7705Z" fill="#9B7451"/>
<path d="M91.9345 38.7698L92.5457 40.3831L92.5873 40.5721L93.1985 42.1854L75.8033 62.9543L75.2376 61.3892L75.1491 61.199L74.5405 59.4918L91.9345 38.7698Z" fill="#CAAF8F"/>
<path d="M89.8591 62.2279L112.934 66.2171L112.886 66.2626L110.6 69.0609L87.4795 65.0236L89.8591 62.2279Z" fill="#9B7451"/>
<path d="M80.6622 37.3695L89.8593 62.2276L88.7419 63.557L88.5972 63.6938L87.6245 64.8865L87.5267 65.0246L79.8121 44.1516L79.1995 42.5851L78.3282 40.2133L79.2513 39.1131L79.8355 38.3786L80.6622 37.3695Z" fill="#CAAF8F"/>
<path d="M96.89 31.2134L99.5482 38.4239L93.944 37.4195L91.2844 30.2559L96.89 31.2134Z" fill="#E5E0DC"/>
<path d="M92.8551 31.1455L94.9892 36.9798L94.3822 36.8687L92.2481 31.0344L92.8551 31.1455Z" fill="#4F2E16"/>
<path d="M93.9757 31.3648L96.158 37.1536L95.8779 37.0987L93.7425 31.3113L93.9757 31.3648Z" fill="#B2AEAB"/>
<path d="M94.7234 31.4799L96.8574 37.3142L96.5774 37.2593L94.4433 31.425L94.7234 31.4799Z" fill="#B2AEAB"/>
<path d="M95.5179 31.5966L97.652 37.4309L97.3719 37.376L95.2378 31.5417L95.5179 31.5966Z" fill="#B2AEAB"/>
<path d="M96.264 31.7591L98.3994 37.5465L98.1193 37.4916L95.9839 31.7042L96.264 31.7591Z" fill="#B2AEAB"/>
</svg>
